<svg width="30" height="31" viewBox="0 0 30 31" fill="none" xmlns="http://www.w3.org/2000/svg">
<path d="M15 30.0082C23.2843 30.0082 30 23.4026 30 15.2541C30 7.10564 23.2843 0.5 15 0.5C6.71573 0.5 0 7.10564 0 15.2541C0 23.4026 6.71573 30.0082 15 30.0082Z" fill="#0E0E21"/>
<path d="M23.3747 18.6967L21.5935 15.7152C21.531 15.5922 21.3747 15.5615 21.281 15.6537L20.1247 16.3914C20.031 16.4529 19.9997 16.6066 20.0622 16.6988L21.0935 18.3894C21.1247 18.4508 21.0935 18.5123 21.0622 18.5431L15.0622 22.3545C15.031 22.3853 14.9685 22.3853 14.9372 22.3545L8.99974 18.5431C8.93724 18.5123 8.93724 18.4508 8.96849 18.3894L9.99974 16.6988C10.0622 16.6066 10.031 16.4529 9.93724 16.3914L8.78099 15.6537C8.65599 15.5922 8.53099 15.623 8.46849 15.7152L6.68724 18.6967C6.56224 18.9119 6.62474 19.1886 6.84349 19.3115L14.8122 24.414C14.9685 24.5062 15.156 24.5062 15.3122 24.414L23.281 19.3115C23.4372 19.1578 23.4997 18.8812 23.3747 18.6967Z" fill="white"/>
<path d="M9.65605 14.0553L10.8123 14.793C10.9373 14.8544 11.0623 14.8237 11.1248 14.7315L14.8748 8.46099C14.9061 8.39952 15.0311 8.39952 15.0623 8.46099L18.8123 14.7315C18.8748 14.8544 19.0311 14.8852 19.1248 14.793L20.2811 14.0553C20.3748 13.9938 20.4061 13.8401 20.3436 13.7479L15.9373 6.24788C15.8436 6.09419 15.7186 6.03271 15.5311 6.03271H14.4686C14.3123 6.03271 14.1561 6.12493 14.0623 6.24788L9.59355 13.7479C9.53105 13.8401 9.5623 13.9938 9.65605 14.0553Z" fill="#2AE7A8"/>
</svg>
