<svg width="30" height="31" viewBox="0 0 30 31" fill="none" xmlns="http://www.w3.org/2000/svg">
<path d="M15 30.5C23.2843 30.5 30 23.7843 30 15.5C30 7.21573 23.2843 0.5 15 0.5C6.71573 0.5 0 7.21573 0 15.5C0 23.7843 6.71573 30.5 15 30.5Z" fill="#000D2B"/>
<path d="M14.9251 6.01221L10.6891 8.49426L14.9251 10.9763L19.2406 8.49426L14.9251 6.01221ZM15.6217 19.2634V24.2273L21.3751 20.9452V15.9802L15.6217 19.2634ZM19.9366 10.0552V15.0202L15.6211 17.5022V12.5372L19.9366 10.0552ZM9.54785 15.0202L13.8634 17.5022V12.5372L9.54785 10.0552V15.0202ZM9.54785 21.7454L13.8634 24.2275V19.2634L9.54785 16.7813V21.7453V21.7454Z" fill="white"/>
</svg>
