<svg width="30" height="31" viewBox="0 0 30 31" fill="none" xmlns="http://www.w3.org/2000/svg">
<path d="M15 30.5C23.2843 30.5 30 23.7843 30 15.5C30 7.21573 23.2843 0.5 15 0.5C6.71573 0.5 0 7.21573 0 15.5C0 23.7843 6.71573 30.5 15 30.5Z" fill="#8DC351"/>
<path d="M19.8816 10.3756C19.1541 8.52682 17.3298 8.35994 15.2054 8.77244L14.4488 6.13525L12.8438 6.59557L13.5807 9.16432C13.1588 9.28432 12.7295 9.41744 12.3029 9.54869L11.5623 6.96307L9.9582 7.42244L10.7129 10.0596C10.3679 10.1665 10.0285 10.2715 9.6957 10.3671L9.69289 10.3578L7.47852 10.9924L7.9707 12.7081C7.9707 12.7081 9.15008 12.3443 9.13602 12.3724C9.78664 12.1859 10.1063 12.5028 10.261 12.8112L11.1235 15.8149C11.1676 15.8028 11.2266 15.7878 11.296 15.7774L11.1263 15.8262L12.3329 20.0356C12.3629 20.2484 12.3366 20.6093 11.8829 20.7406C11.9082 20.7528 10.7148 21.0743 10.7148 21.0743L10.9463 23.0834L13.0351 22.4834C13.4241 22.3737 13.8085 22.2706 14.1845 22.1646L14.9504 24.8318L16.5535 24.3724L15.797 21.7334C16.227 21.6193 16.6558 21.5005 17.0832 21.3771L17.8351 24.0049L19.441 23.5446L18.6779 20.8821C21.332 19.9531 23.026 18.7315 22.5338 16.129C22.1382 14.0346 20.9176 13.399 19.2798 13.4703C20.0748 12.7296 20.417 11.7284 19.8816 10.3765V10.3756ZM19.2723 16.7224C19.8441 18.7165 16.366 19.4684 15.2785 19.7815L14.2651 16.2471C15.3526 15.9349 18.6751 14.644 19.2713 16.7234L19.2723 16.7224ZM17.0954 11.9506C17.6148 13.7646 14.7076 14.3693 13.801 14.629L12.8823 11.4237C13.7879 11.164 16.5526 10.0596 17.0954 11.9515V11.9506Z" fill="white"/>
</svg>
