
<svg width="359" height="234" viewBox="0 0 359 234" fill="none" xmlns="http://www.w3.org/2000/svg">
<path d="M298.932 66.0851C310.431 89.2503 346.883 94.5622 380.35 77.9495C413.818 61.3367 437.233 11.6822 420.127 5.92516C403.022 0.168298 402.147 42.8956 368.68 59.5083C334.545 79.6157 290.836 46.2009 298.932 66.0851Z" fill="#FFB96A"/>
<g opacity="0.6" filter="url(#filter0_f_1_7237)">
<ellipse cx="255.337" cy="155.05" rx="99.5403" ry="35.1604" transform="rotate(-5.45233 255.337 155.05)" fill="#262973"/>
</g>
<path d="M156.721 150.152C144.976 157.979 137.157 162.496 137.208 168.082C137.283 176.262 151.341 174.248 160.144 169.68C168.11 165.547 174.754 169.246 180.311 159.619C181.311 157.887 181.108 154.938 180.311 151.38C176.553 148.767 170.348 143.414 156.721 150.152Z" fill="url(#paint0_linear_1_7237)"/>
<path d="M153.672 134.74C147.391 139.574 137.682 144.313 132 150.5C109.5 175 66 182.803 34.9998 172C3.9997 161.197 4.4999 129.24 48.9995 134.74" stroke="#FF8401" stroke-width="2.04752" stroke-linecap="square"/>
<path d="M182.468 112.558C183.762 111.484 185.09 110.43 186.451 109.398" stroke="#FF8401" stroke-width="2.04752" stroke-linecap="square"/>
<path fill-rule="evenodd" clip-rule="evenodd" d="M156.876 152.031C162.984 171.51 206.798 189.209 286.27 173.416C337.618 163.212 350.311 130.828 350.193 109.074C349.119 97.3673 346.859 87.8565 342.715 82.6341C332.809 70.1521 297.863 45.1389 254.087 71.3487C248.814 74.5058 241.689 80.4477 234.228 86.6694C222.069 96.8091 209.019 107.692 201.645 108.473C156.512 113.257 151.39 134.54 156.876 152.031Z" fill="#FFB96A"/>
<mask id="mask0_1_7237" style="mask-type:alpha" maskUnits="userSpaceOnUse" x="147" y="57" width="204" height="122">
<path fill-rule="evenodd" clip-rule="evenodd" d="M147.712 119.785C147.545 116.995 151.075 117.483 157.364 119.626C159.621 120.395 161.668 121.284 163.366 122.109C168.098 117.684 175.153 113.922 185.259 111.323C185.427 109.797 185.665 108.149 186.002 106.445C187.456 99.0861 188.973 95.3597 191.61 97.0994C193.371 98.2614 197.607 103.784 200.852 108.562C201.117 108.533 201.382 108.504 201.65 108.475C208.828 107.715 221.385 96.5452 233.262 85.9797L233.262 85.9796C241.073 79.0315 248.591 72.3446 254.092 69.0509C297.867 42.8411 332.814 67.8542 342.719 80.3362C346.864 85.5587 349.123 95.0694 350.198 106.776C350.316 128.53 334.004 164.362 282.442 173.418C207.125 186.646 162.989 171.512 156.88 152.033C155.393 147.293 154.686 142.273 155.343 137.379C153.081 133.918 147.88 122.572 147.712 119.785Z" fill="#F9B466"/>
</mask>
<g mask="url(#mask0_1_7237)">
<path fill-rule="evenodd" clip-rule="evenodd" d="M147.713 119.786C147.545 116.996 151.075 117.483 157.365 119.626C159.621 120.395 161.668 121.284 163.366 122.109C168.098 117.685 175.154 113.923 185.26 111.323C185.427 109.797 185.666 108.15 186.003 106.445C187.457 99.0865 188.973 95.3602 191.61 97.0999C193.372 98.2618 197.607 103.784 200.853 108.562C201.117 108.533 201.383 108.504 201.65 108.476C208.829 107.715 221.385 96.5456 233.263 85.9801L233.263 85.9801C241.074 79.032 248.591 72.345 254.092 69.0513C297.868 42.8415 332.815 67.8547 342.72 80.3367C346.864 85.5591 349.124 95.0699 350.198 106.776C350.316 128.531 334.005 164.363 282.442 173.419C207.126 186.647 162.989 171.512 156.881 152.034C155.394 147.293 154.686 142.274 155.344 137.38C153.082 133.918 147.88 122.573 147.713 119.786Z" fill="#FFB96A"/>
<ellipse cx="146.415" cy="116.873" rx="23.2306" ry="28.6" transform="rotate(-23.2816 146.415 116.873)" fill="#E5A05C"/>
<ellipse cx="255.987" cy="72.4009" rx="34.4802" ry="45.3801" transform="rotate(-108.965 255.987 72.4009)" fill="#E5A05C"/>
</g>
<path d="M152.495 152.36C152.019 152.054 151.386 152.191 151.08 152.666C150.774 153.142 150.911 153.775 151.386 154.081L152.495 152.36ZM178.844 179.316C171.748 176.784 167.867 171.93 164.418 166.717C161.013 161.571 157.935 155.864 152.495 152.36L151.386 154.081C156.363 157.286 159.148 162.463 162.71 167.847C166.228 173.163 170.418 178.484 178.156 181.244L178.844 179.316Z" fill="#FF8401"/>
<path d="M207.155 130.134C207.155 130.134 215.812 126.895 224.789 129.578" stroke="#E5A05C" stroke-width="1.37628" stroke-miterlimit="10" stroke-linecap="round"/>
<path d="M204.834 125.928C204.834 125.928 210.765 118.853 219.91 116.755" stroke="#E5A05C" stroke-width="1.37628" stroke-miterlimit="10" stroke-linecap="round"/>
<path d="M164.415 147.07C164.415 147.07 155.785 150.378 150.856 158.327" stroke="#E5A05C" stroke-width="1.37628" stroke-miterlimit="10" stroke-linecap="round"/>
<path d="M163.25 142.467C163.25 142.467 154.184 140.659 145.738 144.739" stroke="#E5A05C" stroke-width="1.37628" stroke-miterlimit="10" stroke-linecap="round"/>
<path d="M183.316 138.753C182.317 139.243 177.027 138.119 181.874 135.785C186.733 133.435 184.321 138.29 183.316 138.753Z" fill="#3F3D56"/>
<path d="M189.316 128.72C189.978 128.624 190.436 128.011 190.34 127.351C190.243 126.691 189.629 126.234 188.967 126.331C188.305 126.427 187.847 127.04 187.943 127.7C188.04 128.36 188.654 128.817 189.316 128.72Z" fill="#3F3D56"/>
<path d="M311.394 110.58C300.283 116.995 296.968 132.055 303.99 144.217C307.51 150.314 311.652 155.532 317.197 158.42C310.503 170.388 306.08 181.294 312.677 184.593C317.774 187.142 334.706 177.005 341.373 158.42C351.84 139.31 356.743 116.11 345.48 88.9232C342.955 82.8301 321.338 98.9713 311.394 110.58Z" fill="#FFB96A"/>
<path d="M311.393 110.581C300.282 116.996 296.967 132.055 303.989 144.217C307.509 150.314 311.651 155.533 317.196 158.421C310.501 170.389 306.078 181.295 312.675 184.594C317.773 187.143 334.705 177.006 341.372 158.421C349.399 143.765 356.581 119.188 345.806 87.8838" stroke="#E5A05C" stroke-width="2.04752" stroke-linecap="round"/>
<path d="M171.551 136.078C172.213 135.982 172.671 135.369 172.575 134.709C172.478 134.049 171.863 133.592 171.202 133.688C170.54 133.784 170.082 134.397 170.178 135.057C170.275 135.717 170.889 136.174 171.551 136.078Z" fill="#3F3D56"/>
<path d="M216.434 156.569C227.432 153.095 222.871 158.731 225.015 166.952C242.765 158.382 277.306 145.22 273.472 161.128C269.639 177.035 239.768 181.834 225.311 182.245C204.232 189.168 181.137 192.511 178.992 184.291C176.495 174.717 197.747 166.933 216.434 156.569Z" fill="url(#paint1_linear_1_7237)"/>
<path d="M216.433 156.566C197.747 166.93 176.494 174.714 178.992 184.288C179.152 184.905 179.431 185.456 179.818 185.946M179.818 185.946C184.587 191.988 205.811 188.647 225.311 182.242C240.395 181.615 273.435 176.313 280.058 151.872M179.818 185.946C180.767 185.473 181.96 184.464 184.912 183.407M179.107 180.804C180.137 180.11 182.155 179.151 183.168 178.781" stroke="#E5A05C" stroke-width="2.04752" stroke-linecap="round"/>
<path d="M246.156 116.88L246.833 116.112L246.156 116.88ZM257.254 186.132L257.417 185.121L257.254 186.132ZM198.918 163.927L199.379 164.842L198.918 163.927ZM293.666 90.009L293.269 90.9526L293.666 90.009ZM370.118 65.744L369.188 65.3172L370.118 65.744ZM397.454 73.0042L396.606 72.4303L397.454 73.0042ZM393.96 33.4648L394.624 34.2433L393.96 33.4648ZM417.937 70.6159C417.764 71.1544 418.061 71.7306 418.6 71.903C419.138 72.0754 419.714 71.7786 419.887 71.2401L417.937 70.6159ZM201.203 107.12C200.655 107.26 200.324 107.818 200.464 108.365C200.604 108.913 201.162 109.244 201.709 109.104L201.203 107.12ZM190.393 167.875C189.946 168.222 189.865 168.865 190.211 169.312C190.558 169.758 191.201 169.84 191.647 169.493L190.393 167.875ZM386.545 47.0018C387.025 46.7036 387.173 46.0724 386.875 45.5921C386.577 45.1117 385.946 44.964 385.465 45.2622L386.545 47.0018ZM404.061 60.8869C404.217 60.3433 403.902 59.7765 403.359 59.6209C402.815 59.4653 402.248 59.7799 402.093 60.3234L404.061 60.8869ZM397.818 31.5513C398.252 31.189 398.31 30.5434 397.948 30.1094C397.585 29.6753 396.94 29.6171 396.506 29.9794L397.818 31.5513ZM419.882 39.0866C419.703 38.5505 419.122 38.2616 418.586 38.4413C418.05 38.621 417.761 39.2012 417.941 39.7373L419.882 39.0866ZM245.478 117.647C266.201 135.932 272.797 153.621 272.376 166.262C272.166 172.593 270.201 177.64 267.403 180.923C264.611 184.2 261.02 185.702 257.417 185.121L257.091 187.142C261.535 187.859 265.801 185.96 268.961 182.251C272.116 178.55 274.2 173.03 274.423 166.33C274.869 152.907 267.868 134.672 246.833 116.112L245.478 117.647ZM257.417 185.121C252.403 184.312 248.514 181.539 244.902 177.958C243.094 176.165 241.378 174.194 239.626 172.183C237.883 170.182 236.104 168.143 234.206 166.268C230.403 162.514 226.04 159.339 220.27 158.317C214.502 157.296 207.497 158.455 198.457 163.013L199.379 164.842C208.176 160.406 214.722 159.414 219.913 160.333C225.102 161.252 229.104 164.109 232.767 167.726C234.602 169.537 236.331 171.518 238.082 173.528C239.825 175.527 241.59 177.557 243.461 179.412C247.207 183.127 251.469 186.236 257.091 187.142L257.417 185.121ZM293.269 90.9526C314.492 99.8886 331.349 99.4374 344.24 93.8059C357.109 88.1842 365.867 77.4694 371.049 66.1708L369.188 65.3172C364.155 76.2901 355.711 86.5605 343.42 91.9296C331.152 97.2891 314.89 97.8347 294.063 89.0655L293.269 90.9526ZM396.606 72.4303C393.229 77.4184 389.797 78.7086 387.104 78.0752C384.323 77.421 381.748 74.6014 380.395 70.118C377.716 61.2408 380.153 46.6044 394.624 34.2433L393.295 32.6864C378.29 45.5025 375.49 60.9529 378.435 70.7096C379.894 75.5432 382.847 79.1773 386.636 80.0683C390.513 80.9802 394.694 78.9071 398.301 73.5781L396.606 72.4303ZM201.709 109.104C217.002 105.196 232.774 106.437 245.478 117.647L246.833 116.112C233.462 104.314 216.916 103.105 201.203 107.12L201.709 109.104ZM198.457 163.013C194.938 164.788 192.297 166.398 190.393 167.875L191.647 169.493C193.41 168.126 195.925 166.584 199.379 164.842L198.457 163.013ZM371.049 66.1708C373.148 61.5934 376.044 57.4022 378.921 54.0423C381.808 50.671 384.628 48.1919 386.545 47.0018L385.465 45.2622C383.306 46.6025 380.33 49.2487 377.366 52.7106C374.392 56.1837 371.382 60.5334 369.188 65.3172L371.049 66.1708ZM402.093 60.3234C401.339 62.9557 399.834 67.6607 396.606 72.4303L398.301 73.5781C401.709 68.5446 403.285 63.5982 404.061 60.8869L402.093 60.3234ZM394.624 34.2433C395.303 33.6638 396.101 32.9911 396.73 32.4624C397.045 32.1982 397.317 31.9703 397.51 31.8086C397.607 31.7277 397.684 31.6633 397.737 31.6192C397.763 31.5971 397.783 31.5801 397.797 31.5687C397.804 31.5629 397.809 31.5586 397.813 31.5557C397.814 31.5542 397.816 31.5531 397.817 31.5524C397.817 31.552 397.817 31.5518 397.817 31.5516C397.818 31.5515 397.818 31.5514 397.818 31.5514C397.818 31.5514 397.818 31.5514 397.818 31.5513C397.818 31.5513 397.818 31.5513 397.162 30.7654C396.506 29.9794 396.506 29.9794 396.506 29.9795C396.506 29.9795 396.506 29.9795 396.506 29.9795C396.506 29.9796 396.506 29.9796 396.505 29.9797C396.505 29.9799 396.505 29.9802 396.504 29.9806C396.503 29.9813 396.502 29.9825 396.5 29.984C396.497 29.9869 396.491 29.9913 396.485 29.9971C396.471 30.0087 396.45 30.0258 396.424 30.048C396.37 30.0924 396.293 30.1571 396.196 30.2383C396.002 30.4007 395.729 30.6294 395.413 30.8945C394.783 31.4244 393.979 32.1014 393.295 32.6864L394.624 34.2433ZM197.07 103.289C207.379 95.4912 223.884 89.2122 241.645 86.4913C259.402 83.771 278.257 84.6319 293.269 90.9526L294.063 89.0655C278.588 82.5498 259.321 81.7121 241.335 84.4674C223.353 87.222 206.495 93.5926 195.834 101.656L197.07 103.289ZM417.941 39.7373C420.913 48.604 421.175 60.4995 417.937 70.6159L419.887 71.2401C423.257 60.7108 422.993 48.3686 419.882 39.0866L417.941 39.7373Z" fill="#FF8401"/>
<path d="M46.5339 145.915C60.4952 141.091 67.8842 125.837 63.006 111.868C58.1278 97.8996 42.871 90.4879 28.9097 95.3116C14.9484 100.135 7.55938 115.39 12.4376 129.358C17.3157 143.327 32.584 150.753 46.5339 145.915Z" fill="#FF8400"/>
<path d="M45.7518 119.432C45.3042 118.913 44.6951 118.596 44.026 118.489C43.6109 118.408 43.1652 118.376 42.7371 118.422C42.9521 118.201 43.1442 117.952 43.2881 117.672C43.4957 117.271 43.6182 116.823 43.6138 116.362C43.598 115.887 43.4894 115.441 43.3275 115.015C43.0809 114.286 42.6208 113.638 42.0272 113.168C41.403 112.746 40.682 112.519 39.9264 112.506C39.1988 112.471 38.4697 112.576 37.7671 112.799L36.744 109.867L35.3712 111.634L35.9972 113.425L34.5869 113.921L33.9318 112.037L31.7431 111.61L32.7662 114.542L28.8974 115.876L30.9102 117.654C31.1656 117.539 31.4527 117.492 31.7232 117.481C31.8756 117.496 31.9974 117.56 32.1026 117.66C32.2712 117.895 32.3864 118.15 32.4596 118.439L35.2306 126.384C35.3458 126.639 35.4191 126.928 35.4161 127.209C35.3893 127.347 35.4158 127.465 35.2899 127.567C35.1754 127.684 35.164 127.67 34.7905 127.811L33.9992 130.545L37.8426 129.209L38.8658 132.141L40.6864 131.52L39.6633 128.588L41.085 128.106L42.1082 131.037L43.8895 130.425L42.8689 127.468C43.7622 127.137 44.5921 126.671 45.3447 126.082C46.03 125.525 46.5416 124.784 46.8183 123.955C47.0215 123.093 46.9707 122.205 46.6976 121.358C46.4993 120.66 46.1802 120.013 45.7518 119.432ZM35.4279 116.373L35.4076 116.32L36.6439 115.896C37.3351 115.659 39.5716 114.607 40.3092 116.563C41.0353 118.505 37.9188 119.506 37.9188 119.506L36.6825 119.93L36.6332 119.784L35.4279 116.373ZM37.373 121.971L38.7947 121.488C39.0869 121.39 40.0932 121.083 40.4502 120.979C40.5963 120.929 40.7652 120.908 40.9062 120.91C40.9569 120.915 41.0217 120.909 41.0725 120.914C41.329 120.914 41.569 120.952 41.7924 121.025C41.9422 121.066 42.0894 121.132 42.2086 121.221C42.3989 121.369 42.5726 121.553 42.7184 121.759C42.8185 121.91 42.8932 122.059 42.9539 122.218C43.0754 122.538 43.1181 122.875 43.0478 123.188C42.9506 123.638 42.7176 124.037 42.3794 124.335C41.7449 124.897 41.0103 125.309 40.2124 125.586L38.7907 126.068L37.373 121.971Z" fill="white"/>
<defs>
<filter id="filter0_f_1_7237" x="130.189" y="92.7839" width="250.294" height="124.531" filterUnits="userSpaceOnUse" color-interpolation-filters="sRGB">
<feFlood flood-opacity="0" result="BackgroundImageFix"/>
<feBlend mode="normal" in="SourceGraphic" in2="BackgroundImageFix" result="shape"/>
<feGaussianBlur stdDeviation="13" result="effect1_foregroundBlur_1_7237"/>
</filter>
<linearGradient id="paint0_linear_1_7237" x1="108.077" y1="184.221" x2="111.528" y2="132.178" gradientUnits="userSpaceOnUse">
<stop offset="0.265625" stop-color="#E7A25D"/>
<stop offset="0.729167" stop-color="#FFB96A"/>
</linearGradient>
<linearGradient id="paint1_linear_1_7237" x1="146.639" y1="202.299" x2="196.074" y2="237.668" gradientUnits="userSpaceOnUse">
<stop offset="0.0677083" stop-color="#E7A25D"/>
<stop offset="0.572917" stop-color="#FFB96A"/>
</linearGradient>
</defs>
</svg>
