
<svg width="603" height="293" viewBox="0 0 603 293" fill="none" xmlns="http://www.w3.org/2000/svg">
<path d="M414.865 86.0474C429.807 116.223 477.197 123.131 520.713 101.476C564.229 79.8212 594.689 15.1221 572.452 7.62769C550.215 0.133475 549.063 55.7998 505.546 77.4548C461.161 103.663 404.347 60.1447 414.865 86.0474Z" fill="#FFB96A"/>
<g opacity="0.6" filter="url(#filter0_f_1_7984)">
<ellipse cx="129.5" cy="46" rx="129.5" ry="46" transform="matrix(0.995453 -0.0952531 0.0947827 0.995498 224 169)" fill="#1F1F41"/>
</g>
<path d="M228.475 196.309C213.155 206.541 202.956 212.448 203.024 219.752C203.123 230.448 221.462 227.818 232.944 221.846C243.335 216.442 252.002 221.281 259.251 208.693C260.555 206.429 260.289 202.571 259.249 197.918C254.345 194.501 246.251 187.501 228.475 196.309Z" fill="url(#paint0_linear_1_7984)"/>
<path d="M31 221.349C44.9079 235.891 131.625 251.673 202.565 194.68C211.121 187.805 216.805 182.332 225 176" stroke="#FF8401" stroke-width="2.04752" stroke-linecap="square"/>
<path d="M262 147C263.624 145.64 265.292 144.306 267 143" stroke="#FF8401" stroke-width="2.04752" stroke-linecap="square"/>
<path fill-rule="evenodd" clip-rule="evenodd" d="M228.897 198.384C236.872 223.804 293.981 246.93 397.536 226.381C464.443 213.104 480.962 170.858 480.792 142.473C479.383 127.198 476.432 114.787 471.027 107.969C458.11 91.6759 412.55 59.0135 355.522 93.1802C348.653 97.2957 339.372 105.044 329.654 113.156C313.816 126.378 296.818 140.568 287.208 141.582C228.395 147.791 221.736 175.558 228.897 198.384Z" fill="#FFB96A"/>
<mask id="mask0_1_7984" style="mask-type:alpha" maskUnits="userSpaceOnUse" x="216" y="74" width="265" height="159">
<path fill-rule="evenodd" clip-rule="evenodd" d="M216.239 156.526C215.997 152.93 220.636 153.587 228.913 156.4C231.733 157.358 234.305 158.455 236.472 159.485C242.648 153.461 252.035 148.341 265.679 144.849C265.894 142.836 266.204 140.657 266.647 138.402C268.526 128.836 270.497 123.995 273.951 126.265C276.265 127.787 281.849 135.024 286.112 141.262C286.381 141.233 286.651 141.204 286.922 141.175C296.274 140.188 312.625 125.63 328.092 111.859C338.263 102.803 348.052 94.0875 355.217 89.7959C412.229 55.6449 457.776 88.2914 470.69 104.577C476.093 111.391 479.043 123.797 480.452 139.064C480.621 167.436 459.395 214.156 392.225 225.93C294.111 243.128 236.599 223.358 228.627 197.95C226.749 191.966 225.822 185.642 226.537 179.456C226.496 179.396 226.455 179.335 226.413 179.273C223.42 174.811 216.482 160.123 216.239 156.526Z" fill="#F9B466"/>
</mask>
<g mask="url(#mask0_1_7984)">
<path fill-rule="evenodd" clip-rule="evenodd" d="M216.239 156.526C215.997 152.93 220.636 153.587 228.913 156.4C231.733 157.358 234.305 158.455 236.472 159.485C242.648 153.461 252.035 148.341 265.679 144.849C265.894 142.836 266.204 140.657 266.647 138.402C268.526 128.836 270.497 123.995 273.951 126.265C276.265 127.787 281.849 135.024 286.112 141.262C286.381 141.233 286.651 141.204 286.922 141.175C296.274 140.188 312.625 125.63 328.092 111.859C338.263 102.803 348.052 94.0875 355.217 89.7959C412.229 55.6449 457.776 88.2914 470.69 104.577C476.093 111.391 479.043 123.797 480.452 139.064C480.621 167.436 459.395 214.156 392.225 225.93C294.111 243.128 236.599 223.358 228.627 197.95C226.749 191.966 225.822 185.642 226.537 179.456C226.496 179.396 226.455 179.335 226.413 179.273C223.42 174.811 216.482 160.123 216.239 156.526Z" fill="#FFB96A"/>
<ellipse cx="30.5" cy="37.5" rx="30.5" ry="37.5" transform="matrix(0.918533 -0.395345 0.395154 0.918615 171.999 130)" fill="#E5A05C"/>
<ellipse cx="45" cy="59" rx="45" ry="59" transform="matrix(-0.325 -0.945714 0.94572 -0.324983 315.999 156)" fill="#E5A05C"/>
</g>
<path d="M223.547 199.135C223.069 198.833 222.437 198.975 222.135 199.453C221.833 199.931 221.975 200.563 222.453 200.865L223.547 199.135ZM258.338 234.034C248.884 230.723 243.721 224.371 239.167 217.615C234.655 210.922 230.644 203.62 223.547 199.135L222.453 200.865C229.084 205.057 232.799 211.832 237.469 218.759C242.096 225.623 247.57 232.432 257.662 235.966L258.338 234.034Z" fill="#FF8401"/>
<path d="M295 172C295 172 306.071 167.988 317.657 171.589" stroke="#E5A05C" stroke-width="1.37628" stroke-miterlimit="10" stroke-linecap="round"/>
<path d="M292 167C292 167 299.521 157.997 311.067 155.284" stroke="#E5A05C" stroke-width="1.37628" stroke-miterlimit="10" stroke-linecap="round"/>
<path d="M239 194C239 194 227.38 198.254 220.789 208.593" stroke="#E5A05C" stroke-width="1.37628" stroke-miterlimit="10" stroke-linecap="round"/>
<path d="M238 188C238 188 225.95 185.503 214.856 190.484" stroke="#E5A05C" stroke-width="1.37628" stroke-miterlimit="10" stroke-linecap="round"/>
<path d="M266.801 182.272C265.531 182.879 258.748 181.366 264.911 178.479C271.087 175.571 268.079 181.7 266.801 182.272Z" fill="#3F3D56"/>
<path d="M273.916 169.752C274.736 169.632 275.304 168.87 275.184 168.051C275.065 167.231 274.304 166.663 273.484 166.783C272.665 166.903 272.097 167.665 272.216 168.484C272.335 169.304 273.096 169.872 273.916 169.752Z" fill="#3F3D56"/>
<path d="M430.236 143.943C415.714 152.347 411.341 172.004 420.468 187.85C425.044 195.793 430.434 202.588 437.662 206.339C428.887 221.974 423.081 236.215 431.681 240.498C438.326 243.808 460.456 230.531 469.216 206.263C482.936 181.3 489.407 151.018 474.79 115.584C471.514 107.643 443.25 128.768 430.236 143.943Z" fill="#FFB96A"/>
<path d="M430.307 144.617C415.788 153.019 411.405 172.652 420.516 188.469C425.084 196.399 430.466 203.181 437.687 206.921C428.908 222.541 423.095 236.766 431.687 241.038C438.326 244.339 460.451 231.065 469.221 206.826C479.75 187.7 489.215 155.653 475.284 114.912" stroke="#E5A05C" stroke-width="2.04752" stroke-linecap="round"/>
<path d="M250.916 178.752C251.736 178.632 252.304 177.87 252.184 177.051C252.065 176.231 251.304 175.663 250.484 175.783C249.665 175.903 249.097 176.665 249.216 177.484C249.335 178.304 250.096 178.872 250.916 178.752Z" fill="#3F3D56"/>
<path d="M306.463 204.832C320.779 200.297 314.846 207.67 317.647 218.434C340.748 207.236 385.705 190.045 380.732 210.865C375.76 231.684 336.873 237.932 318.051 238.454C290.613 247.493 260.547 251.843 257.746 241.08C254.484 228.544 282.145 218.378 306.463 204.832Z" fill="url(#paint1_linear_1_7984)"/>
<path d="M306.458 204.762C282.114 218.231 254.437 228.366 257.662 240.755C257.869 241.553 258.23 242.266 258.732 242.898M258.732 242.898C264.923 250.708 292.55 246.326 317.941 237.982C337.572 237.129 380.581 230.177 389.265 198.513M258.732 242.898C259.968 242.284 261.523 240.974 265.369 239.598M257.821 236.244C259.163 235.342 261.791 234.095 263.111 233.613" stroke="#E5A05C" stroke-width="2.04752" stroke-linecap="round"/>
<path d="M345.831 152.418L346.509 151.651L345.831 152.418ZM360.29 242.823L360.453 241.812L360.29 242.823ZM284.29 213.836L284.752 214.75L284.29 213.836ZM407.728 117.34L407.33 118.283L407.728 117.34ZM507.33 85.6628L506.399 85.2367L507.33 85.6628ZM542.943 95.1406L542.094 94.5675L542.943 95.1406ZM538.391 43.524L539.056 44.3018L538.391 43.524ZM569.923 92.1187C569.751 92.6573 570.048 93.2334 570.587 93.4054C571.125 93.5775 571.702 93.2803 571.874 92.7417L569.923 92.1187ZM287.342 139.98C286.794 140.121 286.464 140.678 286.604 141.226C286.745 141.774 287.302 142.104 287.85 141.964L287.342 139.98ZM273.372 219.238C272.925 219.585 272.845 220.228 273.192 220.674C273.539 221.121 274.182 221.201 274.628 220.854L273.372 219.238ZM528.568 60.9296C529.049 60.631 529.196 59.9997 528.897 59.5196C528.598 59.0395 527.967 58.8924 527.487 59.191L528.568 60.9296ZM551.253 79.2355C551.408 78.6918 551.094 78.1252 550.55 77.9699C550.006 77.8146 549.44 78.1294 549.284 78.6731L551.253 79.2355ZM543.219 40.7853C543.653 40.4226 543.711 39.7769 543.348 39.3432C542.985 38.9095 542.339 38.852 541.906 39.2147L543.219 40.7853ZM571.869 50.9629C571.69 50.4267 571.11 50.1374 570.574 50.3168C570.037 50.4962 569.748 51.0762 569.928 51.6124L571.869 50.9629ZM345.153 153.185C372.198 177.096 380.853 200.271 380.301 216.894C380.025 225.216 377.447 231.877 373.747 236.227C370.054 240.57 365.274 242.591 360.453 241.812L360.127 243.833C365.79 244.749 371.246 242.328 375.307 237.554C379.362 232.786 382.059 225.652 382.348 216.962C382.925 199.559 373.866 175.838 346.509 151.651L345.153 153.185ZM360.453 241.812C353.829 240.741 348.706 237.07 343.981 232.375C341.615 230.025 339.373 227.443 337.091 224.819C334.819 222.206 332.509 219.553 330.046 217.116C325.113 212.236 319.483 208.139 312.054 206.82C304.626 205.502 295.569 206.99 283.828 212.923L284.752 214.75C296.249 208.941 304.847 207.621 311.696 208.836C318.543 210.051 323.812 213.829 328.606 218.571C331.006 220.945 333.266 223.54 335.546 226.163C337.817 228.775 340.11 231.416 342.537 233.828C347.398 238.657 352.894 242.664 360.127 243.833L360.453 241.812ZM407.33 118.283C434.919 129.923 456.791 129.32 473.493 122.009C490.171 114.709 501.533 100.789 508.261 86.0889L506.399 85.2367C499.82 99.6113 488.771 113.086 472.672 120.134C456.594 127.171 435.319 127.869 408.126 116.396L407.33 118.283ZM542.094 94.5675C537.66 101.132 533.076 102.934 529.389 102.065C525.614 101.175 522.202 97.3708 520.423 91.4637C516.891 79.7396 520.122 60.5077 539.056 44.3018L537.725 42.7462C518.258 59.4078 514.666 79.4527 518.462 92.0542C520.346 98.3099 524.135 102.931 528.919 104.058C533.793 105.206 539.127 102.618 543.791 95.7137L542.094 94.5675ZM287.85 141.964C307.836 136.846 328.501 138.462 345.153 153.185L346.509 151.651C329.19 136.338 307.75 134.755 287.342 139.98L287.85 141.964ZM283.828 212.923C279.253 215.234 275.832 217.326 273.372 219.238L274.628 220.854C276.946 219.053 280.241 217.029 284.752 214.75L283.828 212.923ZM508.261 86.0889C511.011 80.0817 514.801 74.5861 518.563 70.1826C522.336 65.7678 526.034 62.506 528.568 60.9296L527.487 59.191C524.711 60.9179 520.857 64.3471 517.007 68.8525C513.147 73.3693 509.243 79.0233 506.399 85.2367L508.261 86.0889ZM549.284 78.6731C548.299 82.1216 546.328 88.3007 542.094 94.5675L543.791 95.7137C548.203 89.1831 550.246 82.7628 551.253 79.2355L549.284 78.6731ZM539.056 44.3018C539.941 43.5445 540.982 42.6656 541.802 41.9752C542.212 41.6302 542.566 41.3326 542.818 41.1213C542.944 41.0157 543.045 40.9316 543.113 40.874C543.148 40.8452 543.174 40.823 543.192 40.808C543.201 40.8005 543.208 40.7948 543.213 40.791C543.215 40.7891 543.217 40.7877 543.218 40.7867C543.218 40.7862 543.219 40.7859 543.219 40.7856C543.219 40.7855 543.219 40.7854 543.219 40.7854C543.219 40.7854 543.219 40.7853 543.219 40.7853C543.219 40.7853 543.219 40.7853 542.563 40C541.906 39.2147 541.906 39.2147 541.906 39.2147C541.906 39.2147 541.906 39.2148 541.906 39.2148C541.906 39.2149 541.905 39.215 541.905 39.2151C541.905 39.2153 541.905 39.2157 541.904 39.2162C541.903 39.2172 541.901 39.2187 541.899 39.2206C541.894 39.2245 541.887 39.2302 541.878 39.2378C541.86 39.2529 541.833 39.2752 541.799 39.3042C541.73 39.3621 541.629 39.4464 541.503 39.5524C541.25 39.7643 540.894 40.0627 540.483 40.4087C539.662 41.1003 538.616 41.9834 537.725 42.7462L539.056 44.3018ZM281.695 134.425C295.179 124.206 316.735 115.995 339.908 112.438C363.077 108.882 387.703 110.002 407.33 118.283L408.126 116.396C388.035 107.92 362.995 106.823 339.597 110.414C316.204 114.005 294.294 122.308 280.458 132.793L281.695 134.425ZM569.928 51.6124C573.821 63.2512 574.162 78.8488 569.923 92.1187L571.874 92.7417C576.244 79.0597 575.901 63.0163 571.869 50.9629L569.928 51.6124Z" fill="#FF8401"/>
<path d="M60.6132 227.126C78.8317 220.773 88.5049 200.772 82.1773 182.485C75.8498 164.199 55.9716 154.527 37.753 160.88C19.5345 167.233 9.86137 187.233 16.1889 205.52C22.5164 223.807 42.4095 233.497 60.6132 227.126Z" fill="#FF8400"/>
<path d="M59.8543 192.496C59.2727 191.819 58.4759 191.409 57.5973 191.278C57.0524 191.177 56.4666 191.141 55.903 191.207C56.1887 190.913 56.4448 190.582 56.6379 190.212C56.9163 189.681 57.0836 189.09 57.0841 188.483C57.0697 187.857 56.933 187.272 56.7258 186.713C56.4113 185.757 55.8151 184.91 55.0406 184.3C54.2254 183.753 53.2802 183.464 52.2866 183.457C51.3301 183.42 50.3698 183.568 49.4427 183.871L48.1368 180.025L46.3072 182.37L47.1063 184.719L45.2446 185.392L44.4086 182.921L41.5357 182.388L42.8416 186.234L37.735 188.042L40.3582 190.357C40.6957 190.202 41.0739 190.135 41.4298 190.117C41.63 190.136 41.7894 190.218 41.9265 190.348C42.145 190.655 42.293 190.989 42.3854 191.368L45.922 201.792C46.07 202.125 46.1625 202.505 46.1548 202.875C46.1176 203.057 46.1508 203.212 45.9839 203.348C45.8317 203.503 45.8169 203.485 45.3237 203.676L44.2458 207.286L49.319 205.475L50.6249 209.32L53.028 208.478L51.7221 204.633L53.5986 203.978L54.9044 207.824L57.2556 206.994L55.9535 203.115C57.1328 202.667 58.2307 202.042 59.2286 201.257C60.1375 200.514 60.8204 199.531 61.1957 198.436C61.4746 197.298 61.4198 196.13 61.0722 195.019C60.8207 194.102 60.4098 193.255 59.8543 192.496ZM46.3174 188.609L46.2915 188.539L47.9232 187.964C48.8355 187.643 51.7914 186.228 52.7349 188.792C53.6636 191.339 49.551 192.699 49.551 192.699L47.9193 193.275L47.8564 193.083L46.3174 188.609ZM48.7997 195.952L50.6761 195.297C51.0618 195.164 52.3894 194.746 52.8604 194.604C53.0532 194.537 53.2757 194.507 53.4611 194.507C53.5278 194.513 53.6131 194.504 53.6798 194.51C54.0172 194.507 54.3323 194.553 54.6251 194.647C54.8216 194.699 55.0143 194.784 55.1699 194.9C55.4182 195.091 55.6441 195.331 55.833 195.601C55.9626 195.798 56.0589 195.993 56.1366 196.202C56.292 196.621 56.3436 197.064 56.2469 197.477C56.113 198.071 55.8011 198.599 55.3522 198.997C54.5101 199.746 53.5383 200.297 52.4851 200.673L50.6086 201.327L48.7997 195.952Z" fill="white"/>
<defs>
<filter id="filter0_f_1_7984" x="202.285" y="129.021" width="309.973" height="146.874" filterUnits="userSpaceOnUse" color-interpolation-filters="sRGB">
<feFlood flood-opacity="0" result="BackgroundImageFix"/>
<feBlend mode="normal" in="SourceGraphic" in2="BackgroundImageFix" result="shape"/>
<feGaussianBlur stdDeviation="13" result="effect1_foregroundBlur_1_7984"/>
</filter>
<linearGradient id="paint0_linear_1_7984" x1="165.024" y1="240.851" x2="169.557" y2="172.799" gradientUnits="userSpaceOnUse">
<stop offset="0.265625" stop-color="#E7A25D"/>
<stop offset="0.729167" stop-color="#FFB96A"/>
</linearGradient>
<linearGradient id="paint1_linear_1_7984" x1="215.643" y1="264.617" x2="280.308" y2="310.605" gradientUnits="userSpaceOnUse">
<stop offset="0.0677083" stop-color="#E7A25D"/>
<stop offset="0.572917" stop-color="#FFB96A"/>
</linearGradient>
</defs>
</svg>
