
<svg width="140" height="42" viewBox="0 0 140 42" fill="none" xmlns="http://www.w3.org/2000/svg">
<g clip-path="url(#clip0_1_7862)">
<path d="M0 5.6C0 2.50721 2.47748 0 5.5336 0H134.466C137.523 0 140 2.50721 140 5.6V36.4C140 39.4928 137.523 42 134.466 42H5.5336C2.47748 42 0 39.4928 0 36.4V5.6Z" fill="white"/>
<path fill-rule="evenodd" clip-rule="evenodd" d="M0 36.4V5.6C0 2.50721 2.47747 0 5.5336 0H134.466C137.523 0 140 2.50721 140 5.6V36.4C140 39.4928 137.523 42 134.466 42H5.5336C2.47748 42 0 39.4928 0 36.4ZM0.830039 36.4V5.6C0.830039 2.97112 2.93589 0.84 5.5336 0.84H134.466C137.064 0.84 139.17 2.97112 139.17 5.6V36.4C139.17 39.0289 137.064 41.16 134.466 41.16H5.5336C2.93589 41.16 0.830039 39.0289 0.830039 36.4Z" fill="black" fill-opacity="0.1"/>
<path d="M31.8103 21.533C31.7959 19.0814 32.911 17.2337 35.1628 15.8713C33.9034 14.074 31.9979 13.0854 29.4862 12.8949C27.1081 12.708 24.5062 14.2753 23.5534 14.2753C22.5466 14.2753 20.2442 12.9596 18.4326 12.9596C14.6939 13.0171 10.7207 15.9288 10.7207 21.8529C10.7207 23.6035 11.0419 25.4116 11.6842 27.2737C12.5431 29.7253 15.6394 35.732 18.8693 35.635C20.5582 35.5954 21.7527 34.4415 23.9504 34.4415C26.0832 34.4415 27.1875 35.635 29.0712 35.635C32.33 35.5882 35.1304 30.1279 35.9459 27.6691C31.5757 25.6165 31.8103 21.6588 31.8103 21.533ZM28.0175 10.5691C29.8471 8.4051 29.6811 6.43521 29.627 5.72705C28.0103 5.82051 26.1409 6.82344 25.0763 8.05642C23.9035 9.37927 23.2142 11.0149 23.3622 12.8589C25.1088 12.9919 26.7039 12.0969 28.0175 10.5691Z" fill="black"/>
<path d="M51.3143 29.9471H49.4825L48.479 26.8043H44.9912L44.0354 29.9471H42.252L45.7075 19.2475H47.8418L51.3143 29.9471ZM48.1766 25.4857L47.2691 22.6918C47.1731 22.4064 46.9933 21.7342 46.7279 20.6762H46.6956C46.5899 21.1312 46.4198 21.8034 46.1858 22.6918L45.2945 25.4857H48.1766Z" fill="black"/>
<path d="M60.2008 25.9947C60.2008 27.3068 59.8451 28.344 59.1337 29.1054C58.4964 29.7832 57.7051 30.1216 56.7606 30.1216C55.741 30.1216 55.0086 29.7566 54.5626 29.0266H54.5303V33.0908H52.8106V24.7718C52.8106 23.9469 52.7888 23.1003 52.7469 22.232H54.2593L54.3553 23.4549H54.3875C54.961 22.5335 55.8314 22.0736 56.9994 22.0736C57.9124 22.0736 58.6747 22.433 59.2845 23.1526C59.8959 23.8729 60.2008 24.8201 60.2008 25.9947ZM58.4488 26.0574C58.4488 25.3065 58.2795 24.6874 57.9391 24.2002C57.5672 23.692 57.0679 23.438 56.442 23.438C56.0177 23.438 55.6321 23.5795 55.2877 23.8585C54.9425 24.1399 54.7166 24.5073 54.611 24.9624C54.5577 25.1746 54.5311 25.3483 54.5311 25.485V26.7714C54.5311 27.3326 54.7037 27.8061 55.0489 28.1928C55.3942 28.5796 55.8427 28.7725 56.3944 28.7725C57.0421 28.7725 57.5462 28.5233 57.9068 28.0264C58.2682 27.5287 58.4488 26.8727 58.4488 26.0574Z" fill="black"/>
<path d="M69.1038 25.9947C69.1038 27.3068 68.7481 28.344 68.0358 29.1054C67.3994 29.7832 66.6081 30.1216 65.6635 30.1216C64.644 30.1216 63.9116 29.7566 63.4663 29.0266H63.434V33.0908H61.7143V24.7718C61.7143 23.9469 61.6926 23.1003 61.6506 22.232H63.163L63.259 23.4549H63.2913C63.864 22.5335 64.7343 22.0736 65.9031 22.0736C66.8154 22.0736 67.5777 22.433 68.1891 23.1526C68.7981 23.8729 69.1038 24.8201 69.1038 25.9947ZM67.3518 26.0574C67.3518 25.3065 67.1816 24.6874 66.8412 24.2002C66.4694 23.692 65.9717 23.438 65.3449 23.438C64.9198 23.438 64.5351 23.5795 64.1898 23.8585C63.8446 24.1399 63.6196 24.5073 63.5139 24.9624C63.4615 25.1746 63.434 25.3483 63.434 25.485V26.7714C63.434 27.3326 63.6067 27.8061 63.9503 28.1928C64.2955 28.5788 64.744 28.7725 65.2973 28.7725C65.9451 28.7725 66.4492 28.5233 66.8097 28.0264C67.1711 27.5287 67.3518 26.8727 67.3518 26.0574Z" fill="black"/>
<path d="M79.0576 26.9467C79.0576 27.8568 78.7406 28.5973 78.1042 29.169C77.4048 29.7937 76.4312 30.1056 75.1802 30.1056C74.0251 30.1056 73.0991 29.8837 72.3981 29.4391L72.7966 28.0104C73.5516 28.4655 74.38 28.6938 75.2826 28.6938C75.9303 28.6938 76.4345 28.5475 76.7966 28.2564C77.1572 27.9654 77.3371 27.5746 77.3371 27.0874C77.3371 26.6533 77.1887 26.2874 76.891 25.9908C76.595 25.6941 76.1005 25.4183 75.4101 25.1634C73.5306 24.4648 72.5917 23.4413 72.5917 22.0954C72.5917 21.2158 72.9208 20.4946 73.5798 19.9334C74.2364 19.3714 75.1124 19.0908 76.2078 19.0908C77.1846 19.0908 77.9961 19.2605 78.6438 19.5989L78.2139 20.9963C77.6089 20.6683 76.9249 20.5043 76.1594 20.5043C75.5544 20.5043 75.0818 20.653 74.743 20.9489C74.4566 21.2134 74.3131 21.5358 74.3131 21.9177C74.3131 22.3406 74.4768 22.6903 74.8059 22.9653C75.0923 23.2194 75.6125 23.4943 76.3675 23.791C77.2911 24.1617 77.9695 24.595 78.4058 25.0919C78.8406 25.5872 79.0576 26.207 79.0576 26.9467Z" fill="black"/>
<path d="M84.7432 23.5185H82.8476V27.2644C82.8476 28.2171 83.1816 28.6931 83.8511 28.6931C84.1584 28.6931 84.4133 28.6666 84.6149 28.6135L84.6625 29.9152C84.3237 30.0414 83.8777 30.1049 83.3251 30.1049C82.646 30.1049 82.1152 29.8983 81.7321 29.4858C81.3505 29.0726 81.1586 28.3795 81.1586 27.4059V23.5169H80.0293V22.2305H81.1586V20.8179L82.8476 20.3098V22.2305H84.7432V23.5185Z" fill="black"/>
<path d="M93.2959 26.0261C93.2959 27.212 92.9555 28.1856 92.2763 28.947C91.564 29.7309 90.6187 30.1216 89.4402 30.1216C88.3045 30.1216 87.4003 29.7462 86.7259 28.9952C86.0516 28.2443 85.7144 27.2964 85.7144 26.1539C85.7144 24.9583 86.0613 23.9791 86.7574 23.2177C87.4519 22.4555 88.3892 22.0744 89.5677 22.0744C90.7034 22.0744 91.6173 22.4499 92.3069 23.2016C92.9667 23.9308 93.2959 24.8723 93.2959 26.0261ZM91.5116 26.0815C91.5116 25.37 91.3592 24.7598 91.0502 24.2508C90.6897 23.635 90.1742 23.3278 89.5064 23.3278C88.8151 23.3278 88.29 23.6358 87.9294 24.2508C87.6205 24.7606 87.468 25.3804 87.468 26.1137C87.468 26.8252 87.6205 27.4355 87.9294 27.9436C88.3013 28.5595 88.8207 28.8666 89.491 28.8666C90.1476 28.8666 90.663 28.553 91.0349 27.9275C91.3519 27.4089 91.5116 26.7923 91.5116 26.0815Z" fill="black"/>
<path d="M98.8856 23.7395C98.7154 23.7081 98.5339 23.692 98.3435 23.692C97.7386 23.692 97.2707 23.9196 96.9416 24.3754C96.6553 24.7774 96.5117 25.2856 96.5117 25.899V29.9472H94.7928L94.8089 24.6617C94.8089 23.7724 94.7871 22.9628 94.7444 22.2328H96.2423L96.3052 23.7089H96.3528C96.5343 23.2016 96.8206 22.7932 97.2127 22.4868C97.5958 22.2111 98.0096 22.0736 98.4557 22.0736C98.6146 22.0736 98.7582 22.0848 98.8856 22.1049V23.7395Z" fill="black"/>
<path d="M106.576 25.7246C106.576 26.0317 106.556 26.2906 106.513 26.5021H101.354C101.374 27.2643 101.624 27.8472 102.103 28.2492C102.538 28.6086 103.1 28.7887 103.79 28.7887C104.554 28.7887 105.251 28.6673 105.878 28.4236L106.147 29.6136C105.415 29.9319 104.55 30.0903 103.552 30.0903C102.352 30.0903 101.41 29.7382 100.724 29.0347C100.04 28.3312 99.6974 27.3865 99.6974 26.2014C99.6974 25.038 100.016 24.0692 100.654 23.2965C101.322 22.4716 102.225 22.0592 103.36 22.0592C104.476 22.0592 105.32 22.4716 105.894 23.2965C106.348 23.9518 106.576 24.7622 106.576 25.7246ZM104.936 25.28C104.948 24.7719 104.836 24.3329 104.602 23.9622C104.305 23.4855 103.847 23.2475 103.232 23.2475C102.67 23.2475 102.212 23.4798 101.863 23.9462C101.577 24.3168 101.407 24.7614 101.354 25.2792H104.936V25.28Z" fill="black"/>
<path d="M47.541 12.37C47.541 13.5496 47.1936 14.4377 46.4998 15.034C45.8571 15.5843 44.9437 15.8599 43.7607 15.8599C43.1741 15.8599 42.6722 15.8338 42.252 15.7817V9.33606C42.8002 9.24586 43.3907 9.19975 44.0284 9.19975C45.1553 9.19975 46.0047 9.44932 46.5775 9.94845C47.2192 10.5127 47.541 11.3196 47.541 12.37ZM46.4535 12.399C46.4535 11.6343 46.2547 11.048 45.8571 10.639C45.4595 10.2311 44.8788 10.0266 44.1141 10.0266C43.7893 10.0266 43.5127 10.0487 43.2834 10.0948V14.9949C43.4104 15.015 43.6426 15.024 43.9802 15.024C44.7695 15.024 45.3788 14.8005 45.8079 14.3535C46.237 13.9065 46.4535 13.255 46.4535 12.399Z" fill="black"/>
<path d="M53.3075 13.4005C53.3075 14.1271 53.1038 14.7225 52.6963 15.1895C52.2692 15.6696 51.7033 15.9092 50.9966 15.9092C50.3156 15.9092 49.7733 15.6797 49.3688 15.2186C48.9652 14.7586 48.7635 14.1782 48.7635 13.4787C48.7635 12.747 48.9711 12.1466 49.3884 11.6806C49.8057 11.2145 50.3667 10.981 51.0734 10.981C51.7545 10.981 52.3017 11.2105 52.716 11.6705C53.1097 12.1176 53.3075 12.6949 53.3075 13.4005ZM52.2377 13.4346C52.2377 12.9986 52.1452 12.6247 51.9611 12.313C51.7446 11.9361 51.4366 11.7477 51.036 11.7477C50.6216 11.7477 50.3067 11.9361 50.0902 12.313C49.9052 12.6247 49.8136 13.0046 49.8136 13.4536C49.8136 13.8896 49.9061 14.2634 50.0902 14.5751C50.3136 14.952 50.6246 15.1404 51.0262 15.1404C51.4198 15.1404 51.7289 14.949 51.9513 14.5651C52.1422 14.2474 52.2377 13.8705 52.2377 13.4346Z" fill="black"/>
<path d="M61.0397 11.0771L59.588 15.8019H58.6431L58.0418 13.7502C57.8892 13.238 57.7652 12.7289 57.6688 12.2237H57.6501C57.5605 12.7429 57.4365 13.2511 57.2771 13.7502L56.6383 15.8019H55.6827L54.3176 11.0771H55.3776L55.9021 13.3232C56.0291 13.8545 56.1334 14.3606 56.2171 14.8397H56.2358C56.3126 14.4448 56.4395 13.9416 56.6186 13.3333L57.2771 11.0781H58.1176L58.7484 13.2852C58.901 13.8234 59.025 14.3416 59.1205 14.8407H59.149C59.2189 14.3546 59.3242 13.8364 59.464 13.2852L60.0269 11.0781H61.0397V11.0771Z" fill="black"/>
<path d="M66.3864 15.8019H65.355V13.0958C65.355 12.2619 65.044 11.8449 64.42 11.8449C64.1139 11.8449 63.8669 11.9592 63.675 12.1887C63.485 12.4182 63.3886 12.6888 63.3886 12.9985V15.8009H62.3571V12.4272C62.3571 12.0123 62.3444 11.5623 62.3197 11.0752H63.2262L63.2744 11.8138H63.303C63.423 11.5843 63.6022 11.3949 63.8374 11.2435C64.1169 11.0671 64.4299 10.9779 64.7724 10.9779C65.2054 10.9779 65.5656 11.1203 65.852 11.4059C66.2083 11.7557 66.3864 12.2779 66.3864 12.9715V15.8019Z" fill="black"/>
<path d="M69.2306 15.8019H68.2002V8.90918H69.2306V15.8019Z" fill="black"/>
<path d="M75.3031 13.4005C75.3031 14.1271 75.0994 14.7225 74.6919 15.1895C74.2648 15.6696 73.6979 15.9092 72.9922 15.9092C72.3102 15.9092 71.7679 15.6797 71.3643 15.2186C70.9608 14.7586 70.7591 14.1782 70.7591 13.4787C70.7591 12.747 70.9667 12.1466 71.384 11.6806C71.8013 11.2145 72.3623 10.981 73.068 10.981C73.75 10.981 74.2963 11.2105 74.7116 11.6705C75.1053 12.1176 75.3031 12.6949 75.3031 13.4005ZM74.2323 13.4346C74.2323 12.9986 74.1398 12.6247 73.9557 12.313C73.7402 11.9361 73.4312 11.7477 73.0316 11.7477C72.6162 11.7477 72.3013 11.9361 72.0858 12.313C71.9007 12.6247 71.8092 13.0046 71.8092 13.4536C71.8092 13.8896 71.9017 14.2634 72.0858 14.5751C72.3092 14.952 72.6202 15.1404 73.0217 15.1404C73.4154 15.1404 73.7235 14.949 73.9459 14.5651C74.1378 14.2474 74.2323 13.8705 74.2323 13.4346Z" fill="black"/>
<path d="M80.295 15.8019H79.3689L79.2921 15.2577H79.2636C78.9467 15.6917 78.4949 15.9092 77.9083 15.9092C77.4704 15.9092 77.1161 15.7659 76.8493 15.4812C76.6072 15.2226 76.4862 14.9009 76.4862 14.519C76.4862 13.9417 76.7224 13.5017 77.1978 13.197C77.6721 12.8923 78.3394 12.743 79.1986 12.75V12.6618C79.1986 12.0394 78.8778 11.7287 78.2351 11.7287C77.7774 11.7287 77.3739 11.8459 77.0255 12.0785L76.8159 11.3889C77.247 11.1173 77.7794 10.981 78.4073 10.981C79.6199 10.981 80.2281 11.6325 80.2281 12.9354V14.6754C80.2281 15.1474 80.2507 15.5233 80.295 15.8019ZM79.2242 14.1782V13.4496C78.0865 13.4295 77.5176 13.7473 77.5176 14.4018C77.5176 14.6483 77.5826 14.8327 77.7154 14.956C77.8483 15.0793 78.0176 15.1404 78.2194 15.1404C78.4457 15.1404 78.6573 15.0673 78.8502 14.9219C79.0441 14.7756 79.1632 14.5902 79.2075 14.3627C79.2183 14.3115 79.2242 14.2494 79.2242 14.1782Z" fill="black"/>
<path d="M86.1558 15.8019H85.2405L85.1923 15.0431H85.1637C84.8714 15.6204 84.3734 15.9091 83.6737 15.9091C83.1146 15.9091 82.6491 15.6856 82.28 15.2386C81.911 14.7916 81.7269 14.2112 81.7269 13.4986C81.7269 12.7339 81.9267 12.1145 82.3283 11.6414C82.717 11.2004 83.1934 10.9799 83.7603 10.9799C84.3833 10.9799 84.8193 11.1934 85.0673 11.6213H85.087V8.90918H86.1194V14.529C86.1194 14.989 86.1312 15.413 86.1558 15.8019ZM85.087 13.8093V13.0215C85.087 12.8852 85.0771 12.775 85.0584 12.6908C85.0003 12.4382 84.8754 12.2257 84.6854 12.0543C84.4935 11.8829 84.2622 11.7967 83.9955 11.7967C83.6107 11.7967 83.3095 11.9521 83.0881 12.2638C82.8686 12.5755 82.7574 12.9734 82.7574 13.4595C82.7574 13.9266 82.8627 14.3054 83.0743 14.5971C83.2977 14.9078 83.5989 15.0632 83.9758 15.0632C84.3144 15.0632 84.585 14.9339 84.7907 14.6743C84.9895 14.4347 85.087 14.1461 85.087 13.8093Z" fill="black"/>
<path d="M94.9776 13.4005C94.9776 14.1271 94.7739 14.7225 94.3664 15.1895C93.9393 15.6696 93.3744 15.9092 92.6667 15.9092C91.9866 15.9092 91.4443 15.6797 91.0389 15.2186C90.6353 14.7586 90.4336 14.1782 90.4336 13.4787C90.4336 12.747 90.6412 12.1466 91.0585 11.6806C91.4758 11.2145 92.0368 10.981 92.7445 10.981C93.4245 10.981 93.9727 11.2105 94.3861 11.6705C94.7798 12.1176 94.9776 12.6949 94.9776 13.4005ZM93.9088 13.4346C93.9088 12.9986 93.8162 12.6247 93.6322 12.313C93.4147 11.9361 93.1076 11.7477 92.7061 11.7477C92.2927 11.7477 91.9778 11.9361 91.7603 12.313C91.5752 12.6247 91.4837 13.0046 91.4837 13.4536C91.4837 13.8896 91.5762 14.2634 91.7603 14.5751C91.9837 14.952 92.2947 15.1404 92.6962 15.1404C93.0899 15.1404 93.3999 14.949 93.6224 14.5651C93.8123 14.2474 93.9088 13.8705 93.9088 13.4346Z" fill="black"/>
<path d="M100.523 15.8019H99.4928V13.0958C99.4928 12.2619 99.1818 11.8449 98.5568 11.8449C98.2507 11.8449 98.0037 11.9592 97.8128 12.1887C97.6218 12.4182 97.5264 12.6888 97.5264 12.9985V15.8009H96.494V12.4272C96.494 12.0123 96.4821 11.5623 96.4575 11.0752H97.363L97.4112 11.8138H97.4398C97.5608 11.5843 97.7399 11.3949 97.9742 11.2435C98.2547 11.0671 98.5667 10.9779 98.9102 10.9779C99.3422 10.9779 99.7024 11.1203 99.9888 11.4059C100.346 11.7557 100.523 12.2779 100.523 12.9715V15.8019Z" fill="black"/>
<path d="M107.465 11.864H106.329V14.1592C106.329 14.7425 106.531 15.0342 106.93 15.0342C107.115 15.0342 107.269 15.0181 107.39 14.9851L107.416 15.7819C107.213 15.8601 106.945 15.8991 106.615 15.8991C106.208 15.8991 105.891 15.7729 105.662 15.5203C105.431 15.2677 105.317 14.8427 105.317 14.2464V11.864H104.639V11.0772H105.317V10.2112L106.328 9.9005V11.0762H107.464V11.864H107.465Z" fill="black"/>
<path d="M112.925 15.8019H111.893V13.1157C111.893 12.2688 111.582 11.8449 110.959 11.8449C110.48 11.8449 110.154 12.0904 109.975 12.5815C109.944 12.6848 109.926 12.8111 109.926 12.9594V15.8008H108.896V8.90918H109.926V11.7567H109.946C110.271 11.2385 110.736 10.9799 111.34 10.9799C111.767 10.9799 112.12 11.1222 112.401 11.4079C112.75 11.7637 112.925 12.2929 112.925 12.9925V15.8019Z" fill="black"/>
<path d="M118.558 13.216C118.558 13.4044 118.544 13.5628 118.52 13.6921H115.427C115.44 14.1591 115.588 14.5149 115.874 14.7615C116.136 14.982 116.474 15.0922 116.887 15.0922C117.345 15.0922 117.762 15.0181 118.138 14.8687L118.299 15.5984C117.859 15.7928 117.342 15.8901 116.742 15.8901C116.024 15.8901 115.458 15.6746 115.049 15.2436C114.637 14.8126 114.433 14.2343 114.433 13.5086C114.433 12.796 114.623 12.2027 115.006 11.7296C115.406 11.2244 115.946 10.9719 116.628 10.9719C117.296 10.9719 117.802 11.2244 118.145 11.7296C118.421 12.1305 118.558 12.6266 118.558 13.216ZM117.574 12.9444C117.582 12.6326 117.514 12.364 117.374 12.1375C117.195 11.8459 116.923 11.6995 116.553 11.6995C116.217 11.6995 115.942 11.8419 115.733 12.1275C115.561 12.355 115.46 12.6266 115.427 12.9444H117.574Z" fill="black"/>
</g>
<defs>
<clipPath id="clip0_1_7862">
<rect width="140" height="42" fill="white"/>
</clipPath>
</defs>
</svg>
