
<svg width="38" height="38" viewBox="0 0 38 38" fill="none" xmlns="http://www.w3.org/2000/svg">
<path d="M33.8135 8.76272L34.4421 9.54043C34.677 9.35057 34.8135 9.06473 34.8135 8.76272C34.8135 8.4607 34.677 8.17486 34.4421 7.985L33.8135 8.76272ZM24.2089 16.526H23.2089C23.2089 16.9113 23.4303 17.2623 23.778 17.4284C24.1257 17.5944 24.5379 17.5459 24.8375 17.3037L24.2089 16.526ZM24.2089 0.999451L24.8375 0.221737C24.5379 -0.0204787 24.1257 -0.0689791 23.778 0.0970598C23.4303 0.263099 23.2089 0.614136 23.2089 0.999451L24.2089 0.999451ZM24.2089 5.56155V6.56155C24.7612 6.56155 25.2089 6.11383 25.2089 5.56155H24.2089ZM5.00049 23.49H4.00049C4.00049 23.8763 4.223 24.2281 4.57206 24.3936C4.92112 24.5591 5.33429 24.5088 5.63339 24.2643L5.00049 23.49ZM11.4471 18.2203L12.08 18.9945C12.2824 18.829 12.412 18.5908 12.4409 18.3309L11.4471 18.2203ZM24.2089 11.9646H25.2089C25.2089 11.4123 24.7612 10.9646 24.2089 10.9646V11.9646ZM33.1849 7.985L23.5803 15.7483L24.8375 17.3037L34.4421 9.54043L33.1849 7.985ZM23.5803 1.77716L33.1849 9.54043L34.4421 7.985L24.8375 0.221737L23.5803 1.77716ZM25.2089 5.56155V0.999451H23.2089V5.56155H25.2089ZM18.4469 6.56155H24.2089V4.56155H18.4469V6.56155ZM6.00049 19.8814C6.00049 12.9248 11.6521 6.56155 18.4469 6.56155V4.56155C10.3892 4.56155 4.00049 11.9855 4.00049 19.8814H6.00049ZM6.00049 23.49V19.8814H4.00049V23.49H6.00049ZM10.8142 17.446L4.36759 22.7158L5.63339 24.2643L12.08 18.9945L10.8142 17.446ZM18.4469 10.9646C14.308 10.9646 10.9005 14.0898 10.4532 18.1097L12.4409 18.3309C12.7768 15.3124 15.3383 12.9646 18.4469 12.9646V10.9646ZM24.2089 10.9646H18.4469V12.9646H24.2089V10.9646ZM25.2089 16.526V11.9646H23.2089V16.526H25.2089Z" fill="#3139CE"/>
<path d="M5.0014 29.2356L4.37278 28.4579C4.1379 28.6477 4.0014 28.9336 4.0014 29.2356C4.0014 29.5376 4.1379 29.8234 4.37278 30.0133L5.0014 29.2356ZM14.6059 21.4723H15.6059C15.6059 21.087 15.3846 20.736 15.0369 20.5699C14.6892 20.4039 14.277 20.4524 13.9773 20.6946L14.6059 21.4723ZM14.6059 36.9988L13.9773 37.7766C14.277 38.0188 14.6892 38.0673 15.0369 37.9012C15.3846 37.7352 15.6059 37.3842 15.6059 36.9988H14.6059ZM14.6059 32.4367V31.4367C14.0537 31.4367 13.6059 31.8844 13.6059 32.4367H14.6059ZM33.8145 14.5082H34.8145C34.8145 14.1249 34.5953 13.7752 34.2502 13.6082C33.9051 13.4411 33.4949 13.4861 33.1942 13.7239L33.8145 14.5082ZM27.3861 19.5916L26.7659 18.8072C26.5491 18.9786 26.4129 19.232 26.3897 19.5073L27.3861 19.5916ZM14.6059 26.0337H13.6059C13.6059 26.586 14.0537 27.0337 14.6059 27.0337V26.0337ZM5.63002 30.0133L15.2346 22.25L13.9773 20.6946L4.37278 28.4579L5.63002 30.0133ZM15.2346 36.2211L5.63002 28.4579L4.37278 30.0133L13.9773 37.7766L15.2346 36.2211ZM13.6059 32.4367V36.9988H15.6059V32.4367H13.6059ZM20.3681 31.4367H14.6059V33.4367H20.3681V31.4367ZM32.8145 18.1169C32.8145 25.0734 27.1629 31.4367 20.3681 31.4367V33.4367C28.4258 33.4367 34.8145 26.0127 34.8145 18.1169H32.8145ZM32.8145 14.5082V18.1169H34.8145V14.5082H32.8145ZM28.0064 20.3759L34.4347 15.2926L33.1942 13.7239L26.7659 18.8072L28.0064 20.3759ZM20.3681 27.0337C24.5795 27.0337 28.0341 23.7977 28.3826 19.6758L26.3897 19.5073C26.128 22.6025 23.5315 25.0337 20.3681 25.0337V27.0337ZM14.6059 27.0337H20.3681V25.0337H14.6059V27.0337ZM13.6059 21.4723V26.0337H15.6059V21.4723H13.6059Z" fill="#3139CE"/>
</svg>
