<svg width="22" height="22" viewBox="0 0 22 22" fill="none" xmlns="http://www.w3.org/2000/svg">
<path d="M7.5064 8.18302L11.033 10.845L14.4903 8.18596L15.2097 8.92564L11.0402 12.1328L6.79415 8.92809L7.5064 8.18302Z" fill="white"/>
<path fill-rule="evenodd" clip-rule="evenodd" d="M11 22C17.0751 22 22 17.0751 22 11C22 4.92487 17.0751 0 11 0C4.92487 0 0 4.92487 0 11C0 17.0751 4.92487 22 11 22ZM16.3389 6.74319C16.2358 6.65151 16.0959 6.6 15.95 6.6H6.05C5.90413 6.6 5.76424 6.65151 5.66109 6.74319C5.55795 6.83488 5.5 6.95923 5.5 7.08889V14.9111C5.5 15.0408 5.55795 15.1651 5.66109 15.2568C5.76424 15.3485 5.90413 15.4 6.05 15.4H15.95C16.0959 15.4 16.2358 15.3485 16.3389 15.2568C16.4421 15.1651 16.5 15.0408 16.5 14.9111V7.08889C16.5 6.95923 16.4421 6.83488 16.3389 6.74319Z" fill="white"/>
</svg>
