
<svg width="14" height="18" viewBox="0 0 14 18" fill="none" xmlns="http://www.w3.org/2000/svg">
<path d="M6.99951 0.249756C5.17681 0.251919 3.42939 0.976941 2.14054 2.26579C0.851697 3.55463 0.126674 5.30206 0.124512 7.12476C0.124512 13.0073 6.37451 17.4507 6.64062 17.6368C6.74587 17.7103 6.87114 17.7498 6.99951 17.7498C7.12788 17.7498 7.25315 17.7103 7.3584 17.6368C7.62451 17.4507 13.8745 13.0073 13.8745 7.12476C13.8723 5.30206 13.1473 3.55463 11.8585 2.26579C10.5696 0.976941 8.82221 0.251918 6.99951 0.249756ZM6.99997 4.62498C7.49442 4.62498 7.97777 4.77161 8.3889 5.04631C8.80002 5.32101 9.12045 5.71146 9.30967 6.16827C9.49889 6.62509 9.5484 7.12776 9.45193 7.61271C9.35547 8.09766 9.11737 8.54312 8.76774 8.89275C8.41811 9.24238 7.97265 9.48048 7.4877 9.57695C7.00274 9.67341 6.50008 9.6239 6.04326 9.43468C5.58645 9.24546 5.196 8.92503 4.9213 8.51391C4.64659 8.10278 4.49997 7.61944 4.49997 7.12498C4.49996 6.79668 4.56462 6.47158 4.69025 6.16826C4.81588 5.86494 5.00003 5.58934 5.23218 5.35719C5.46433 5.12505 5.73993 4.9409 6.04325 4.81526C6.34657 4.68963 6.67166 4.62497 6.99997 4.62498Z" fill="#9B9B9B"/>
</svg>