
<svg width="1280" height="316" viewBox="0 0 1280 316" fill="none" xmlns="http://www.w3.org/2000/svg">
<mask id="mask0_1_7937" style="mask-type:alpha" maskUnits="userSpaceOnUse" x="0" y="0" width="1280" height="316">
<rect width="1280" height="316" rx="8" fill="url(#paint0_linear_1_7937)"/>
</mask>
<g mask="url(#mask0_1_7937)">
<rect width="1280" height="316" fill="url(#paint1_linear_1_7937)"/>
<path opacity="0.8" d="M775.988 107.976C769.243 118.938 719.823 127.295 675.804 118.237C648.345 112.587 629.295 86.4016 790.261 91.8637C810.126 92.5378 832.152 98.7826 836.363 103.937C840.573 109.091 841.303 135.222 654.329 136.27" stroke="#35438E" stroke-width="2" stroke-linecap="round"/>
<g opacity="0.88">
<circle cx="47" cy="47" r="47" transform="matrix(0.946124 0.323806 -0.325673 0.945482 1181 213)" fill="#41C6A7"/>
<g clip-path="url(#clip0_1_7937)">
<path d="M1218.29 266.428L1220.46 260.138L1235.31 265.22L1238.61 255.636L1198.18 241.798L1194.88 251.382L1209.73 256.465L1207.56 262.75C1195.31 259.156 1185.44 258.366 1184.48 261.14C1183.52 263.914 1191.81 269.337 1203.68 274.006L1196.74 294.154L1207.48 297.829L1214.42 277.679C1226.65 281.263 1236.51 282.049 1237.46 279.277C1238.42 276.506 1230.16 271.093 1218.3 266.431L1218.29 266.428ZM1215.01 275.972L1215.01 275.967C1214.7 275.882 1213.11 275.44 1209.65 274.254C1206.88 273.306 1204.95 272.562 1204.28 272.293L1204.28 272.301C1193.77 268.194 1186.43 263.672 1187.17 261.52C1187.92 259.367 1196.49 260.295 1207.31 263.486L1204.89 270.509C1205.58 270.795 1207.53 271.592 1210.29 272.536C1213.6 273.669 1215.31 274.105 1215.63 274.183L1218.05 267.159C1228.53 271.26 1235.85 275.778 1235.11 277.923C1234.37 280.068 1225.81 279.149 1215.01 275.967" fill="white"/>
</g>
<circle cx="48" cy="48" r="48" transform="matrix(0.946116 0.323828 -0.325696 0.945475 1181 212)" fill="#5B64FF"/>
<g clip-path="url(#clip1_1_7937)">
<path d="M1221.66 242.494L1220.8 243.735L1207.08 283.56L1207.33 284.095L1228.69 279.189L1221.66 242.494Z" fill="white"/>
<path d="M1221.28 242.362L1192.73 266.883L1206.94 283.963L1213.6 264.633L1221.28 242.362Z" fill="white"/>
<path d="M1205.95 287.573L1205.63 287.78L1200.66 302.197L1200.65 302.948L1227.53 282.552L1205.95 287.573Z" fill="white"/>
<path d="M1200.43 302.873L1205.73 287.499L1191.57 270.247L1200.43 302.873Z" fill="white"/>
</g>
</g>
</g>
<g clip-path="url(#clip2_1_7937)">
<path d="M757 117C773.569 117 787 103.569 787 87C787 70.4315 773.569 57 757 57C740.431 57 727 70.4315 727 87C727 103.569 740.431 117 757 117Z" fill="#354390"/>
<path opacity="0.8" d="M769.777 74.1864L765.325 76.5072L743.811 87.7075C743.505 85.3006 743.859 82.8539 744.833 80.6405C745.808 78.427 747.364 76.5339 749.33 75.1721C751.296 73.8104 753.593 73.0337 755.965 72.9286C758.337 72.8235 760.691 73.3942 762.765 74.577L765.314 73.2497L765.694 73.0506C763.276 71.2571 760.407 70.2082 757.424 70.0279C754.442 69.8476 751.472 70.5434 748.864 72.033C746.256 73.5227 744.12 75.7441 742.707 78.4349C741.294 81.1256 740.665 84.1734 740.892 87.2183C740.934 87.791 740.81 88.3638 740.535 88.8645C740.26 89.3652 739.846 89.7715 739.345 90.0321L738 90.7337V94.0025L741.958 91.9396L743.24 91.2703L744.503 90.6123L767.182 78.7996L769.73 77.4742L774.998 74.7306V71.4636L769.777 74.1864ZM775 78.0014L745.794 93.2005L743.246 94.5278L738.002 97.2638V100.531L743.21 97.8194L747.664 95.4986L769.2 84.2812C769.511 86.6919 769.16 89.1434 768.185 91.3616C767.211 93.5797 765.652 95.4768 763.682 96.8406C761.713 98.2044 759.411 98.9811 757.035 99.0836C754.658 99.1861 752.3 98.6105 750.226 97.4212L750.068 97.5065L747.304 98.9476C749.722 100.742 752.593 101.792 755.576 101.972C758.559 102.152 761.53 101.456 764.139 99.9659C766.747 98.4754 768.883 96.2528 770.296 93.5609C771.708 90.8689 772.337 87.8199 772.108 84.7742C772.066 84.2021 772.19 83.6299 772.465 83.1297C772.74 82.6294 773.153 82.2233 773.653 81.9623L775 81.2607V78.0032V78.0014Z" fill="white"/>
</g>
<path opacity="0.88" d="M1177.76 305.78C1160.42 295.791 1143.43 252.161 1164.04 230.159C1190.14 202.291 1220.75 224.158 1220 176" stroke="#5B64FF" stroke-width="2" stroke-linecap="round"/>
<defs>
<linearGradient id="paint0_linear_1_7937" x1="-4.75079e-05" y1="96.0104" x2="1279.86" y2="267.832" gradientUnits="userSpaceOnUse">
<stop offset="0.343012" stop-color="#3E59BB"/>
<stop offset="0.492778" stop-color="#3F55B4"/>
<stop offset="0.911458" stop-color="#3F418D"/>
</linearGradient>
<linearGradient id="paint1_linear_1_7937" x1="640" y1="-228.5" x2="640" y2="417.5" gradientUnits="userSpaceOnUse">
<stop offset="0.390625" stop-color="#1E1E46"/>
<stop offset="1" stop-color="#25253E"/>
</linearGradient>
<clipPath id="clip0_1_7937">
<rect width="62" height="62" fill="white" transform="matrix(0.946124 0.323806 -0.325673 0.945482 1191 233)"/>
</clipPath>
<clipPath id="clip1_1_7937">
<rect width="64" height="64" fill="white" transform="matrix(0.946116 0.323828 -0.325696 0.945475 1191 232)"/>
</clipPath>
<clipPath id="clip2_1_7937">
<rect width="60" height="60" fill="white" transform="translate(727 57)"/>
</clipPath>
</defs>
</svg>
