<svg width="143" height="44" viewBox="0 0 143 44" fill="none" xmlns="http://www.w3.org/2000/svg">
<path d="M0 5.86667C0 2.6266 2.53056 0 5.65217 0H137.348C140.469 0 143 2.6266 143 5.86667V38.1333C143 41.3734 140.469 44 137.348 44H5.65217C2.53056 44 0 41.3734 0 38.1333V5.86667Z" fill="white"/>
<path fill-rule="evenodd" clip-rule="evenodd" d="M0 38.1333V5.86667C0 2.6266 2.53056 0 5.65217 0H137.348C140.469 0 143 2.6266 143 5.86667V38.1333C143 41.3734 140.469 44 137.348 44H5.65217C2.53056 44 0 41.3734 0 38.1333ZM0.847826 38.1333V5.86667C0.847826 3.11261 2.99881 0.88 5.65217 0.88H137.348C140.001 0.88 142.152 3.11261 142.152 5.86667V38.1333C142.152 40.8874 140.001 43.12 137.348 43.12H5.65217C2.99881 43.12 0.847826 40.8874 0.847826 38.1333Z" fill="black" fill-opacity="0.1"/>
<path d="M75.5914 23.2825C73.1752 23.2825 71.1789 25.2693 71.1789 27.9935C71.1789 30.6954 73.1543 32.7045 75.5916 32.7045C78.0287 32.7045 80.0039 30.7176 80.0039 27.9935C80.0039 25.2693 78.0287 23.2825 75.5914 23.2825ZM75.5914 30.8298C74.2674 30.8298 73.1124 29.6461 73.1124 27.9724C73.1124 26.2756 74.2683 25.115 75.5914 25.115C76.9145 25.115 78.0704 26.2756 78.0704 27.9724C78.0704 29.6461 76.9145 30.8298 75.5914 30.8298ZM65.9891 23.2825C63.5517 23.2825 61.5764 25.2693 61.5764 27.9935C61.5764 30.6954 63.5517 32.7045 65.9891 32.7045C68.4262 32.7045 70.4015 30.7176 70.4015 27.9935C70.4015 25.2693 68.4262 23.2825 65.9888 23.2825H65.9891ZM65.9891 30.8298C64.6648 30.8298 63.5101 29.6461 63.5101 27.9724C63.5101 26.2756 64.6659 25.115 65.9891 25.115C67.3131 25.115 68.468 26.2756 68.468 27.9724C68.468 29.6461 67.3329 30.8298 65.9891 30.8298ZM54.5795 24.7339V26.7207H59.0337C58.9071 27.837 58.551 28.6631 58.0253 29.2217C57.3742 29.9136 56.3656 30.6731 54.5795 30.6731C51.8266 30.6731 49.7051 28.3066 49.7051 25.3815C49.7051 22.4564 51.8277 20.0452 54.5795 20.0452C56.0708 20.0452 57.1432 20.6705 57.9415 21.4746L59.2646 20.0674C58.1507 18.9292 56.6594 18.0586 54.5795 18.0586C50.8179 18.0586 47.666 21.3401 47.666 25.337C47.666 29.3342 50.8179 32.6157 54.5795 32.6157C56.6175 32.6157 58.1309 31.9016 59.3493 30.5612C60.5889 29.2439 60.9671 27.3904 60.9671 25.8947C60.9671 25.426 60.9255 25.0016 60.8618 24.6442L54.5795 24.7339ZM101.268 26.2743C100.91 25.2248 99.7763 23.2825 97.5062 23.2825C95.2364 23.2825 93.3666 25.1806 93.3666 27.9935C93.3666 30.6277 95.2364 32.7045 97.7165 32.7045C99.7335 32.7045 100.889 31.3872 101.372 30.6277L99.881 29.5561C99.3762 30.338 98.7042 30.8509 97.7165 30.8509C96.7289 30.8509 96.0359 30.3822 95.5939 29.4217L101.456 26.8097L101.268 26.2743ZM95.3001 27.8602C95.2585 26.0511 96.6244 25.1138 97.59 25.1138C98.3676 25.1138 98.998 25.5157 99.2288 26.1189L95.3001 27.8602ZM90.5304 32.3923H92.4639V18.5937H90.5304V32.3923ZM87.3794 24.332H87.3166C86.8755 23.7734 86.0563 23.2825 85.0048 23.2825C82.7985 23.2825 80.8024 25.3593 80.8024 27.9935C80.8024 30.6277 82.8194 32.6824 85.0048 32.6824C86.0551 32.6824 86.8746 32.1913 87.3166 31.6104H87.3794V32.2803C87.3794 34.0894 86.4752 35.0487 85.0258 35.0487C83.849 35.0487 83.1132 34.1336 82.8194 33.3741L81.139 34.1336C81.6217 35.3841 82.9041 36.9245 85.0258 36.9245C87.2947 36.9245 89.2073 35.4953 89.2073 32.0348V23.5724H87.3794V24.332ZM85.173 30.8298C83.849 30.8298 82.7359 29.6461 82.7359 27.9947C82.7359 26.3433 83.8499 25.137 85.173 25.137C86.4763 25.137 87.5266 26.3433 87.5266 27.9947C87.5257 29.6239 86.4752 30.8298 85.173 30.8298ZM110.282 18.594H105.659V32.3923H107.593V27.1671H110.282C112.425 27.1671 114.526 25.5145 114.526 22.8806C114.526 20.2464 112.425 18.5937 110.282 18.5937V18.594ZM110.344 25.2483H107.613V20.5138H110.344C111.773 20.5138 112.614 21.7866 112.614 22.8803C112.594 23.9521 111.774 25.2483 110.344 25.2483ZM122.238 23.2602C120.851 23.2602 119.401 23.9078 118.813 25.3815L120.516 26.1411C120.894 25.3815 121.566 25.1361 122.281 25.1361C123.289 25.1361 124.298 25.7834 124.319 26.9217V27.0562C123.961 26.833 123.227 26.5198 122.302 26.5198C120.453 26.5198 118.582 27.6138 118.582 29.6239C118.582 31.4772 120.095 32.6602 121.776 32.6602C123.079 32.6602 123.793 32.0348 124.234 31.2985H124.297V32.3703H126.166V27.0782C126.146 24.6449 124.444 23.26 122.238 23.26V23.2602ZM122.007 30.8076C121.377 30.8076 120.494 30.4722 120.494 29.6471C120.494 28.5753 121.586 28.1734 122.532 28.1734C123.372 28.1734 123.771 28.3744 124.297 28.6421C124.15 29.9148 123.12 30.8076 122.007 30.8076ZM132.912 23.5736L130.705 29.5349H130.643L128.353 23.5734H126.273L129.719 31.9236L127.764 36.5903H129.781L135.055 23.5734H132.912L132.912 23.5736ZM115.598 32.3923H117.532V18.5937H115.598V32.3923Z" fill="black"/>
<path d="M51.4964 14.156C50.9127 14.156 50.3748 13.9998 49.8826 13.6873C49.3904 13.3747 48.9984 12.9474 48.7066 12.4053C48.4204 11.8568 48.2773 11.2477 48.2773 10.578C48.2773 9.90834 48.4204 9.30243 48.7066 8.76031C48.9984 8.21181 49.3904 7.7813 49.8826 7.46878C50.3748 7.15626 50.9127 7 51.4964 7C51.96 7 52.3921 7.09248 52.7927 7.27744C53.1933 7.4624 53.528 7.72071 53.797 8.05236L53.1274 8.79858C52.9271 8.54984 52.6868 8.3585 52.4064 8.22456C52.1317 8.09063 51.8255 8.02366 51.4879 8.02366C51.093 8.02366 50.7239 8.1289 50.3805 8.33937C50.0371 8.54984 49.7624 8.8496 49.5564 9.23866C49.3504 9.62771 49.2474 10.0742 49.2474 10.578C49.2474 11.0819 49.3504 11.5283 49.5564 11.9174C49.7624 12.3064 50.0371 12.6062 50.3805 12.8167C50.7239 13.0271 51.0958 13.1324 51.4964 13.1324C51.8627 13.1324 52.1689 13.0718 52.4149 12.9506C52.661 12.8294 52.8814 12.6668 53.0759 12.4627C53.2018 12.3224 53.3077 12.147 53.3936 11.9365C53.4851 11.7261 53.5452 11.4964 53.5738 11.2477H51.4879V10.291H54.4838C54.5124 10.4696 54.5267 10.6546 54.5267 10.8459C54.5267 11.2796 54.4666 11.6974 54.3464 12.0992C54.2262 12.4946 54.0345 12.839 53.7713 13.1324C53.1933 13.8148 52.435 14.156 51.4964 14.156Z" fill="black"/>
<path d="M55.4219 7.15307H59.1561V8.17673H56.3834V10.071H58.8814V11.0851H56.3834V12.9793H59.1561V14.003H55.4219V7.15307Z" fill="black"/>
<path d="M61.3813 8.17673H59.6644V7.15307H64.0595V8.17673H62.3427V14.003H61.3813V8.17673Z" fill="black"/>
<path d="M66.5731 7.15307H67.5345V14.003H66.5731V7.15307Z" fill="black"/>
<path d="M69.9672 8.17673H68.2503V7.15307H72.6455V8.17673H70.9286V14.003H69.9672V8.17673Z" fill="black"/>
<path d="M77.867 14.156C77.2719 14.156 76.7311 13.9998 76.2446 13.6873C75.7582 13.3684 75.3747 12.9347 75.0943 12.3862C74.8196 11.8377 74.6823 11.2349 74.6823 10.578C74.6823 9.92109 74.8196 9.32157 75.0943 8.77944C75.3747 8.23094 75.7582 7.79724 76.2446 7.47835C76.7311 7.15945 77.2719 7 77.867 7C78.4622 7 79.0002 7.15945 79.4809 7.47835C79.9673 7.79724 80.3507 8.23094 80.6312 8.77944C80.9116 9.32157 81.0518 9.92109 81.0518 10.578C81.0518 11.2349 80.9116 11.8377 80.6312 12.3862C80.3565 12.9347 79.9759 13.3684 79.4895 13.6873C79.003 13.9998 78.4622 14.156 77.867 14.156ZM77.867 13.1324C78.2734 13.1324 78.6453 13.024 78.983 12.8071C79.3206 12.5903 79.5867 12.2905 79.7813 11.9078C79.9759 11.5188 80.0732 11.0755 80.0732 10.578C80.0732 10.0805 79.9759 9.64047 79.7813 9.25779C79.5867 8.86874 79.3206 8.56578 78.983 8.34893C78.6453 8.13208 78.2734 8.02366 77.867 8.02366C77.4607 8.02366 77.0887 8.13208 76.7511 8.34893C76.4134 8.56578 76.1445 8.86874 75.9442 9.25779C75.7496 9.64047 75.6523 10.0805 75.6523 10.578C75.6523 11.0755 75.7496 11.5188 75.9442 11.9078C76.1445 12.2905 76.4134 12.5903 76.7511 12.8071C77.0887 13.024 77.4607 13.1324 77.867 13.1324Z" fill="black"/>
<path d="M81.9358 7.15307H83.0775L85.8245 12.1374H85.876L85.8245 10.8172V7.15307H86.7773V14.003H85.773L82.8887 8.76031H82.8372L82.8887 10.0805V14.003H81.9358V7.15307Z" fill="black"/>
<path d="M29.9409 26.5772C33.194 24.6688 35.6604 23.2148 35.873 23.1018C36.5528 22.7153 37.2552 21.6928 35.873 20.8987C35.4267 20.649 33.0238 19.24 29.9409 17.4233L25.6675 22.0341L29.9407 26.5772H29.9409Z" fill="#FFD900"/>
<path d="M25.7097 22L12.2231 36.3736C12.5395 36.418 12.8969 36.3292 13.3185 36.0842C14.2031 35.5723 23.5807 30.1566 29.9454 26.4578L25.7097 22Z" fill="#F43249"/>
<path d="M25.715 21.9998L29.9454 17.482C29.9454 17.482 14.2854 8.40097 13.3377 7.86513C12.9812 7.63983 12.5811 7.57322 12.2231 7.63983L25.715 21.9996V21.9998Z" fill="#00EE76"/>
<path d="M25.6676 22.2814L12.0228 7.61523C11.469 7.75255 11.001 8.27756 11.001 9.35083V35.2795C11.001 36.2624 11.3632 36.9703 12.0438 37.0383L25.6674 22.2811L25.6676 22.2814Z" fill="#00D3FF"/>
</svg>
