
<svg width="38" height="38" viewBox="0 0 38 38" fill="none" xmlns="http://www.w3.org/2000/svg">
<g clip-path="url(#clip0_1_7163)">
<path d="M25.3003 7.60923C25.3003 6.69671 25.8178 5.86314 26.6356 5.45832L31.3121 3.14344C32.3756 2.61703 33.6219 3.39077 33.6219 4.57738V23.8523C33.6219 24.7648 33.1044 25.5984 32.2866 26.0032L27.6101 28.3181C26.5466 28.8445 25.3003 28.0708 25.3003 26.8842V7.60923Z" stroke="#3139CE" stroke-width="2"/>
<path d="M21.9717 7.60923C21.9717 6.69671 21.4542 5.86314 20.6364 5.45832L15.9599 3.14344C14.8964 2.61703 13.6501 3.39077 13.6501 4.57738V23.8523C13.6501 24.7648 14.1675 25.5984 14.9854 26.0032L19.6619 28.3181C20.7253 28.8445 21.9717 28.0708 21.9717 26.8842V7.60923Z" stroke="#3139CE" stroke-width="2"/>
<path d="M2 7.60923C2 6.69671 2.51749 5.86314 3.3353 5.45832L8.01182 3.14344C9.07528 2.61703 10.3216 3.39077 10.3216 4.57738V23.8523C10.3216 24.7648 9.80413 25.5984 8.98632 26.0032L4.3098 28.3181C3.24635 28.8445 2 28.0708 2 26.8842V7.60923Z" stroke="#3139CE" stroke-width="2"/>
<mask id="path-4-outside-1_1_7163" maskUnits="userSpaceOnUse" x="24.1328" y="20.6855" width="14" height="18" fill="black">
<rect fill="white" x="24.1328" y="20.6855" width="14" height="18"/>
<path d="M36.1188 27.7072C36.1188 31.5421 32.7901 35.2868 31.1258 36.0001C29.4615 35.2868 26.1328 31.5421 26.1328 27.7072C26.1328 24.9338 28.3682 22.6855 31.1258 22.6855C33.8833 22.6855 36.1188 24.9338 36.1188 27.7072Z"/>
</mask>
<path d="M36.1188 27.7072C36.1188 31.5421 32.7901 35.2868 31.1258 36.0001C29.4615 35.2868 26.1328 31.5421 26.1328 27.7072C26.1328 24.9338 28.3682 22.6855 31.1258 22.6855C33.8833 22.6855 36.1188 24.9338 36.1188 27.7072Z" fill="white"/>
<path d="M31.1258 36.0001L30.3379 37.8384C30.841 38.054 31.4105 38.054 31.9137 37.8384L31.1258 36.0001ZM34.1188 27.7072C34.1188 29.0752 33.5079 30.5754 32.6012 31.8869C31.657 33.2528 30.673 34.0182 30.3379 34.1618L31.9137 37.8384C33.2429 37.2687 34.7553 35.8051 35.8916 34.1615C37.0653 32.4637 38.1188 30.1741 38.1188 27.7072H34.1188ZM31.9137 34.1618C31.5786 34.0182 30.5945 33.2528 29.6503 31.8869C28.7437 30.5754 28.1328 29.0752 28.1328 27.7072H24.1328C24.1328 30.1741 25.1863 32.4637 26.36 34.1615C27.4962 35.8051 29.0087 37.2687 30.3379 37.8384L31.9137 34.1618ZM28.1328 27.7072C28.1328 26.0275 29.4836 24.6855 31.1258 24.6855V20.6855C27.2529 20.6855 24.1328 23.8401 24.1328 27.7072H28.1328ZM31.1258 24.6855C32.768 24.6855 34.1188 26.0275 34.1188 27.7072H38.1188C38.1188 23.8401 34.9987 20.6855 31.1258 20.6855V24.6855Z" fill="#3139CE" mask="url(#path-4-outside-1_1_7163)"/>
<circle cx="31.1258" cy="27.7975" r="2.08041" fill="white" stroke="#3139CE" stroke-width="2"/>
</g>
<defs>
<clipPath id="clip0_1_7163">
<rect width="38" height="38" fill="white"/>
</clipPath>
</defs>
</svg>
