
<svg width="38" height="38" viewBox="0 0 38 38" fill="none" xmlns="http://www.w3.org/2000/svg">
<path fill-rule="evenodd" clip-rule="evenodd" d="M10.291 10.4115C10.291 5.76594 14.0126 2 18.6035 2C23.1944 2 26.916 5.76594 26.916 10.4115V15.4583H10.291V10.4115ZM18.6035 5.36459C15.849 5.36459 13.616 7.62415 13.616 10.4115V12.0938H23.591V10.4115C23.591 7.62415 21.358 5.36459 18.6035 5.36459Z" stroke="#3139CE" stroke-width="2"/>
<path fill-rule="evenodd" clip-rule="evenodd" d="M11.6771 11.5001C7.85136 11.5001 4.75 14.8073 4.75 18.8869V25.4884C4.75 29.568 7.85136 32.8751 11.6771 32.8751H25.5313C29.357 32.8751 32.4583 29.568 32.4583 25.4884V18.8869C32.4583 14.8073 29.357 11.5001 25.5313 11.5001H11.6771ZM21.4328 20.8326C21.4328 21.6532 21.076 22.3906 20.5092 22.8979V25.1668C20.5092 26.187 19.6821 27.014 18.6619 27.014C17.6418 27.014 16.8147 26.187 16.8147 25.1668V22.8979C16.2479 22.3906 15.8911 21.6532 15.8911 20.8326C15.8911 19.3023 17.1317 18.0618 18.6619 18.0618C20.1922 18.0618 21.4328 19.3023 21.4328 20.8326Z" fill="white"/>
<path d="M20.5092 22.8979L19.8423 22.1528C19.6303 22.3425 19.5092 22.6135 19.5092 22.8979H20.5092ZM16.8147 22.8979H17.8147C17.8147 22.6135 17.6936 22.3425 17.4816 22.1528L16.8147 22.8979ZM5.75 18.8869C5.75 15.2981 8.4632 12.5001 11.6771 12.5001V10.5001C7.23953 10.5001 3.75 14.3165 3.75 18.8869H5.75ZM5.75 25.4884V18.8869H3.75V25.4884H5.75ZM11.6771 31.8751C8.4632 31.8751 5.75 29.0772 5.75 25.4884H3.75C3.75 30.0588 7.23953 33.8751 11.6771 33.8751V31.8751ZM25.5313 31.8751H11.6771V33.8751H25.5313V31.8751ZM31.4583 25.4884C31.4583 29.0772 28.7452 31.8751 25.5313 31.8751V33.8751C29.9688 33.8751 33.4583 30.0588 33.4583 25.4884H31.4583ZM31.4583 18.8869V25.4884H33.4583V18.8869H31.4583ZM25.5313 12.5001C28.7452 12.5001 31.4583 15.2981 31.4583 18.8869H33.4583C33.4583 14.3165 29.9688 10.5001 25.5313 10.5001V12.5001ZM11.6771 12.5001H25.5313V10.5001H11.6771V12.5001ZM21.1761 23.643C21.9459 22.954 22.4328 21.9495 22.4328 20.8326H20.4328C20.4328 21.357 20.2061 21.8271 19.8423 22.1528L21.1761 23.643ZM21.5092 25.1668V22.8979H19.5092V25.1668H21.5092ZM18.6619 28.014C20.2344 28.014 21.5092 26.7393 21.5092 25.1668H19.5092C19.5092 25.6347 19.1299 26.014 18.6619 26.014V28.014ZM15.8147 25.1668C15.8147 26.7393 17.0895 28.014 18.6619 28.014V26.014C18.194 26.014 17.8147 25.6347 17.8147 25.1668H15.8147ZM15.8147 22.8979V25.1668H17.8147V22.8979H15.8147ZM14.8911 20.8326C14.8911 21.9495 15.378 22.954 16.1478 23.643L17.4816 22.1528C17.1178 21.8271 16.8911 21.357 16.8911 20.8326H14.8911ZM18.6619 17.0618C16.5794 17.0618 14.8911 18.75 14.8911 20.8326H16.8911C16.8911 19.8546 17.6839 19.0618 18.6619 19.0618V17.0618ZM22.4328 20.8326C22.4328 18.75 20.7445 17.0618 18.6619 17.0618V19.0618C19.64 19.0618 20.4328 19.8546 20.4328 20.8326H22.4328Z" fill="#3139CE"/>
</svg>
