<svg width="36" height="35" viewBox="0 0 36 35" fill="none" xmlns="http://www.w3.org/2000/svg">
<path fill-rule="evenodd" clip-rule="evenodd" d="M19.6688 2.60015C19.1553 0.966457 16.8433 0.966451 16.3298 2.60015L13.6358 11.1714C13.4066 11.9006 12.7307 12.3967 11.9663 12.3967H3.12791C1.44675 12.3967 0.732708 14.5363 2.07694 15.546L6.07285 18.5472H13.7912H17.1506V15.7988L22.7472 20.4752L17.1506 25.1517V22.4042H13.7912H10.0254C10.024 22.5745 9.9977 22.7464 9.94479 22.9148L7.19957 31.649C6.68958 33.2715 8.56004 34.5944 9.92001 33.573L16.9483 28.2942C17.5709 27.8266 18.4276 27.8266 19.0502 28.2942L26.0786 33.573C27.4385 34.5944 29.309 33.2715 28.799 31.649L26.0538 22.9148C25.8314 22.2071 26.0792 21.4362 26.6723 20.9907L33.9216 15.546C35.2659 14.5363 34.5518 12.3967 32.8707 12.3967H24.0322C23.2679 12.3967 22.592 11.9006 22.3628 11.1714L19.6688 2.60015Z" fill="white"/>
<path d="M16.3298 2.60015L15.3758 2.3003V2.3003L16.3298 2.60015ZM19.6688 2.60015L18.7148 2.9V2.9L19.6688 2.60015ZM13.6358 11.1714L12.6818 10.8716V10.8716L13.6358 11.1714ZM2.07694 15.546L1.47639 16.3455H1.47639L2.07694 15.546ZM6.07285 18.5472L5.4723 19.3468C5.64549 19.4769 5.85624 19.5472 6.07285 19.5472V18.5472ZM17.1506 18.5472V19.5472C17.7028 19.5472 18.1506 19.0995 18.1506 18.5472H17.1506ZM17.1506 15.7988L17.7918 15.0314C17.4938 14.7825 17.0787 14.7285 16.727 14.8929C16.3753 15.0574 16.1506 15.4105 16.1506 15.7988H17.1506ZM22.7472 20.4752L23.3884 21.2426C23.6158 21.0526 23.7472 20.7716 23.7472 20.4752C23.7472 20.1789 23.6158 19.8979 23.3884 19.7079L22.7472 20.4752ZM17.1506 25.1517H16.1506C16.1506 25.5399 16.3753 25.8931 16.727 26.0576C17.0787 26.222 17.4938 26.168 17.7918 25.9191L17.1506 25.1517ZM17.1506 22.4042H18.1506C18.1506 21.852 17.7028 21.4042 17.1506 21.4042V22.4042ZM10.0254 22.4042V21.4042C9.47621 21.4042 9.0298 21.8471 9.02539 22.3962L10.0254 22.4042ZM9.94479 22.9148L10.8988 23.2146L10.8988 23.2146L9.94479 22.9148ZM7.19957 31.649L6.24558 31.3491L7.19957 31.649ZM9.92001 33.573L9.31946 32.7734H9.31946L9.92001 33.573ZM16.9483 28.2942L16.3478 27.4946L16.9483 28.2942ZM19.0502 28.2942L18.4497 29.0938L19.0502 28.2942ZM26.0786 33.573L25.478 34.3726H25.478L26.0786 33.573ZM28.799 31.649L27.845 31.9488L28.799 31.649ZM26.0538 22.9148L25.0998 23.2146L26.0538 22.9148ZM26.6723 20.9907L27.2728 21.7903L27.2728 21.7903L26.6723 20.9907ZM33.9216 15.546L33.3211 14.7464L33.3211 14.7464L33.9216 15.546ZM22.3628 11.1714L23.3168 10.8716V10.8716L22.3628 11.1714ZM17.2838 2.89999C17.5039 2.19984 18.4947 2.19983 18.7148 2.9L20.6228 2.30031C19.8159 -0.26692 16.1827 -0.266942 15.3758 2.3003L17.2838 2.89999ZM14.5898 11.4713L17.2838 2.89999L15.3758 2.3003L12.6818 10.8716L14.5898 11.4713ZM11.9663 13.3967C13.1675 13.3967 14.2296 12.6171 14.5898 11.4713L12.6818 10.8716C12.5836 11.1841 12.2939 11.3967 11.9663 11.3967V13.3967ZM3.12791 13.3967H11.9663V11.3967H3.12791V13.3967ZM2.67749 14.7464C2.1014 14.3137 2.40741 13.3967 3.12791 13.3967V11.3967C0.486087 11.3967 -0.63598 14.759 1.47639 16.3455L2.67749 14.7464ZM6.6734 17.7476L2.67749 14.7464L1.47639 16.3455L5.4723 19.3468L6.6734 17.7476ZM6.07285 19.5472H13.7912V17.5472H6.07285V19.5472ZM13.7912 19.5472H17.1506V17.5472H13.7912V19.5472ZM18.1506 18.5472V15.7988H16.1506V18.5472H18.1506ZM16.5094 16.5662L22.106 21.2426L23.3884 19.7079L17.7918 15.0314L16.5094 16.5662ZM22.106 19.7079L16.5094 24.3843L17.7918 25.9191L23.3884 21.2426L22.106 19.7079ZM18.1506 25.1517V22.4042H16.1506V25.1517H18.1506ZM17.1506 21.4042H13.7912V23.4042H17.1506V21.4042ZM13.7912 21.4042H10.0254V23.4042H13.7912V21.4042ZM10.8988 23.2146C10.9818 22.9506 11.0232 22.6803 11.0253 22.4123L9.02539 22.3962C9.02481 22.4687 9.01364 22.5423 8.9908 22.6149L10.8988 23.2146ZM8.15356 31.9488L10.8988 23.2146L8.9908 22.6149L6.24558 31.3491L8.15356 31.9488ZM9.31946 32.7734C8.73662 33.2111 7.93499 32.6442 8.15356 31.9488L6.24558 31.3491C5.44417 33.8989 8.38347 35.9777 10.5206 34.3726L9.31946 32.7734ZM16.3478 27.4946L9.31946 32.7734L10.5206 34.3726L17.5489 29.0938L16.3478 27.4946ZM19.6508 27.4946C18.6724 26.7598 17.3262 26.7598 16.3478 27.4946L17.5489 29.0938C17.8157 28.8934 18.1829 28.8934 18.4497 29.0938L19.6508 27.4946ZM26.6791 32.7734L19.6508 27.4946L18.4497 29.0938L25.478 34.3726L26.6791 32.7734ZM27.845 31.9488C28.0636 32.6442 27.2619 33.2111 26.6791 32.7734L25.478 34.3726C27.6151 35.9777 30.5544 33.8989 29.753 31.3491L27.845 31.9488ZM25.0998 23.2146L27.845 31.9488L29.753 31.3491L27.0078 22.6149L25.0998 23.2146ZM26.0717 20.1912C25.1398 20.8912 24.7503 22.1026 25.0998 23.2146L27.0078 22.6149C26.9125 22.3116 27.0187 21.9812 27.2728 21.7903L26.0717 20.1912ZM33.3211 14.7464L26.0717 20.1912L27.2728 21.7903L34.5222 16.3455L33.3211 14.7464ZM32.8707 13.3967C33.5912 13.3967 33.8972 14.3137 33.3211 14.7464L34.5222 16.3455C36.6345 14.759 35.5125 11.3967 32.8707 11.3967V13.3967ZM24.0322 13.3967H32.8707V11.3967H24.0322V13.3967ZM21.4088 11.4713C21.7689 12.6171 22.8311 13.3967 24.0322 13.3967V11.3967C23.7047 11.3967 23.415 11.1841 23.3168 10.8716L21.4088 11.4713ZM18.7148 2.9L21.4088 11.4713L23.3168 10.8716L20.6228 2.30031L18.7148 2.9Z" fill="#3139CE"/>
</svg>
