
<svg width="38" height="38" viewBox="0 0 38 38" fill="none" xmlns="http://www.w3.org/2000/svg">
<rect width="12.2774" height="13.1512" rx="6.13872" transform="matrix(-1 0 0 1 14.27 17.1619)" fill="white" stroke="#3139CE" stroke-width="2"/>
<path d="M26.1719 9.13927C26.1719 5.19636 22.9372 2 18.9943 2C15.0513 2 11.8166 5.19636 11.8166 9.13927C11.8166 13.0822 15.0513 16.2785 18.9943 16.2785C22.9372 16.2785 26.1719 13.0822 26.1719 9.13927Z" fill="white" stroke="#3139CE" stroke-width="2"/>
<path d="M12.3828 12.9344C12.3828 10.5998 10.4675 8.70721 8.13293 8.70721C5.79832 8.70721 3.88304 10.5998 3.88304 12.9344C3.88304 15.269 5.79832 17.1616 8.13293 17.1616C10.4675 17.1616 12.3828 15.269 12.3828 12.9344Z" fill="white" stroke="#3139CE" stroke-width="2"/>
<rect x="23.7168" y="17.1619" width="12.2774" height="13.1512" rx="6.13872" fill="white" stroke="#3139CE" stroke-width="2"/>
<path d="M27.9644 25.3388C27.9644 20.3837 23.9474 16.3668 18.9923 16.3668C14.0372 16.3668 10.0203 20.3837 10.0203 25.3388V27.0278C10.0203 31.9829 14.0372 35.9998 18.9923 35.9998C23.9474 35.9998 27.9644 31.9829 27.9644 27.0278V25.3388Z" fill="white" stroke="#3139CE" stroke-width="2"/>
<path d="M25.604 12.9344C25.604 10.5998 27.5193 8.70721 29.8539 8.70721C32.1885 8.70721 34.1038 10.5998 34.1038 12.9344C34.1038 15.269 32.1885 17.1616 29.8539 17.1616C27.5193 17.1616 25.604 15.269 25.604 12.9344Z" fill="white" stroke="#3139CE" stroke-width="2"/>
</svg>
