<svg width="22" height="22" viewBox="0 0 22 22" fill="none" xmlns="http://www.w3.org/2000/svg">
<path d="M10.8 21.6C4.83516 21.6 0 16.7648 0 10.8C0 4.83516 4.83516 0 10.8 0C16.7648 0 21.6 4.83516 21.6 10.8C21.6 16.7648 16.7648 21.6 10.8 21.6ZM7.4412 12.0636L7.45524 12.056L8.39484 15.1556C8.5158 15.4915 8.68212 15.552 8.88408 15.5239C9.08712 15.4969 9.19404 15.3878 9.32688 15.2604L10.6099 14.0206L13.3639 16.0596C13.8672 16.3372 14.229 16.1935 14.3543 15.593L16.1438 7.14528C16.3415 6.35904 15.9959 6.04368 15.3857 6.29424L4.87404 10.355C4.15692 10.6423 4.16124 11.0441 4.74444 11.2223L7.4412 12.0636Z" fill="white"/>
</svg>
