<svg width="30" height="31" viewBox="0 0 30 31" fill="none" xmlns="http://www.w3.org/2000/svg">
<path d="M29.9499 15.4254C29.9499 23.6687 23.2676 30.3507 15.0245 30.3507C6.78121 30.3507 0.0991211 23.6687 0.0991211 15.4254C0.0991211 7.18224 6.78121 0.5 15.0245 0.5C23.2676 0.5 29.9499 7.18224 29.9499 15.4254Z" fill="#020100"/>
<path d="M24.3725 12.1481C23.5294 11.5583 22.6277 10.9296 21.7456 10.3058C21.7261 10.2912 21.7066 10.2765 21.6822 10.2619C21.5847 10.1888 21.4726 10.1108 21.3362 10.067L21.3264 10.0621C18.9675 9.49186 16.5696 8.907 14.2497 8.34164C12.1442 7.8299 10.0436 7.31815 7.93815 6.8064C7.88454 6.79178 7.83093 6.77716 7.77245 6.76254C7.58237 6.70893 7.36305 6.65044 7.12911 6.67968C7.06087 6.68943 7.00239 6.7138 6.94878 6.74792L6.89029 6.79665C6.79769 6.88438 6.74895 6.99648 6.72458 7.05984L6.70996 7.09883V7.32302L6.71971 7.35714C8.05025 11.0856 9.41491 14.8676 10.7308 18.5278C11.7446 21.3449 12.7973 24.2643 13.8257 27.1301C13.889 27.325 14.0694 27.4517 14.2936 27.4712H14.3423C14.5519 27.4712 14.7371 27.3689 14.8297 27.2032L18.6897 21.574C19.6304 20.2044 20.571 18.83 21.5116 17.4605C21.8967 16.9 22.2817 16.3346 22.6667 15.7742C23.3003 14.8481 23.9534 13.8929 24.6016 12.962L24.6357 12.9132V12.8548C24.6503 12.6842 24.6552 12.3333 24.3725 12.1481ZM19.8497 14.1999C18.9432 14.6727 18.0171 15.1601 17.0862 15.6426C17.6272 15.0626 18.1731 14.4777 18.7141 13.8978C19.3915 13.1667 20.0982 12.4113 20.7903 11.6704L20.8049 11.6558C20.8634 11.5778 20.9365 11.5047 21.0145 11.4267C21.0681 11.3731 21.1266 11.3195 21.1802 11.2562C21.5409 11.5047 21.9064 11.7582 22.2573 12.0067C22.5108 12.1871 22.7691 12.3674 23.0323 12.5477C21.96 13.0936 20.8878 13.6541 19.8497 14.1999ZM17.52 13.966C16.8231 14.7214 16.1017 15.4964 15.3853 16.2615C13.9963 14.5752 12.578 12.8645 11.2036 11.2123C10.5797 10.4617 9.95103 9.7063 9.32718 8.95574L9.32231 8.95087C9.18097 8.79003 9.0445 8.61457 8.90804 8.44887C8.82031 8.33677 8.72771 8.22955 8.6351 8.11745C9.20046 8.26366 9.7707 8.40013 10.3312 8.53172C10.8234 8.64869 11.3352 8.77054 11.8372 8.89725C14.664 9.58446 17.4956 10.2717 20.3224 10.9589C19.3818 11.9629 18.4363 12.9815 17.52 13.966ZM15.0685 23.465C15.1221 22.9532 15.1806 22.4269 15.2293 21.9103C15.2732 21.496 15.3171 21.072 15.3609 20.6674C15.4292 20.0192 15.5023 19.3466 15.5607 18.6887L15.5754 18.5717C15.6241 18.1526 15.6728 17.7188 15.7021 17.285C15.7557 17.2558 15.8142 17.2265 15.8775 17.2022C15.9507 17.1681 16.0238 17.1388 16.0969 17.095C17.2227 16.5052 18.3485 15.9155 19.4793 15.3306C20.6051 14.7458 21.7602 14.1414 22.9055 13.542C21.8625 15.0528 20.8147 16.5783 19.8009 18.0648C18.9285 19.3369 18.0318 20.6479 17.1399 21.9395C16.7889 22.4561 16.4234 22.9825 16.0774 23.4894C15.6875 24.0547 15.2878 24.6347 14.8979 25.2147C14.9467 24.6298 15.0051 24.0401 15.0685 23.465ZM8.27444 9.26766C8.21109 9.09221 8.14285 8.91188 8.08437 8.74129C9.40029 10.3301 10.726 11.9287 12.0175 13.4786C12.6852 14.2828 13.3529 15.0821 14.0206 15.8911C14.1522 16.0422 14.2838 16.2031 14.4105 16.359C14.5762 16.5588 14.742 16.7684 14.9223 16.9682C14.8638 17.4702 14.8151 17.9771 14.7614 18.4645C14.7273 18.8057 14.6932 19.1468 14.6542 19.4929V19.4977C14.6396 19.717 14.6104 19.9364 14.586 20.1508C14.5519 20.4481 14.4739 21.1207 14.4739 21.1207L14.469 21.1548C14.3813 22.1393 14.2741 23.1336 14.1717 24.0986C14.1279 24.4982 14.0889 24.9076 14.045 25.317C14.0206 25.2439 13.9914 25.1708 13.967 25.1026C13.8939 24.9076 13.8208 24.7029 13.7526 24.5031L13.2311 23.0556C11.5789 18.4596 9.92666 13.8685 8.27444 9.26766Z" fill="white"/>
</svg>
