<svg width="24" height="24" viewBox="0 0 24 24" fill="none" xmlns="http://www.w3.org/2000/svg">
<path fill-rule="evenodd" clip-rule="evenodd" d="M23.7812 1.28033C24.0741 0.987437 24.0741 0.512563 23.7812 0.21967C23.4883 -0.0732233 23.0134 -0.0732233 22.7205 0.21967L12.0004 10.9398L1.28033 0.21967C0.987437 -0.0732233 0.512563 -0.0732233 0.21967 0.21967C-0.0732233 0.512563 -0.0732233 0.987437 0.21967 1.28033L10.9398 12.0004L0.21967 22.7205C-0.0732233 23.0134 -0.0732233 23.4883 0.21967 23.7812C0.512563 24.0741 0.987437 24.0741 1.28033 23.7812L12.0004 13.0611L22.7205 23.7812C23.0134 24.0741 23.4883 24.0741 23.7812 23.7812C24.0741 23.4883 24.0741 23.0134 23.7812 22.7205L13.0611 12.0004L23.7812 1.28033Z" fill="#E6E6E6"/>
</svg>
