<svg width="117" height="40" viewBox="0 0 117 40" fill="none" xmlns="http://www.w3.org/2000/svg">
<g clip-path="url(#clip0_615_2107)">
<path d="M15.7822 33.0012L6.25626 29.5918L3.54329 33.497L3.3722 33.4419L3.36609 33.448L19.5156 38.357L15.7822 33.0012Z" fill="#5C3DF5"/>
<path d="M25.8093 38.5408L12.8066 20.1719L10.0569 16.2912L6.53127 11.3088L3.7633 7.3975L3.75719 7.38525L1.23975 8.27891C0.139893 8.67065 -0.281719 9.99889 0.390415 10.9538L1.808 12.9859L7.0812 20.533L9.82472 24.4627L15.7823 33.0014L19.5218 38.3572L24.8011 39.9609C25.6382 40.2118 26.3225 39.257 25.8093 38.5408Z" fill="#5C3DF5"/>
<path d="M15.9043 7.97874L10.0568 16.291L12.8064 20.1716L25.8091 1.45383C26.3285 0.719315 25.6014 -0.247793 24.7521 0.0521329L3.75706 7.39725L6.52502 11.3085L15.9043 7.97874Z" fill="#5C3DF5"/>
<path d="M12.8068 20.1719L18.6177 11.8107L15.9047 7.979L10.0571 16.2912L12.8068 20.1719Z" fill="url(#paint0_linear_615_2107)"/>
<path d="M6.25605 29.5917L9.81836 24.4624L7.07483 20.5327L0.353496 30.0875C-0.355299 31.0669 0.115194 32.4563 1.27004 32.8052L3.37199 33.4418L3.54308 33.4907L6.25605 29.5917Z" fill="url(#paint1_linear_615_2107)"/>
</g>
<path d="M44.9514 15.1778L48.6143 24.2622L49.4106 27.2489H49.4743L50.0795 24.2L52.9143 15.1778H55.3351L49.984 31.0756H48.7417L44.5692 20.8089L43.964 18.2578H43.8684L43.2314 20.84L39.218 31.0756H37.9758L32.4336 15.1778H35.2047L38.358 24.2311L38.8995 27.2489H38.9314L39.6958 24.1689L43.104 15.1778H44.9514Z" fill="white"/>
<path d="M57.3211 16.3289C58.128 15.8519 59.0623 15.4993 60.1241 15.2711C61.207 15.043 62.3324 14.9289 63.5004 14.9289C64.6045 14.9289 65.4858 15.0741 66.1441 15.3645C66.8236 15.6548 67.3332 16.0385 67.6729 16.5156C68.0339 16.9719 68.2675 17.48 68.3737 18.04C68.5011 18.6 68.5648 19.16 68.5648 19.72C68.5648 20.9645 68.5329 22.1778 68.4692 23.36C68.4055 24.5422 68.3737 25.6622 68.3737 26.72C68.3737 27.4874 68.4055 28.2133 68.4692 28.8978C68.5329 29.5822 68.6497 30.2148 68.8196 30.7956H66.9403L66.2715 28.6178H66.1122C65.9211 28.9082 65.6769 29.1985 65.3796 29.4889C65.1036 29.7585 64.7638 30.0074 64.3603 30.2356C63.9569 30.443 63.4897 30.6193 62.9589 30.7645C62.428 30.9096 61.8228 30.9822 61.1433 30.9822C60.4638 30.9822 59.8268 30.8785 59.2322 30.6711C58.6589 30.4637 58.1599 30.1733 57.7352 29.8C57.3105 29.4059 56.9707 28.9393 56.7159 28.4C56.4823 27.8608 56.3655 27.2489 56.3655 26.5645C56.3655 25.6519 56.5566 24.8948 56.9389 24.2933C57.3211 23.6711 57.852 23.1837 58.5315 22.8311C59.2322 22.4578 60.0603 22.1985 61.0159 22.0533C61.9927 21.8874 63.065 21.8045 64.2329 21.8045C64.5302 21.8045 64.8169 21.8045 65.0929 21.8045C65.3902 21.8045 65.6875 21.8252 65.9848 21.8667C66.0485 21.2445 66.0803 20.6845 66.0803 20.1867C66.0803 19.0459 65.8468 18.2474 65.3796 17.7911C64.9124 17.3348 64.0631 17.1067 62.8315 17.1067C62.4705 17.1067 62.0776 17.1378 61.6529 17.2C61.2495 17.2415 60.8248 17.3141 60.3789 17.4178C59.9542 17.5008 59.5401 17.6148 59.1366 17.76C58.7544 17.8845 58.4147 18.0296 58.1174 18.1956L57.3211 16.3289ZM61.8441 28.8045C62.4386 28.8045 62.9695 28.7319 63.4366 28.5867C63.9038 28.4208 64.3073 28.2237 64.647 27.9956C64.9868 27.7467 65.2628 27.477 65.4752 27.1867C65.7087 26.8963 65.8786 26.6163 65.9848 26.3467V23.7645C65.6875 23.7437 65.3796 23.7333 65.0611 23.7333C64.7638 23.7126 64.4665 23.7022 64.1692 23.7022C63.511 23.7022 62.8633 23.7437 62.2263 23.8267C61.6105 23.8889 61.0584 24.0237 60.57 24.2311C60.1028 24.4178 59.7206 24.6874 59.4233 25.04C59.1473 25.3719 59.0092 25.7971 59.0092 26.3156C59.0092 27.0415 59.2747 27.643 59.8055 28.12C60.3364 28.5763 61.0159 28.8045 61.8441 28.8045Z" fill="white"/>
<path d="M75.7345 26.9067C75.7345 27.6326 75.8619 28.1511 76.1167 28.4622C76.3715 28.7733 76.7325 28.9289 77.1996 28.9289C77.4757 28.9289 77.773 28.9082 78.0915 28.8667C78.41 28.8252 78.771 28.7319 79.1744 28.5867L79.4611 30.5467C79.1214 30.7126 78.6436 30.8474 78.0278 30.9511C77.4332 31.0548 76.913 31.1067 76.467 31.1067C75.5115 31.1067 74.7258 30.8474 74.11 30.3289C73.4942 29.7896 73.1863 28.8874 73.1863 27.6222V8.95557H75.7345V26.9067Z" fill="white"/>
<path d="M84.5572 26.9067C84.5572 27.6326 84.6846 28.1511 84.9394 28.4622C85.1942 28.7733 85.5552 28.9289 86.0223 28.9289C86.2984 28.9289 86.5957 28.9082 86.9142 28.8667C87.2327 28.8252 87.5937 28.7319 87.9972 28.5867L88.2838 30.5467C87.9441 30.7126 87.4663 30.8474 86.8505 30.9511C86.2559 31.0548 85.7357 31.1067 85.2898 31.1067C84.3342 31.1067 83.5485 30.8474 82.9327 30.3289C82.3169 29.7896 82.009 28.8874 82.009 27.6222V8.95557H84.5572V26.9067Z" fill="white"/>
<path d="M102.171 29.4889C101.534 29.9867 100.727 30.3808 99.7503 30.6711C98.7947 30.9615 97.7754 31.1067 96.6925 31.1067C95.4821 31.1067 94.431 30.92 93.5391 30.5467C92.6473 30.1526 91.9147 29.603 91.3414 28.8978C90.768 28.1719 90.3433 27.3111 90.0673 26.3156C89.7912 25.32 89.6532 24.2 89.6532 22.9556C89.6532 20.3008 90.2584 18.2785 91.4688 16.8889C92.6791 15.4993 94.4098 14.8045 96.6606 14.8045C97.3826 14.8045 98.1046 14.8874 98.8265 15.0533C99.5485 15.1985 100.196 15.4889 100.77 15.9245C101.343 16.36 101.81 16.9822 102.171 17.7911C102.532 18.5793 102.712 19.6267 102.712 20.9333C102.712 21.6178 102.649 22.3748 102.521 23.2045H92.2969C92.2969 24.117 92.3925 24.9259 92.5836 25.6311C92.7747 26.3363 93.072 26.9378 93.4754 27.4356C93.8789 27.9126 94.3991 28.2859 95.0362 28.5556C95.6944 28.8045 96.4907 28.9289 97.4251 28.9289C98.147 28.9289 98.869 28.8045 99.591 28.5556C100.313 28.3067 100.854 28.0163 101.215 27.6845L102.171 29.4889ZM96.6925 16.9822C95.4396 16.9822 94.431 17.3037 93.6665 17.9467C92.9233 18.5896 92.4774 19.6889 92.3288 21.2445H100.228C100.228 19.6682 99.9201 18.5689 99.3043 17.9467C98.6885 17.3037 97.8179 16.9822 96.6925 16.9822Z" fill="white"/>
<path d="M104.14 15.1778H106.624V12.0978L109.172 11.3822V15.1778H113.504V17.3556H109.172V25.9733C109.172 27.0519 109.31 27.8193 109.587 28.2756C109.863 28.7111 110.33 28.9289 110.988 28.9289C111.54 28.9289 112.007 28.877 112.389 28.7733C112.772 28.6489 113.196 28.4933 113.664 28.3067L114.237 30.2045C113.664 30.4741 113.037 30.6919 112.358 30.8578C111.678 31.0237 110.946 31.1067 110.16 31.1067C108.865 31.1067 107.951 30.7541 107.421 30.0489C106.89 29.323 106.624 28.12 106.624 26.44V17.3556H104.14V15.1778Z" fill="white"/>
<path fill-rule="evenodd" clip-rule="evenodd" d="M45.2766 14.711L49.0694 24.1173L49.3788 25.2779L49.6152 24.0867L52.5611 14.711H55.995L50.3297 31.5421H48.4173L44.1117 20.9483L43.9079 20.0892L43.6885 20.9786L39.5466 31.5421H37.6337L31.7661 14.711H35.5468L38.8222 24.1149L38.9881 25.0393L39.238 24.0323L42.7713 14.711H45.2766ZM38.9313 27.2488H38.8994L38.358 24.231L35.2046 15.1777H32.4335L37.9757 31.0754H39.218L43.2313 20.8399L43.8683 18.2577H43.9639L44.5691 20.8088L48.7417 31.0754H49.9839L55.335 15.1777H52.9143L50.0794 24.1999L49.4743 27.2488H49.4106L48.6143 24.2621L44.9513 15.1777H43.1039L39.6957 24.1688L38.9313 27.2488ZM56.7218 16.1375L57.0736 15.9295C57.9315 15.4224 58.9161 15.0527 60.0213 14.8152L60.0232 14.8148C61.141 14.5793 62.3003 14.4621 63.5003 14.4621C64.6386 14.4621 65.5944 14.6105 66.338 14.9379C67.0731 15.2524 67.6576 15.6813 68.0582 16.2393C68.4591 16.749 68.7216 17.3197 68.8418 17.9466C68.9754 18.5364 69.0425 19.1277 69.0425 19.7199C69.0425 20.9721 69.0104 22.1936 68.9463 23.3844C68.883 24.5594 68.8514 25.6712 68.8514 26.7199C68.8514 27.4748 68.8827 28.1865 68.945 28.8554C69.0063 29.5147 69.1183 30.1181 69.2789 30.6672L69.4529 31.2621H66.5848L66.0385 29.4836C65.938 29.5961 65.8309 29.7079 65.7174 29.8188C65.4069 30.122 65.0323 30.3946 64.5997 30.6393L64.5913 30.644L64.5828 30.6484C64.1441 30.8739 63.6444 31.0614 63.0876 31.2137C62.5064 31.3727 61.8566 31.4488 61.1432 31.4488C60.4132 31.4488 59.7214 31.3372 59.0714 31.1105L59.0688 31.1096L59.0662 31.1086C58.4402 30.8822 57.8881 30.5622 57.4155 30.1468L57.4107 30.1425L57.406 30.1382C56.9358 29.7019 56.5612 29.1863 56.282 28.5954L56.2788 28.5886L56.2758 28.5817C56.0135 27.976 55.8877 27.3008 55.8877 26.5643C55.8877 25.5909 56.0913 24.7435 56.5309 24.0502C56.9589 23.3546 57.5537 22.8104 58.3049 22.4201C59.0614 22.0174 59.9421 21.7445 60.9381 21.5927C61.9451 21.422 63.0439 21.3377 64.2329 21.3377H65.0929C65.246 21.3377 65.399 21.3428 65.552 21.353C65.5858 20.9284 65.6025 20.5397 65.6025 20.1865C65.6025 19.0821 65.3713 18.4429 65.0417 18.121C64.7155 17.8024 64.0346 17.5732 62.8314 17.5732C62.4981 17.5732 62.1292 17.602 61.7237 17.6614L61.7133 17.6629L61.7029 17.664C61.3223 17.7031 60.9179 17.772 60.4895 17.8716L60.481 17.8736L60.4725 17.8753C60.0719 17.9535 59.6818 18.061 59.3017 18.1978L59.2947 18.2003L59.2877 18.2026C58.9302 18.319 58.62 18.4523 58.3544 18.6006L57.8844 18.8629L56.7218 16.1375ZM66.0274 21.4011C66.0152 21.5522 66.001 21.7073 65.9847 21.8665C65.8263 21.8444 65.6679 21.8282 65.5095 21.8179C65.3706 21.8089 65.2318 21.8043 65.0929 21.8043H64.2329C63.065 21.8043 61.9926 21.8873 61.0158 22.0532C60.0603 22.1984 59.2321 22.4577 58.5314 22.831C57.8519 23.1836 57.321 23.671 56.9388 24.2932C56.5566 24.8947 56.3655 25.6517 56.3655 26.5643C56.3655 27.2488 56.4822 27.8606 56.7158 28.3999C56.9706 28.9391 57.3104 29.4058 57.7351 29.7999C58.1598 30.1732 58.6588 30.4636 59.2321 30.671C59.8267 30.8784 60.4637 30.9821 61.1432 30.9821C61.8227 30.9821 62.4279 30.9095 62.9588 30.7643C63.4897 30.6191 63.9568 30.4428 64.3603 30.2354C64.7637 30.0073 65.1035 29.7584 65.3795 29.4888C65.5648 29.3078 65.7294 29.1269 65.8734 28.946C65.9451 28.8559 66.0117 28.7658 66.0732 28.6757C66.0864 28.6564 66.0994 28.637 66.1121 28.6177H66.2714L66.9403 30.7954H68.8195C68.7751 30.6434 68.7342 30.4879 68.697 30.3288C68.5922 29.88 68.5162 29.403 68.4692 28.8977C68.4055 28.2132 68.3736 27.4873 68.3736 26.7199C68.3736 25.6621 68.4055 24.5421 68.4692 23.3599C68.5329 22.1777 68.5647 20.9643 68.5647 19.7199C68.5647 19.1599 68.501 18.5999 68.3736 18.0399C68.2674 17.4799 68.0338 16.9717 67.6729 16.5154C67.3331 16.0384 66.8235 15.6547 66.144 15.3643C65.4857 15.074 64.6045 14.9288 63.5003 14.9288C62.3324 14.9288 61.2069 15.0428 60.124 15.271C59.0622 15.4991 58.1279 15.8517 57.321 16.3288L58.1173 18.1954C58.2512 18.1207 58.3936 18.0502 58.5447 17.9839C58.7291 17.903 58.9264 17.8283 59.1366 17.7599C59.54 17.6147 59.9541 17.5006 60.3788 17.4177C60.8247 17.314 61.2494 17.2414 61.6529 17.1999C62.0776 17.1377 62.4704 17.1065 62.8314 17.1065C64.063 17.1065 64.9124 17.3347 65.3795 17.791C65.8467 18.2473 66.0803 19.0458 66.0803 20.1865C66.0803 20.557 66.0626 20.9618 66.0274 21.4011ZM65.0926 26.9066L65.0994 26.8982C65.2868 26.6653 65.4198 26.4509 65.5069 26.255V24.2071C65.361 24.2023 65.2124 24.1999 65.061 24.1999H65.044L65.027 24.1987C64.741 24.1787 64.4551 24.1688 64.1692 24.1688C63.5315 24.1688 62.9049 24.2089 62.2893 24.2891L62.2824 24.29L62.2754 24.2907C61.7006 24.3488 61.1972 24.4734 60.7604 24.659L60.7556 24.661L60.7508 24.6629C60.3513 24.8225 60.036 25.0476 59.793 25.3354C59.6006 25.5673 59.4869 25.8813 59.4869 26.3154C59.4869 26.9135 59.6985 27.3879 60.125 27.7729C60.5536 28.1395 61.1132 28.3377 61.844 28.3377C62.3954 28.3377 62.873 28.2708 63.2826 28.1447C63.7112 27.9917 64.0714 27.8144 64.3682 27.6163C64.6712 27.3933 64.9082 27.1589 65.0863 26.9153L65.0926 26.9066ZM64.6469 27.9954C64.3072 28.2236 63.9037 28.4206 63.4366 28.5865C62.9694 28.7317 62.4385 28.8043 61.844 28.8043C61.0158 28.8043 60.3363 28.5762 59.8055 28.1199C59.2746 27.6428 59.0092 27.0414 59.0092 26.3154C59.0092 25.7969 59.1472 25.3717 59.4232 25.0399C59.7205 24.6873 60.1027 24.4177 60.5699 24.231C61.0583 24.0236 61.6104 23.8888 62.2262 23.8265C62.8632 23.7436 63.5109 23.7021 64.1692 23.7021C64.4664 23.7021 64.7637 23.7125 65.061 23.7332C65.3795 23.7332 65.6874 23.7436 65.9847 23.7643V26.3465C65.8785 26.6162 65.7087 26.8962 65.4751 27.1865C65.2627 27.4769 64.9867 27.7465 64.6469 27.9954ZM79.5638 27.9491L79.9827 30.8135L79.6747 30.9639C79.2752 31.159 78.7459 31.3035 78.1102 31.4106C77.4976 31.5174 76.9486 31.5732 76.467 31.5732C75.418 31.5732 74.5153 31.2862 73.798 30.6822L73.7944 30.6793L73.791 30.6762C73.0288 30.0088 72.7084 28.9457 72.7084 27.6221V8.48877H76.2121V26.9065C76.2121 27.6033 76.3393 27.9869 76.4897 28.1706C76.6399 28.354 76.8538 28.4621 77.1996 28.4621C77.4514 28.4621 77.7274 28.4432 78.0283 28.404C78.3025 28.3683 78.6284 28.2857 79.0092 28.1487L79.5638 27.9491ZM78.0277 30.951C78.6435 30.8473 79.1213 30.7125 79.461 30.5465L79.1744 28.5865C79.014 28.6442 78.8604 28.6938 78.7135 28.7351C78.4907 28.7977 78.2833 28.8415 78.0914 28.8665C77.7729 28.908 77.4756 28.9288 77.1996 28.9288C76.7324 28.9288 76.3714 28.7732 76.1166 28.4621C75.8618 28.151 75.7344 27.6325 75.7344 26.9065V8.95544H73.1862V27.6221C73.1862 28.8873 73.4941 29.7895 74.1099 30.3288C74.7257 30.8473 75.5114 31.1065 76.467 31.1065C76.9129 31.1065 77.4331 31.0547 78.0277 30.951ZM88.3865 27.9491L88.8054 30.8135L88.4974 30.9639C88.098 31.159 87.5686 31.3035 86.933 31.4106C86.3203 31.5174 85.7713 31.5732 85.2897 31.5732C84.2408 31.5732 83.338 31.2862 82.6207 30.6822L82.6172 30.6793L82.6137 30.6762C81.8515 30.0088 81.5312 28.9457 81.5312 27.6221V8.48877H85.0349V26.9065C85.0349 27.6033 85.162 27.9869 85.3124 28.1706C85.4627 28.354 85.6765 28.4621 86.0223 28.4621C86.2741 28.4621 86.5501 28.4432 86.851 28.404C87.1252 28.3683 87.4511 28.2857 87.8319 28.1487L88.3865 27.9491ZM86.8504 30.951C87.4662 30.8473 87.944 30.7125 88.2837 30.5465L87.9971 28.5865C87.8367 28.6442 87.6831 28.6938 87.5362 28.7351C87.3134 28.7977 87.1061 28.8415 86.9141 28.8665C86.5956 28.908 86.2983 28.9288 86.0223 28.9288C85.5551 28.9288 85.1941 28.7732 84.9393 28.4621C84.6845 28.151 84.5571 27.6325 84.5571 26.9065V8.95544H82.0089V27.6221C82.0089 28.8873 82.3168 29.7895 82.9326 30.3288C83.5484 30.8473 84.3341 31.1065 85.2897 31.1065C85.7356 31.1065 86.2558 31.0547 86.8504 30.951ZM102.775 29.6142L102.469 29.8532C101.775 30.3957 100.911 30.8137 99.8905 31.1171C98.8859 31.4222 97.8189 31.5732 96.6924 31.5732C95.4328 31.5732 94.3149 31.3791 93.3508 30.9755L93.3465 30.9736L93.3421 30.9717C92.3855 30.549 91.5906 29.9547 90.9671 29.1879L90.965 29.1853L90.963 29.1827C90.3468 28.4026 89.8964 27.4847 89.606 26.4374C89.317 25.3949 89.1754 24.2329 89.1754 22.9554C89.1754 20.2391 89.7938 18.0916 91.1048 16.5864C92.4245 15.0712 94.3011 14.3377 96.6605 14.3377C97.4182 14.3377 98.1747 14.4245 98.9295 14.5975C99.7195 14.7573 100.432 15.0771 101.063 15.556C101.712 16.0493 102.223 16.7402 102.608 17.6024C103.006 18.473 103.19 19.5924 103.19 20.9332C103.19 21.6453 103.124 22.4259 102.994 23.2736L102.933 23.671H92.7836C92.8108 24.3599 92.8993 24.9725 93.0454 25.5116C93.2216 26.162 93.4913 26.7021 93.8468 27.1419C94.1955 27.553 94.6486 27.8814 95.2173 28.1235C95.8045 28.344 96.5361 28.4621 97.425 28.4621C98.0896 28.4621 98.7579 28.3477 99.4319 28.1154C100.122 27.8775 100.594 27.6143 100.888 27.3445L101.349 26.9207L102.775 29.6142ZM95.0361 28.5554C94.3991 28.2858 93.8788 27.9125 93.4753 27.4354C93.0719 26.9377 92.7746 26.3362 92.5835 25.631C92.4256 25.0484 92.333 24.3951 92.3055 23.671C92.2997 23.5186 92.2968 23.363 92.2968 23.2043H102.521C102.649 22.3747 102.712 21.6177 102.712 20.9332C102.712 19.6265 102.532 18.5791 102.171 17.791C101.81 16.9821 101.343 16.3599 100.769 15.9243C100.196 15.4888 99.5484 15.1984 98.8265 15.0532C98.1045 14.8873 97.3825 14.8043 96.6605 14.8043C94.4097 14.8043 92.6791 15.4991 91.4687 16.8888C90.2583 18.2784 89.6531 20.3006 89.6531 22.9554C89.6531 24.1999 89.7912 25.3199 90.0672 26.3154C90.3433 27.311 90.7679 28.1717 91.3413 28.8977C91.9146 29.6028 92.6472 30.1525 93.5391 30.5465C94.4309 30.9199 95.482 31.1065 96.6924 31.1065C97.7753 31.1065 98.7946 30.9614 99.7502 30.671C100.727 30.3806 101.534 29.9865 102.171 29.4888L101.215 27.6843C101.105 27.786 100.977 27.8838 100.833 27.9776C100.506 28.1902 100.092 28.3828 99.5909 28.5554C98.8689 28.8043 98.147 28.9288 97.425 28.9288C96.4907 28.9288 95.6944 28.8043 95.0361 28.5554ZM98.958 18.2681L98.9553 18.2654C98.4513 17.7391 97.7207 17.4488 96.6924 17.4488C95.5268 17.4488 94.6388 17.7458 93.9808 18.298C93.4434 18.7643 93.0507 19.5637 92.8668 20.7777H99.7402C99.6837 19.5066 99.3921 18.7068 98.9607 18.2709L98.958 18.2681ZM100.218 20.7777C100.225 20.9283 100.228 21.0838 100.228 21.2443H92.3287C92.344 21.0839 92.3625 20.9284 92.3842 20.7777C92.5725 19.4669 92.9999 18.5232 93.6665 17.9465C94.4309 17.3036 95.4395 16.9821 96.6924 16.9821C97.8178 16.9821 98.6884 17.3036 99.3042 17.9465C99.8573 18.5054 100.162 19.4491 100.218 20.7777ZM103.662 14.711H106.146V11.7463L109.65 10.7624V14.711H113.982V17.8221H109.65V25.9732C109.65 27.034 109.79 27.6912 109.995 28.0339C110.162 28.2938 110.449 28.4621 110.988 28.4621C111.506 28.4621 111.924 28.4137 112.25 28.3266C112.617 28.2068 113.028 28.0563 113.483 27.8746L113.972 27.679L114.81 30.4527L114.444 30.6248C113.839 30.9095 113.181 31.1375 112.473 31.3104C111.752 31.4866 110.98 31.5732 110.16 31.5732C108.784 31.5732 107.692 31.1969 107.036 30.3252L107.034 30.3226L107.032 30.32C106.411 29.4709 106.146 28.1436 106.146 26.4399V17.8221H103.662V14.711ZM106.624 17.3554V26.4399C106.624 28.1199 106.89 29.3228 107.42 30.0488C107.951 30.754 108.864 31.1065 110.16 31.1065C110.945 31.1065 111.678 31.0236 112.358 30.8577C113.037 30.6917 113.663 30.474 114.237 30.2043L113.663 28.3065C113.51 28.3677 113.362 28.4256 113.218 28.4801C112.922 28.5919 112.646 28.6896 112.389 28.7732C112.007 28.8769 111.54 28.9288 110.988 28.9288C110.33 28.9288 109.862 28.711 109.586 28.2754C109.31 27.8191 109.172 27.0517 109.172 25.9732V17.3554H113.504V15.1777H109.172V11.3821L106.624 12.0977V15.1777H104.14V17.3554H106.624Z" fill="white"/>
<defs>
<linearGradient id="paint0_linear_615_2107" x1="14.3364" y1="7.97783" x2="14.3336" y2="19.4445" gradientUnits="userSpaceOnUse">
<stop offset="0.160259" stop-color="#5C3DF5"/>
<stop offset="0.289301" stop-color="#5C3DF5"/>
<stop offset="1" stop-color="#381F9B"/>
</linearGradient>
<linearGradient id="paint1_linear_615_2107" x1="-0.833523" y1="35.3331" x2="9.61092" y2="20.7775" gradientUnits="userSpaceOnUse">
<stop offset="0.160259" stop-color="#5C3DF5"/>
<stop offset="0.445025" stop-color="#5C3DF5"/>
<stop offset="0.885315" stop-color="#381F9B"/>
</linearGradient>
<clipPath id="clip0_615_2107">
<rect width="33" height="40" fill="white"/>
</clipPath>
</defs>
</svg>
