
<svg width="140" height="42" viewBox="0 0 140 42" fill="none" xmlns="http://www.w3.org/2000/svg">
<g clip-path="url(#clip0_1_7846)">
<path d="M0 5.6C0 2.50721 2.47748 0 5.5336 0H134.466C137.523 0 140 2.50721 140 5.6V36.4C140 39.4928 137.523 42 134.466 42H5.5336C2.47748 42 0 39.4928 0 36.4V5.6Z" fill="white"/>
<path fill-rule="evenodd" clip-rule="evenodd" d="M0 36.4V5.6C0 2.50721 2.47747 0 5.5336 0H134.466C137.523 0 140 2.50721 140 5.6V36.4C140 39.4928 137.523 42 134.466 42H5.5336C2.47748 42 0 39.4928 0 36.4ZM0.830039 36.4V5.6C0.830039 2.97112 2.93589 0.84 5.5336 0.84H134.466C137.064 0.84 139.17 2.97112 139.17 5.6V36.4C139.17 39.0289 137.064 41.16 134.466 41.16H5.5336C2.93589 41.16 0.830039 39.0289 0.830039 36.4Z" fill="black" fill-opacity="0.1"/>
<path d="M71.0698 22.9283C68.5764 22.9283 66.5164 24.8718 66.5164 27.5366C66.5164 30.1796 68.5548 32.1448 71.07 32.1448C73.585 32.1448 75.6232 30.2013 75.6232 27.5366C75.6232 24.8718 73.585 22.9283 71.0698 22.9283ZM71.0698 30.3111C69.7035 30.3111 68.5116 29.1532 68.5116 27.516C68.5116 25.8561 69.7044 24.7209 71.0698 24.7209C72.4352 24.7209 73.6279 25.8561 73.6279 27.516C73.6279 29.1532 72.4352 30.3111 71.0698 30.3111ZM61.1607 22.9283C58.6456 22.9283 56.6071 24.8718 56.6071 27.5366C56.6071 30.1796 58.6456 32.1448 61.1607 32.1448C63.6757 32.1448 65.7141 30.2013 65.7141 27.5366C65.7141 24.8718 63.6757 22.9283 61.1605 22.9283H61.1607ZM61.1607 30.3111C59.7942 30.3111 58.6026 29.1532 58.6026 27.516C58.6026 25.8561 59.7954 24.7209 61.1607 24.7209C62.5271 24.7209 63.7189 25.8561 63.7189 27.516C63.7189 29.1532 62.5475 30.3111 61.1607 30.3111ZM49.3868 24.3481V26.2916H53.9832C53.8526 27.3835 53.4851 28.1916 52.9426 28.738C52.2707 29.4148 51.2299 30.1578 49.3868 30.1578C46.5459 30.1578 44.3567 27.8429 44.3567 24.9816C44.3567 22.1203 46.5471 19.7616 49.3868 19.7616C50.9257 19.7616 52.0323 20.3733 52.8562 21.1599L54.2215 19.7834C53.072 18.6699 51.533 17.8184 49.3868 17.8184C45.505 17.8184 42.2524 21.0284 42.2524 24.9381C42.2524 28.848 45.505 32.058 49.3868 32.058C51.4898 32.058 53.0516 31.3595 54.3089 30.0483C55.5881 28.7598 55.9784 26.9466 55.9784 25.4836C55.9784 25.0251 55.9354 24.61 55.8697 24.2604L49.3868 24.3481ZM97.5664 25.8549C97.1974 24.8283 96.0272 22.9283 93.6846 22.9283C91.3423 22.9283 89.4128 24.785 89.4128 27.5366C89.4128 30.1133 91.3423 32.1448 93.9016 32.1448C95.9831 32.1448 97.1758 30.8564 97.6742 30.1133L96.1352 29.0652C95.6143 29.83 94.9209 30.3317 93.9016 30.3317C92.8824 30.3317 92.1673 29.8732 91.7112 28.9337L97.7606 26.3787L97.5664 25.8549ZM91.408 27.4063C91.3651 25.6366 92.7746 24.7197 93.771 24.7197C94.5735 24.7197 95.224 25.1129 95.4622 25.7029L91.408 27.4063ZM86.4859 31.8395H88.4812V18.3418H86.4859V31.8395ZM83.2343 23.955H83.1695C82.7143 23.4085 81.8689 22.9283 80.7839 22.9283C78.5071 22.9283 76.4473 24.9598 76.4473 27.5366C76.4473 30.1133 78.5287 32.1233 80.7839 32.1233C81.8677 32.1233 82.7134 31.6429 83.1695 31.0747H83.2343V31.7299C83.2343 33.4996 82.3012 34.438 80.8055 34.438C79.5911 34.438 78.8319 33.5429 78.5287 32.7999L76.7946 33.5429C77.2927 34.7661 78.6161 36.2729 80.8055 36.2729C83.1469 36.2729 85.1205 34.8749 85.1205 31.4898V23.212H83.2343V23.955ZM80.9575 30.3111C79.5911 30.3111 78.4425 29.1532 78.4425 27.5378C78.4425 25.9224 79.5921 24.7425 80.9575 24.7425C82.3024 24.7425 83.3862 25.9224 83.3862 27.5378C83.3853 29.1314 82.3012 30.3111 80.9575 30.3111ZM106.868 18.3421H102.098V31.8395H104.093V26.7283H106.868C109.08 26.7283 111.248 25.1117 111.248 22.5352C111.248 19.9584 109.08 18.3418 106.868 18.3418V18.3421ZM106.933 24.8513H104.114V20.2201H106.933C108.407 20.2201 109.275 21.465 109.275 22.5349C109.254 23.5833 108.408 24.8513 106.933 24.8513ZM119.206 22.9066C117.775 22.9066 116.279 23.5401 115.672 24.9816L117.429 25.7246C117.819 24.9816 118.513 24.7415 119.251 24.7415C120.291 24.7415 121.332 25.3748 121.354 26.4882V26.6197C120.985 26.4014 120.227 26.095 119.272 26.095C117.364 26.095 115.434 27.1652 115.434 29.1314C115.434 30.9444 116.995 32.1016 118.73 32.1016C120.074 32.1016 120.811 31.4898 121.266 30.7695H121.331V31.8179H123.26V26.6412C123.239 24.2611 121.483 22.9063 119.206 22.9063V22.9066ZM118.968 30.2893C118.318 30.2893 117.406 29.9612 117.406 29.1541C117.406 28.1057 118.533 27.7126 119.509 27.7126C120.376 27.7126 120.789 27.9092 121.331 28.171C121.179 29.416 120.117 30.2893 118.968 30.2893ZM130.221 23.2132L127.944 29.0444H127.879L125.517 23.2129H123.37L126.926 31.381L124.909 35.946H126.991L132.433 23.2129H130.221L130.221 23.2132ZM112.355 31.8395H114.35V18.3418H112.355V31.8395Z" fill="black"/>
<path d="M46.2047 14C45.6024 14 45.0472 13.8471 44.5393 13.5414C44.0315 13.2357 43.6269 12.8177 43.3257 12.2874C43.0305 11.7509 42.8828 11.1551 42.8828 10.5C42.8828 9.84492 43.0305 9.25223 43.3257 8.72193C43.6269 8.18538 44.0315 7.76426 44.5393 7.45856C45.0472 7.15285 45.6024 7 46.2047 7C46.6831 7 47.129 7.09046 47.5423 7.27139C47.9557 7.45232 48.3012 7.70499 48.5788 8.02941L47.8878 8.75936C47.6811 8.51604 47.4331 8.32888 47.1437 8.19786C46.8602 8.06685 46.5443 8.00134 46.1959 8.00134C45.7884 8.00134 45.4075 8.10428 45.0531 8.31016C44.6988 8.51604 44.4153 8.80927 44.2027 9.18984C43.9901 9.57041 43.8838 10.0071 43.8838 10.5C43.8838 10.9929 43.9901 11.4296 44.2027 11.8102C44.4153 12.1907 44.6988 12.484 45.0531 12.6898C45.4075 12.8957 45.7913 12.9987 46.2047 12.9987C46.5827 12.9987 46.8986 12.9394 47.1526 12.8209C47.4065 12.7023 47.6339 12.5432 47.8347 12.3436C47.9646 12.2063 48.0739 12.0348 48.1624 11.8289C48.2569 11.623 48.3189 11.3984 48.3485 11.1551H46.1959V10.2193H49.2875C49.317 10.3939 49.3318 10.5749 49.3318 10.762C49.3318 11.1863 49.2697 11.5949 49.1457 11.988C49.0217 12.3748 48.8239 12.7117 48.5522 12.9987C47.9557 13.6662 47.1732 14 46.2047 14Z" fill="black"/>
<path d="M50.2556 7.14973H54.109V8.15107H51.2477V10.004H53.8255V10.996H51.2477V12.8489H54.109V13.8503H50.2556V7.14973Z" fill="black"/>
<path d="M56.4053 8.15107H54.6336V7.14973H59.1691V8.15107H57.3974V13.8503H56.4053V8.15107Z" fill="black"/>
<path d="M61.7629 7.14973H62.7551V13.8503H61.7629V7.14973Z" fill="black"/>
<path d="M65.2654 8.15107H63.4938V7.14973H68.0293V8.15107H66.2576V13.8503H65.2654V8.15107Z" fill="black"/>
<path d="M73.4176 14C72.8034 14 72.2454 13.8471 71.7434 13.5414C71.2414 13.2295 70.8457 12.8053 70.5564 12.2687C70.2729 11.7322 70.1312 11.1426 70.1312 10.5C70.1312 9.8574 70.2729 9.27095 70.5564 8.74064C70.8457 8.2041 71.2414 7.77986 71.7434 7.46791C72.2454 7.15597 72.8034 7 73.4176 7C74.0318 7 74.5869 7.15597 75.083 7.46791C75.585 7.77986 75.9807 8.2041 76.27 8.74064C76.5594 9.27095 76.7041 9.8574 76.7041 10.5C76.7041 11.1426 76.5594 11.7322 76.27 12.2687C75.9866 12.8053 75.5939 13.2295 75.0919 13.5414C74.5899 13.8471 74.0318 14 73.4176 14ZM73.4176 12.9987C73.8369 12.9987 74.2208 12.8926 74.5692 12.6805C74.9177 12.4684 75.1923 12.1751 75.3931 11.8008C75.5939 11.4202 75.6942 10.9866 75.6942 10.5C75.6942 10.0134 75.5939 9.58289 75.3931 9.20856C75.1923 8.82799 74.9177 8.53164 74.5692 8.31952C74.2208 8.1074 73.8369 8.00134 73.4176 8.00134C72.9983 8.00134 72.6145 8.1074 72.266 8.31952C71.9176 8.53164 71.64 8.82799 71.4333 9.20856C71.2325 9.58289 71.1322 10.0134 71.1322 10.5C71.1322 10.9866 71.2325 11.4202 71.4333 11.8008C71.64 12.1751 71.9176 12.4684 72.266 12.6805C72.6145 12.8926 72.9983 12.9987 73.4176 12.9987Z" fill="black"/>
<path d="M77.6164 7.14973H78.7946L81.6293 12.0254H81.6824L81.6293 10.734V7.14973H82.6125V13.8503H81.5761L78.5997 8.72193H78.5465L78.5997 10.0134V13.8503H77.6164V7.14973Z" fill="black"/>
<path d="M29.6351 25.4545C32.992 23.5971 35.5372 22.182 35.7565 22.0721C36.4581 21.6959 37.1829 20.7008 35.7565 19.9278C35.296 19.6848 32.8164 18.3135 29.6351 16.5454L25.2251 21.0329L29.6348 25.4545H29.6351Z" fill="#FFD900"/>
<path d="M25.2689 21L11.3516 34.9893C11.678 35.0325 12.0468 34.9461 12.4819 34.7076C13.3948 34.2094 23.0719 28.9385 29.6399 25.3386L25.2689 21Z" fill="#F43249"/>
<path d="M25.2744 21L29.6399 16.6029C29.6399 16.6029 13.4797 7.76473 12.5017 7.24322C12.1338 7.02394 11.7209 6.95911 11.3516 7.02394L25.2744 20.9998V21Z" fill="#00EE76"/>
<path d="M25.2255 21.274L11.1448 7C10.5733 7.13365 10.0903 7.64461 10.0903 8.68919V33.9245C10.0903 34.8812 10.4641 35.5702 11.1664 35.6364L25.2252 21.2738L25.2255 21.274Z" fill="#00D3FF"/>
</g>
<defs>
<clipPath id="clip0_1_7846">
<rect width="140" height="42" fill="white"/>
</clipPath>
</defs>
</svg>
