<svg width="14" height="13" viewBox="0 0 14 13" fill="none" xmlns="http://www.w3.org/2000/svg">
<path d="M6.43326 0.630432C6.62004 0.0930963 7.37996 0.0930964 7.56674 0.630432L8.74383 4.01677C8.82623 4.25382 9.04744 4.41454 9.29834 4.41965L12.8827 4.4927C13.4514 4.50429 13.6863 5.22701 13.233 5.57069L10.3761 7.73661C10.1761 7.88823 10.0916 8.14828 10.1643 8.38848L11.2024 11.82C11.3672 12.3645 10.7524 12.8111 10.2854 12.4862L7.34271 10.4385C7.13672 10.2951 6.86328 10.2951 6.65729 10.4385L3.71456 12.4862C3.24762 12.8111 2.63283 12.3645 2.79756 11.82L3.83572 8.38848C3.90839 8.14828 3.82389 7.88823 3.62391 7.73661L0.767049 5.57069C0.31373 5.22701 0.548558 4.50429 1.11731 4.4927L4.70166 4.41965C4.95256 4.41454 5.17377 4.25382 5.25617 4.01677L6.43326 0.630432Z" fill="#F7C852"/>
</svg>
