<svg width="143" height="44" viewBox="0 0 143 44" fill="none" xmlns="http://www.w3.org/2000/svg">
<g clip-path="url(#clip0_1_7692)">
<path d="M0 5.86667C0 2.6266 2.53056 0 5.65217 0H137.348C140.469 0 143 2.6266 143 5.86667V38.1333C143 41.3734 140.469 44 137.348 44H5.65217C2.53056 44 0 41.3734 0 38.1333V5.86667Z" fill="white"/>
<path fill-rule="evenodd" clip-rule="evenodd" d="M0 38.1333V5.86667C0 2.6266 2.53056 0 5.65217 0H137.348C140.469 0 143 2.6266 143 5.86667V38.1333C143 41.3734 140.469 44 137.348 44H5.65217C2.53056 44 0 41.3734 0 38.1333ZM0.847826 38.1333V5.86667C0.847826 3.11261 2.99881 0.88 5.65217 0.88H137.348C140.001 0.88 142.152 3.11261 142.152 5.86667V38.1333C142.152 40.8874 140.001 43.12 137.348 43.12H5.65217C2.99881 43.12 0.847826 40.8874 0.847826 38.1333Z" fill="black" fill-opacity="0.1"/>
<path d="M60.0223 32.5443H57.9964L56.8867 28.8776H53.0294L51.9723 32.5443H50L53.8216 20.0612H56.1819L60.0223 32.5443ZM56.5522 27.3392L55.5486 24.0796C55.4424 23.7466 55.2435 22.9625 54.95 21.728H54.9143C54.7975 22.2589 54.6093 23.0431 54.3506 24.0796L53.3648 27.3392H56.5522Z" fill="black"/>
<path d="M69.85 27.9331C69.85 29.4639 69.4566 30.674 68.6698 31.5623C67.9651 32.353 67.09 32.7479 66.0454 32.7479C64.9178 32.7479 64.1079 32.3221 63.6145 31.4703H63.5789V36.212H61.677V26.5064C61.677 25.5439 61.6529 24.5562 61.6065 23.5432H63.2791L63.3853 24.9699H63.421C64.0552 23.8949 65.0178 23.3584 66.3095 23.3584C67.3193 23.3584 68.1623 23.7777 68.8366 24.6172C69.5128 25.4577 69.85 26.5626 69.85 27.9331ZM67.9125 28.0062C67.9125 27.1301 67.7251 26.4079 67.3487 25.8394C66.9375 25.2466 66.3853 24.9502 65.693 24.9502C65.2238 24.9502 64.7974 25.1153 64.4165 25.4408C64.0347 25.7691 63.7849 26.1977 63.6681 26.7287C63.6092 26.9763 63.5798 27.1789 63.5798 27.3384V28.8392C63.5798 29.4939 63.7707 30.0464 64.1525 30.4976C64.5343 30.9488 65.0302 31.1739 65.6404 31.1739C66.3567 31.1739 66.9143 30.8831 67.313 30.3034C67.7127 29.7228 67.9125 28.9574 67.9125 28.0062Z" fill="black"/>
<path d="M79.696 27.9331C79.696 29.4639 79.3026 30.674 78.5149 31.5623C77.8111 32.353 76.936 32.7479 75.8914 32.7479C74.7638 32.7479 73.9538 32.3221 73.4614 31.4703H73.4257V36.212H71.5238V26.5064C71.5238 25.5439 71.4998 24.5562 71.4534 23.5432H73.126L73.2321 24.9699H73.2678C73.9012 23.8949 74.8637 23.3584 76.1563 23.3584C77.1652 23.3584 78.0082 23.7777 78.6844 24.6172C79.3579 25.4577 79.696 26.5626 79.696 27.9331ZM77.7584 28.0062C77.7584 27.1301 77.5702 26.4079 77.1938 25.8394C76.7825 25.2466 76.2321 24.9502 75.539 24.9502C75.0689 24.9502 74.6434 25.1153 74.2616 25.4408C73.8798 25.7691 73.6309 26.1977 73.514 26.7287C73.456 26.9763 73.4257 27.1789 73.4257 27.3384V28.8392C73.4257 29.4939 73.6166 30.0464 73.9966 30.4976C74.3784 30.9479 74.8744 31.1739 75.4864 31.1739C76.2027 31.1739 76.7602 30.8831 77.159 30.3034C77.5586 29.7228 77.7584 28.9574 77.7584 28.0062Z" fill="black"/>
<path d="M90.7041 29.0438C90.7041 30.1056 90.3535 30.9695 89.6497 31.6365C88.8763 32.3653 87.7996 32.7292 86.416 32.7292C85.1386 32.7292 84.1145 32.4704 83.3393 31.9516L83.78 30.2848C84.6149 30.8157 85.5311 31.0821 86.5293 31.0821C87.2456 31.0821 87.8031 30.9114 88.2037 30.5718C88.6024 30.2322 88.8014 29.7764 88.8014 29.2079C88.8014 28.7014 88.6372 28.2746 88.308 27.9285C87.9807 27.5823 87.4338 27.2606 86.6702 26.9633C84.5917 26.1481 83.5534 24.954 83.5534 23.3838C83.5534 22.3576 83.9174 21.5162 84.6462 20.8615C85.3723 20.2058 86.3411 19.8784 87.5525 19.8784C88.6328 19.8784 89.5302 20.0763 90.2465 20.4712L89.771 22.1015C89.102 21.7188 88.3455 21.5275 87.499 21.5275C86.8299 21.5275 86.3072 21.701 85.9325 22.0462C85.6158 22.3548 85.457 22.7309 85.457 23.1765C85.457 23.6699 85.6381 24.0779 86.0021 24.3987C86.3188 24.6951 86.8941 25.0159 87.7291 25.3621C88.7505 25.7945 89.5007 26.3001 89.9833 26.8798C90.4642 27.4576 90.7041 28.1808 90.7041 29.0438Z" fill="black"/>
<path d="M96.9919 25.0442H94.8956V29.4144C94.8956 30.5259 95.2649 31.0812 96.0053 31.0812C96.3452 31.0812 96.6271 31.0503 96.8501 30.9884L96.9027 32.507C96.528 32.6543 96.0347 32.7284 95.4237 32.7284C94.6726 32.7284 94.0856 32.4873 93.6619 32.0061C93.2399 31.524 93.0276 30.7154 93.0276 29.5795V25.0423H91.7787V23.5415H93.0276V21.8934L94.8956 21.3005V23.5415H96.9919V25.0442Z" fill="black"/>
<path d="M106.45 27.9697C106.45 29.3532 106.074 30.4892 105.323 31.3775C104.535 32.292 103.49 32.7479 102.186 32.7479C100.93 32.7479 99.9305 32.3099 99.1847 31.4338C98.4389 30.5577 98.0661 29.4517 98.0661 28.1188C98.0661 26.724 98.4496 25.5815 99.2195 24.6932C99.9875 23.8039 101.024 23.3593 102.327 23.3593C103.583 23.3593 104.594 23.7974 105.357 24.6744C106.087 25.5252 106.45 26.6236 106.45 27.9697ZM104.477 28.0344C104.477 27.2042 104.309 26.4923 103.967 25.8985C103.568 25.18 102.998 24.8217 102.26 24.8217C101.495 24.8217 100.914 25.1809 100.516 25.8985C100.174 26.4932 100.005 27.2164 100.005 28.0719C100.005 28.9021 100.174 29.614 100.516 30.2068C100.927 30.9254 101.501 31.2837 102.243 31.2837C102.969 31.2837 103.539 30.9179 103.95 30.1881C104.301 29.5831 104.477 28.8636 104.477 28.0344Z" fill="black"/>
<path d="M112.632 25.3019C112.444 25.2654 112.243 25.2466 112.033 25.2466C111.364 25.2466 110.846 25.5121 110.482 26.0439C110.166 26.5129 110.007 27.1057 110.007 27.8215V32.5444H108.106L108.124 26.3778C108.124 25.3404 108.1 24.3958 108.052 23.5441H109.709L109.779 25.2663H109.831C110.032 24.6744 110.349 24.1979 110.782 23.8405C111.206 23.5188 111.664 23.3584 112.157 23.3584C112.333 23.3584 112.491 23.3715 112.632 23.395V25.3019Z" fill="black"/>
<path d="M121.138 27.618C121.138 27.9763 121.115 28.2783 121.068 28.525H115.362C115.385 29.4143 115.66 30.0943 116.19 30.5633C116.671 30.9826 117.293 31.1927 118.056 31.1927C118.901 31.1927 119.672 31.0511 120.365 30.7669L120.663 32.1552C119.853 32.5266 118.897 32.7114 117.793 32.7114C116.466 32.7114 115.424 32.3005 114.666 31.4798C113.909 30.659 113.53 29.5568 113.53 28.1742C113.53 26.8169 113.883 25.6866 114.588 24.7852C115.327 23.8227 116.325 23.3415 117.581 23.3415C118.815 23.3415 119.749 23.8227 120.383 24.7852C120.885 25.5496 121.138 26.4952 121.138 27.618ZM119.324 27.0992C119.337 26.5064 119.213 25.9943 118.955 25.5618C118.626 25.0056 118.12 24.7279 117.439 24.7279C116.817 24.7279 116.312 24.999 115.925 25.5431C115.609 25.9755 115.42 26.4942 115.362 27.0983H119.324V27.0992Z" fill="black"/>
<path d="M55.8493 12.0376C55.8493 13.414 55.4651 14.45 54.6977 15.1458C53.987 15.7877 52.9769 16.1093 51.6686 16.1093C51.0199 16.1093 50.4648 16.0789 50 16.0181V8.49804C50.6063 8.3928 51.2593 8.33901 51.9646 8.33901C53.2109 8.33901 54.1502 8.63017 54.7837 9.21251C55.4934 9.87085 55.8493 10.8122 55.8493 12.0376ZM54.6466 12.0716C54.6466 11.1793 54.4267 10.4953 53.987 10.0182C53.5472 9.54226 52.9051 9.30372 52.0593 9.30372C51.7002 9.30372 51.3943 9.32944 51.1407 9.38323V15.1002C51.2811 15.1235 51.538 15.1341 51.9113 15.1341C52.7842 15.1341 53.458 14.8733 53.9326 14.3518C54.4071 13.8302 54.6466 13.0702 54.6466 12.0716Z" fill="black"/>
<path d="M62.2266 13.2399C62.2266 14.0877 62.0013 14.7823 61.5507 15.3272C61.0783 15.8873 60.4524 16.1668 59.6709 16.1668C58.9177 16.1668 58.318 15.899 57.8706 15.3611C57.4244 14.8244 57.2012 14.1473 57.2012 13.3311C57.2012 12.4775 57.4309 11.7771 57.8924 11.2333C58.3539 10.6896 58.9743 10.4171 59.7558 10.4171C60.509 10.4171 61.1142 10.6849 61.5724 11.2216C62.0078 11.7432 62.2266 12.4167 62.2266 13.2399ZM61.0434 13.2797C61.0434 12.771 60.9411 12.3349 60.7376 11.9712C60.4981 11.5315 60.1574 11.3117 59.7145 11.3117C59.2562 11.3117 58.9079 11.5315 58.6685 11.9712C58.4638 12.3349 58.3626 12.778 58.3626 13.3019C58.3626 13.8106 58.4649 14.2467 58.6685 14.6104C58.9155 15.0501 59.2595 15.2699 59.7036 15.2699C60.1389 15.2699 60.4807 15.0466 60.7267 14.5987C60.9379 14.228 61.0434 13.7884 61.0434 13.2797Z" fill="black"/>
<path d="M70.7777 10.5293L69.1722 16.0416H68.1273L67.4623 13.648C67.2936 13.0504 67.1564 12.4564 67.0498 11.8671H67.0291C66.9301 12.4728 66.7929 13.0656 66.6166 13.648L65.9102 16.0416H64.8533L63.3436 10.5293H64.5159L65.096 13.1498C65.2364 13.7696 65.3518 14.3601 65.4443 14.919H65.465C65.5499 14.4583 65.6903 13.8713 65.8884 13.1615L66.6166 10.5305H67.5461L68.2438 13.1054C68.4125 13.7333 68.5497 14.3379 68.6552 14.9202H68.6868C68.7641 14.3531 68.8805 13.7485 69.0351 13.1054L69.6577 10.5305H70.7777V10.5293Z" fill="black"/>
<path d="M76.6908 16.0416H75.5501V12.8844C75.5501 11.9115 75.2062 11.4251 74.5161 11.4251C74.1776 11.4251 73.9044 11.5584 73.6922 11.8262C73.4821 12.0939 73.3754 12.4097 73.3754 12.771V16.0405H72.2347V12.1045C72.2347 11.6204 72.2206 11.0953 72.1934 10.527H73.1958L73.2492 11.3888H73.2807C73.4135 11.121 73.6116 10.9 73.8718 10.7235C74.1809 10.5177 74.527 10.4136 74.9058 10.4136C75.3847 10.4136 75.7831 10.5796 76.0998 10.9129C76.4938 11.321 76.6908 11.9302 76.6908 12.7394V16.0416Z" fill="black"/>
<path d="M79.8362 16.0416H78.6966V8H79.8362V16.0416Z" fill="black"/>
<path d="M86.5519 13.2399C86.5519 14.0877 86.3266 14.7823 85.876 15.3272C85.4036 15.8873 84.7767 16.1668 83.9963 16.1668C83.242 16.1668 82.6422 15.899 82.196 15.3611C81.7497 14.8244 81.5266 14.1473 81.5266 13.3311C81.5266 12.4775 81.7563 11.7771 82.2178 11.2333C82.6793 10.6896 83.2997 10.4171 84.0801 10.4171C84.8344 10.4171 85.4385 10.6849 85.8978 11.2216C86.3332 11.7432 86.5519 12.4167 86.5519 13.2399ZM85.3677 13.2797C85.3677 12.771 85.2654 12.3349 85.0619 11.9712C84.8235 11.5315 84.4817 11.3117 84.0398 11.3117C83.5805 11.3117 83.2322 11.5315 82.9938 11.9712C82.7892 12.3349 82.688 12.778 82.688 13.3019C82.688 13.8106 82.7903 14.2467 82.9938 14.6104C83.2409 15.0501 83.5848 15.2699 84.0289 15.2699C84.4643 15.2699 84.805 15.0466 85.051 14.5987C85.2632 14.228 85.3677 13.7884 85.3677 13.2797Z" fill="black"/>
<path d="M92.0726 16.0417H91.0484L90.9635 15.4067H90.9319C90.5814 15.9131 90.0818 16.1668 89.4331 16.1668C88.9488 16.1668 88.5569 15.9996 88.262 15.6675C87.9942 15.3658 87.8603 14.9904 87.8603 14.5449C87.8603 13.8714 88.1215 13.358 88.6473 13.0026C89.1719 12.6471 89.9099 12.4728 90.8601 12.481V12.3781C90.8601 11.652 90.5052 11.2895 89.7945 11.2895C89.2884 11.2895 88.8421 11.4263 88.4568 11.6976L88.2249 10.8931C88.7017 10.5762 89.2905 10.4171 89.985 10.4171C91.3259 10.4171 91.9986 11.1772 91.9986 12.6974V14.7273C91.9986 15.2781 92.0236 15.7166 92.0726 16.0417ZM90.8884 14.1473V13.2972C89.6301 13.2738 89.001 13.6445 89.001 14.4081C89.001 14.6958 89.0728 14.9109 89.2198 15.0548C89.3667 15.1986 89.5539 15.2699 89.7771 15.2699C90.0274 15.2699 90.2614 15.1845 90.4748 15.015C90.6892 14.8443 90.8209 14.6279 90.8699 14.3625C90.8818 14.3029 90.8884 14.2304 90.8884 14.1473Z" fill="black"/>
<path d="M98.5541 16.0416H97.5419L97.4886 15.1564H97.457C97.1337 15.8299 96.583 16.1667 95.8091 16.1667C95.1909 16.1667 94.676 15.9059 94.2679 15.3844C93.8597 14.8629 93.6562 14.1858 93.6562 13.3544C93.6562 12.4622 93.8771 11.7396 94.3212 11.1876C94.7511 10.6731 95.2779 10.4159 95.9049 10.4159C96.5939 10.4159 97.076 10.6649 97.3503 11.1642H97.3721V8H98.5139V14.5565C98.5139 15.0932 98.5269 15.5879 98.5541 16.0416ZM97.3721 13.7169V12.7978C97.3721 12.6388 97.3612 12.5102 97.3405 12.4119C97.2763 12.1173 97.1381 11.8694 96.928 11.6694C96.7158 11.4694 96.46 11.3689 96.165 11.3689C95.7394 11.3689 95.4064 11.5501 95.1615 11.9138C94.9187 12.2775 94.7958 12.7417 94.7958 13.3088C94.7958 13.8537 94.9122 14.2958 95.1462 14.636C95.3933 14.9985 95.7264 15.1798 96.1432 15.1798C96.5177 15.1798 96.817 15.0289 97.0445 14.7261C97.2643 14.4466 97.3721 14.1098 97.3721 13.7169Z" fill="black"/>
<path d="M108.31 13.2399C108.31 14.0877 108.085 14.7823 107.634 15.3272C107.162 15.8873 106.537 16.1668 105.755 16.1668C105.003 16.1668 104.403 15.899 103.954 15.3611C103.508 14.8244 103.285 14.1473 103.285 13.3311C103.285 12.4775 103.515 11.7771 103.976 11.2333C104.438 10.6896 105.058 10.4171 105.841 10.4171C106.593 10.4171 107.199 10.6849 107.656 11.2216C108.092 11.7432 108.31 12.4167 108.31 13.2399ZM107.128 13.2797C107.128 12.771 107.026 12.3349 106.822 11.9712C106.582 11.5315 106.242 11.3117 105.798 11.3117C105.341 11.3117 104.993 11.5315 104.752 11.9712C104.548 12.3349 104.446 12.778 104.446 13.3019C104.446 13.8106 104.549 14.2467 104.752 14.6104C104.999 15.0501 105.343 15.2699 105.787 15.2699C106.223 15.2699 106.566 15.0466 106.812 14.5987C107.022 14.228 107.128 13.7884 107.128 13.2797Z" fill="black"/>
<path d="M114.443 16.0416H113.304V12.8844C113.304 11.9115 112.96 11.4251 112.269 11.4251C111.93 11.4251 111.657 11.5584 111.446 11.8262C111.235 12.0939 111.129 12.4097 111.129 12.771V16.0405H109.987V12.1045C109.987 11.6204 109.974 11.0953 109.947 10.527H110.948L111.002 11.3888H111.033C111.167 11.121 111.365 10.9 111.624 10.7235C111.935 10.5177 112.28 10.4136 112.659 10.4136C113.137 10.4136 113.536 10.5796 113.852 10.9129C114.247 11.321 114.443 11.9302 114.443 12.7394V16.0416Z" fill="black"/>
<path d="M122.12 11.4473H120.864V14.1251C120.864 14.8057 121.087 15.1459 121.529 15.1459C121.734 15.1459 121.903 15.1272 122.037 15.0886L122.067 16.0183C121.841 16.1095 121.545 16.1551 121.181 16.1551C120.73 16.1551 120.38 16.0078 120.126 15.7131C119.871 15.4184 119.745 14.9226 119.745 14.2268V11.4473H118.995V10.5294H119.745V9.51906L120.863 9.15656V10.5282H122.119V11.4473H122.12Z" fill="black"/>
<path d="M128.159 16.0416H127.017V12.9077C127.017 11.9196 126.673 11.425 125.984 11.425C125.455 11.425 125.094 11.7115 124.896 12.2845C124.862 12.4049 124.842 12.5523 124.842 12.7253V16.0404H123.703V8H124.842V11.3221H124.864C125.223 10.7176 125.738 10.4159 126.405 10.4159C126.878 10.4159 127.269 10.5819 127.579 10.9152C127.965 11.3303 128.159 11.9477 128.159 12.7639V16.0416Z" fill="black"/>
<path d="M134.389 13.0247C134.389 13.2445 134.373 13.4293 134.346 13.5801H130.925C130.94 14.125 131.104 14.5401 131.42 14.8278C131.71 15.0851 132.083 15.2137 132.541 15.2137C133.047 15.2137 133.508 15.1272 133.924 14.9529L134.102 15.8042C133.616 16.0311 133.043 16.1445 132.38 16.1445C131.586 16.1445 130.96 15.8931 130.507 15.3903C130.052 14.8874 129.827 14.2127 129.827 13.3661C129.827 12.5347 130.037 11.8425 130.46 11.2905C130.902 10.7012 131.5 10.4065 132.254 10.4065C132.992 10.4065 133.553 10.7012 133.932 11.2905C134.237 11.7583 134.389 12.3371 134.389 13.0247ZM133.3 12.7078C133.309 12.3441 133.234 12.0307 133.079 11.7665C132.881 11.4262 132.58 11.2555 132.172 11.2555C131.799 11.2555 131.496 11.4215 131.264 11.7548C131.074 12.0202 130.962 12.3371 130.925 12.7078H133.3Z" fill="black"/>
<path d="M32.1033 22.5478C32.0893 20.0288 33.1699 18.1304 35.3521 16.7306C34.1316 14.8838 32.2852 13.8681 29.8512 13.6724C27.5466 13.4803 25.0253 15.0907 24.102 15.0907C23.1264 15.0907 20.8952 13.7389 19.1397 13.7389C15.5168 13.7979 11.6665 16.7896 11.6665 22.8765C11.6665 24.6752 11.9777 26.533 12.6002 28.4462C13.4325 30.9651 16.433 37.1369 19.5629 37.0372C21.1995 36.9966 22.357 35.811 24.4867 35.811C26.5535 35.811 27.6236 37.0372 29.449 37.0372C32.6069 36.9892 35.3206 31.3788 36.1109 28.8525C31.876 26.7435 32.1033 22.677 32.1033 22.5478ZM28.4279 11.2827C30.2009 9.05924 30.0401 7.03523 29.9876 6.30762C28.4209 6.40365 26.6094 7.43412 25.5778 8.70098C24.4413 10.0602 23.7733 11.7407 23.9167 13.6354C25.6093 13.7721 27.155 12.8524 28.4279 11.2827Z" fill="black"/>
</g>
<defs>
<clipPath id="clip0_1_7692">
<rect width="143" height="44" fill="white"/>
</clipPath>
</defs>
</svg>
