<svg width="30" height="31" viewBox="0 0 30 31" fill="none" xmlns="http://www.w3.org/2000/svg">
<path d="M15 30.5C23.2843 30.5 30 23.7843 30 15.5C30 7.21573 23.2843 0.5 15 0.5C6.71573 0.5 0 7.21573 0 15.5C0 23.7843 6.71573 30.5 15 30.5Z" fill="#767DFF"/>
<path fill-rule="evenodd" clip-rule="evenodd" d="M12.9095 6.59375H17.0908C17.2356 6.59368 17.3779 6.6322 17.503 6.70536C17.6281 6.77852 17.7314 6.88367 17.8023 7.01L24.2767 18.5591C24.3449 18.6808 24.3806 18.818 24.3806 18.9575C24.3806 19.097 24.3449 19.2342 24.2767 19.3559L22.2048 23.0516C22.1341 23.1779 22.031 23.2832 21.9061 23.3565C21.7812 23.4298 21.639 23.4686 21.4942 23.4688H8.50607C8.36109 23.4687 8.21874 23.4301 8.09367 23.3567C7.9686 23.2834 7.86533 23.1781 7.79451 23.0516L5.72357 19.3559C5.65542 19.2342 5.61963 19.097 5.61963 18.9575C5.61963 18.818 5.65542 18.6808 5.72357 18.5591L12.1979 7.01C12.2689 6.88367 12.3722 6.77852 12.4973 6.70536C12.6223 6.6322 12.7646 6.59368 12.9095 6.59375ZM15.0001 11.1884L10.6379 18.9575H19.3623L15.0001 11.1884Z" fill="white"/>
</svg>
