<svg width="30" height="31" viewBox="0 0 30 31" fill="none" xmlns="http://www.w3.org/2000/svg">
<circle cx="15" cy="15.5" r="15" fill="#FF8401"/>
<path d="M18.7812 14.832C19.6693 14.3417 20.2249 13.4783 20.0951 12.0398C19.9203 10.0741 18.3541 9.4149 16.3769 9.22718L16.3765 6.50049H14.8446L14.8441 9.15547C14.4411 9.15547 14.0302 9.16405 13.6212 9.17294L13.6209 6.50085L12.0903 6.5007L12.09 9.22671C11.7583 9.23405 11.4326 9.24103 11.1145 9.24103V9.23297L9.00146 9.23204L9.00175 11.0044C9.00175 11.0044 10.1331 10.9813 10.1144 11.0037C10.7347 11.0042 10.9372 11.3945 10.9955 11.7315L10.9959 14.8377V19.201C10.9686 19.4125 10.8537 19.7503 10.42 19.7509C10.4397 19.7698 9.30562 19.7507 9.30562 19.7507L9.00175 21.7326H10.995C11.3664 21.7331 11.7313 21.7394 12.0894 21.7425L12.0907 24.5L13.6209 24.5005L13.6204 21.7718C14.0414 21.7811 14.4478 21.7852 14.8447 21.7846L14.8442 24.5005H16.3761L16.377 21.7475C18.952 21.5873 20.7547 20.8843 20.9788 18.2638C21.1595 16.1539 20.2432 15.2122 18.7812 14.832ZM13.6578 11.124C14.5218 11.124 17.239 10.8259 17.2394 12.7817C17.239 14.6568 14.5226 14.4378 13.6578 14.4378V11.124ZM13.6571 19.7644L13.6578 16.1107C14.6959 16.1104 17.9518 15.787 17.9522 17.9367C17.9526 19.9983 14.6959 19.7636 13.6571 19.7644Z" fill="white"/>
</svg>
