<svg width="30" height="31" viewBox="0 0 30 31" fill="none" xmlns="http://www.w3.org/2000/svg">
<path d="M15 30.5C23.2843 30.5 30 23.7843 30 15.5C30 7.21573 23.2843 0.5 15 0.5C6.71573 0.5 0 7.21573 0 15.5C0 23.7843 6.71573 30.5 15 30.5Z" fill="black"/>
<path fill-rule="evenodd" clip-rule="evenodd" d="M16.3007 21.5246V25.0312C16.3007 25.5105 15.9123 25.8987 15.4331 25.8987C15.2695 25.8987 15.1117 25.8562 14.9721 25.7713L7.68618 21.3122C7.17044 20.9968 6.85498 20.4326 6.85498 19.8259V16.4467C6.85498 16.0464 7.18259 15.7188 7.58279 15.7188C7.71018 15.7188 7.83784 15.7552 7.94687 15.822L15.5788 20.2688C16.0279 20.5296 16.3007 21.0089 16.3007 21.5246Z" fill="#01D494"/>
<path fill-rule="evenodd" clip-rule="evenodd" d="M19.7828 16.1494V23.2596C19.7828 23.472 19.6737 23.6662 19.4919 23.7632L17.8173 24.7035C17.7993 24.7157 17.775 24.7278 17.7507 24.7339V20.7845C17.7507 20.2748 17.4837 19.8016 17.0409 19.5347L10.3433 15.5246V11.0717C10.3433 10.6712 10.6709 10.3438 11.0711 10.3438C11.1985 10.3438 11.3261 10.38 11.4352 10.4408L19.0612 14.8937C19.51 15.1546 19.7828 15.6339 19.7828 16.1494Z" fill="#01D494"/>
<path fill-rule="evenodd" clip-rule="evenodd" d="M23.1254 21.2877C23.1254 21.5001 23.0102 21.6943 22.8221 21.7974L21.2387 22.6527V15.4213C21.2387 14.9056 20.9718 14.4386 20.5349 14.1715L13.6797 10.0644V5.8359C13.6797 5.70852 13.7158 5.58113 13.7765 5.47199C13.983 5.12614 14.4259 5.00483 14.7716 5.2051L22.4035 9.63972C22.8526 9.90053 23.1254 10.3799 23.1254 10.8956V21.2877Z" fill="#01D494"/>
</svg>
