<svg width="30" height="31" viewBox="0 0 30 31" fill="none" xmlns="http://www.w3.org/2000/svg">
<path d="M15 30.5C23.2843 30.5 30 23.7843 30 15.5C30 7.21573 23.2843 0.5 15 0.5C6.71573 0.5 0 7.21573 0 15.5C0 23.7843 6.71573 30.5 15 30.5Z" fill="#13B5EC"/>
<path fill-rule="evenodd" clip-rule="evenodd" d="M16.125 12.5937L19.5 10.625V14.5625L16.125 12.5937ZM19.5 21.0312L15 23.6562L10.5 21.0312V16.4375L15 19.0625L19.5 16.4375V21.0312ZM10.5 10.625L13.875 12.5937L10.5 14.5625V10.625ZM15.5625 13.5312L18.9375 15.5L15.5625 17.4688V13.5312ZM14.4375 17.4688L11.0625 15.5L14.4375 13.5312V17.4688ZM18.9375 9.6875L15 11.9375L11.0625 9.6875L15 7.34375L18.9375 9.6875ZM9.375 9.3125V21.5938L15 24.7812L20.625 21.5938V9.3125L15 6.125L9.375 9.3125Z" fill="white"/>
</svg>
