<svg width="30" height="31" viewBox="0 0 30 31" fill="none" xmlns="http://www.w3.org/2000/svg">
<path d="M15 30.5C23.2843 30.5 30 23.7843 30 15.5C30 7.21573 23.2843 0.5 15 0.5C6.71573 0.5 0 7.21573 0 15.5C0 23.7843 6.71573 30.5 15 30.5Z" fill="#008DDE"/>
<path d="M22.5271 16.743C22.6187 16.7464 22.71 16.7313 22.7956 16.6986C22.8812 16.6659 22.9593 16.6163 23.0253 16.5527C23.0913 16.4891 23.1438 16.4129 23.1796 16.3286C23.2155 16.2443 23.2339 16.1536 23.2339 16.0619C23.2339 15.9703 23.2155 15.8796 23.1796 15.7953C23.1438 15.711 23.0913 15.6347 23.0253 15.5711C22.9593 15.5076 22.8812 15.4579 22.7956 15.4252C22.71 15.3925 22.6187 15.3774 22.5271 15.3808H20.9708V13.8415H24.2249C24.3165 13.8449 24.4078 13.8298 24.4934 13.7971C24.579 13.7644 24.6571 13.7147 24.7231 13.6512C24.7891 13.5876 24.8416 13.5113 24.8774 13.427C24.9133 13.3427 24.9317 13.252 24.9317 13.1604C24.9317 13.0687 24.9133 12.978 24.8774 12.8937C24.8416 12.8094 24.7891 12.7332 24.7231 12.6696C24.6571 12.606 24.579 12.5564 24.4934 12.5237C24.4078 12.491 24.3165 12.4759 24.2249 12.4793H20.9577C20.8917 11.7499 20.586 11.063 20.0884 10.5257C19.5908 9.98837 18.9292 9.63097 18.2071 9.50928V7.86959C18.2105 7.77802 18.1954 7.68671 18.1627 7.60111C18.13 7.51551 18.0804 7.43738 18.0168 7.3714C17.9532 7.30542 17.877 7.25293 17.7926 7.21708C17.7083 7.18123 17.6176 7.16275 17.526 7.16275C17.4344 7.16275 17.3437 7.18123 17.2593 7.21708C17.175 7.25293 17.0988 7.30542 17.0352 7.3714C16.9716 7.43738 16.922 7.51551 16.8893 7.60111C16.8566 7.68671 16.8415 7.77802 16.8449 7.86959V9.46334H15.3055V5.88115C15.3089 5.78958 15.2938 5.69827 15.2611 5.61267C15.2284 5.52707 15.1788 5.44895 15.1152 5.38296C15.0516 5.31698 14.9754 5.26449 14.8911 5.22864C14.8068 5.19279 14.7161 5.17432 14.6244 5.17432C14.5328 5.17432 14.4421 5.19279 14.3578 5.22864C14.2735 5.26449 14.1972 5.31698 14.1336 5.38296C14.0701 5.44895 14.0204 5.52707 13.9877 5.61267C13.955 5.69827 13.9399 5.78958 13.9433 5.88115V9.4624H12.403V7.86865C12.3965 7.69239 12.3219 7.52552 12.1949 7.40313C12.0678 7.28075 11.8983 7.21236 11.7219 7.21236C11.5455 7.21236 11.376 7.28075 11.249 7.40313C11.122 7.52552 11.0474 7.69239 11.0408 7.86865V9.50928C10.3187 9.63097 9.65716 9.98837 9.15955 10.5257C8.66194 11.063 8.35625 11.7499 8.29022 12.4793H4.44365C4.35208 12.4759 4.26077 12.491 4.17517 12.5237C4.08957 12.5564 4.01144 12.606 3.94546 12.6696C3.87948 12.7332 3.82699 12.8094 3.79114 12.8937C3.75529 12.978 3.73682 13.0687 3.73682 13.1604C3.73682 13.252 3.75529 13.3427 3.79114 13.427C3.82699 13.5113 3.87948 13.5876 3.94546 13.6512C4.01144 13.7147 4.08957 13.7644 4.17517 13.7971C4.26077 13.8298 4.35208 13.8449 4.44365 13.8415H8.27803V15.3808H6.72178C6.63021 15.3774 6.5389 15.3925 6.4533 15.4252C6.3677 15.4579 6.28957 15.5076 6.22359 15.5711C6.1576 15.6347 6.10512 15.711 6.06927 15.7953C6.03342 15.8796 6.01494 15.9703 6.01494 16.0619C6.01494 16.1536 6.03342 16.2443 6.06927 16.3286C6.10512 16.4129 6.1576 16.4891 6.22359 16.5527C6.28957 16.6163 6.3677 16.6659 6.4533 16.6986C6.5389 16.7313 6.63021 16.7464 6.72178 16.743H8.27803V18.2824H5.31271C5.22115 18.279 5.12983 18.2941 5.04423 18.3268C4.95863 18.3595 4.88051 18.4091 4.81452 18.4727C4.74854 18.5363 4.69605 18.6125 4.66021 18.6968C4.62436 18.7812 4.60588 18.8719 4.60588 18.9635C4.60588 19.0551 4.62436 19.1458 4.66021 19.2301C4.69605 19.3145 4.74854 19.3907 4.81452 19.4543C4.88051 19.5179 4.95863 19.5675 5.04423 19.6002C5.12983 19.6329 5.22115 19.648 5.31271 19.6446H8.29022C8.35625 20.3739 8.66194 21.0609 9.15955 21.5982C9.65716 22.1355 10.3187 22.4929 11.0408 22.6146V23.674C11.0374 23.7655 11.0525 23.8568 11.0852 23.9424C11.1179 24.028 11.1676 24.1062 11.2311 24.1722C11.2947 24.2381 11.371 24.2906 11.4553 24.3265C11.5396 24.3623 11.6303 24.3808 11.7219 24.3808C11.8136 24.3808 11.9043 24.3623 11.9886 24.3265C12.0729 24.2906 12.1491 24.2381 12.2127 24.1722C12.2763 24.1062 12.3259 24.028 12.3586 23.9424C12.3913 23.8568 12.4064 23.7655 12.403 23.674V22.6605H13.9424V25.7458C13.9489 25.9221 14.0236 26.089 14.1506 26.2114C14.2776 26.3337 14.4471 26.4021 14.6235 26.4021C14.7999 26.4021 14.9694 26.3337 15.0964 26.2114C15.2234 26.089 15.298 25.9221 15.3046 25.7458V22.6605H16.844V24.2543C16.8406 24.3458 16.8557 24.4372 16.8884 24.5228C16.9211 24.6084 16.9707 24.6865 17.0343 24.7525C17.0978 24.8185 17.1741 24.8709 17.2584 24.9068C17.3427 24.9426 17.4334 24.9611 17.5251 24.9611C17.6167 24.9611 17.7074 24.9426 17.7917 24.9068C17.876 24.8709 17.9523 24.8185 18.0159 24.7525C18.0794 24.6865 18.1291 24.6084 18.1618 24.5228C18.1944 24.4372 18.2096 24.3458 18.2062 24.2543V22.6155C18.9283 22.4938 19.5898 22.1364 20.0874 21.5991C20.5851 21.0618 20.8907 20.3749 20.9568 19.6455H25.4671C25.5587 19.6489 25.65 19.6338 25.7356 19.6011C25.8212 19.5684 25.8993 19.5188 25.9653 19.4552C26.0313 19.3916 26.0837 19.3154 26.1196 19.2311C26.1554 19.1468 26.1739 19.0561 26.1739 18.9644C26.1739 18.8728 26.1554 18.7821 26.1196 18.6978C26.0837 18.6135 26.0313 18.5372 25.9653 18.4736C25.8993 18.4101 25.8212 18.3604 25.7356 18.3277C25.65 18.295 25.5587 18.2799 25.4671 18.2833H20.9718V16.744H22.5271V16.743ZM19.8833 19.3512C19.8828 19.9403 19.6486 20.5051 19.232 20.9217C18.8154 21.3383 18.2506 21.5725 17.6615 21.573H11.5865C10.9973 21.5725 10.4325 21.3383 10.0159 20.9217C9.59934 20.5051 9.36509 19.9403 9.36459 19.3512V12.7718C9.36509 12.1827 9.59934 11.6178 10.0159 11.2012C10.4325 10.7846 10.9973 10.5504 11.5865 10.5499H17.6615C18.2506 10.5504 18.8154 10.7846 19.232 11.2012C19.6486 11.6178 19.8828 12.1827 19.8833 12.7718V19.3502V19.3512Z" fill="white"/>
<path d="M13.0324 12.1577C12.7693 12.1535 12.5062 12.1626 12.244 12.1849C11.8296 12.2318 11.5249 12.6068 11.5118 13.0137C11.4912 13.9362 11.5081 14.8606 11.5024 15.7831C11.5156 16.2537 11.4706 16.7299 11.5399 17.1959C11.6065 17.6121 12.0134 17.8802 12.4174 17.8793C13.6737 17.8877 14.9299 17.8821 16.1862 17.8831V18.4034H12.1409L11.6206 19.9643H15.6462C16.1168 19.9512 16.5921 19.9962 17.059 19.9277C17.4752 19.8612 17.7424 19.4543 17.7415 19.0502C17.7509 17.4068 17.7434 15.7634 17.7462 14.119C17.7312 13.6784 17.7846 13.2293 17.6956 12.7943C17.6009 12.3509 17.1256 12.1324 16.7056 12.1596H13.8218C13.5593 12.1643 13.2949 12.1587 13.0315 12.1568L13.0324 12.1577ZM13.0634 13.7206H16.1852V16.3221H13.0634V13.7206Z" fill="white"/>
</svg>
