<svg width="30" height="31" viewBox="0 0 30 31" fill="none" xmlns="http://www.w3.org/2000/svg">
<path d="M15 30.5C23.2843 30.5 30 23.7843 30 15.5C30 7.21573 23.2843 0.5 15 0.5C6.71573 0.5 0 7.21573 0 15.5C0 23.7843 6.71573 30.5 15 30.5Z" fill="#DF1A14"/>
<path d="M13.931 11.3066C14.2188 11.2156 14.546 11.3778 14.6651 11.661C14.9529 12.3191 15.2107 12.9969 15.5088 13.6541C15.687 14.0488 16.2935 14.0994 16.5307 13.7356C16.9282 13.0775 17.246 12.3791 17.6332 11.7106C17.951 11.2963 18.5266 11.4988 18.9635 11.4585C19.4201 11.4285 19.7576 12.005 19.4988 12.3997C18.2482 14.7369 16.9882 17.0647 15.7376 19.4028C15.5285 19.8275 14.8441 19.8275 14.6557 19.3822C14.3773 18.7044 14.1588 17.9956 13.8907 17.3178C13.7313 16.8725 13.047 16.8022 12.8191 17.2269C12.432 17.9253 12.0945 18.6538 11.7073 19.3419C11.5188 19.655 11.1213 19.6044 10.8138 19.6044C10.5157 19.5847 10.1585 19.6756 9.9307 19.4225C9.8309 19.3192 9.76798 19.1858 9.75171 19.0431C9.73544 18.9004 9.76672 18.7563 9.8407 18.6331C11.0126 16.4169 12.2032 14.1913 13.3751 11.9544C13.5138 11.7013 13.6329 11.3872 13.931 11.3075V11.3066ZM9.8407 11.4791C10.1879 11.4588 10.536 11.4588 10.8832 11.4791C11.2704 11.5194 11.5188 12.0153 11.3304 12.3697C10.1679 14.5653 8.99695 16.7506 7.83633 18.9369C7.69664 19.1806 7.58789 19.5041 7.28976 19.5838C6.94289 19.6353 6.5857 19.6053 6.23789 19.6053C5.81133 19.625 5.45414 19.0681 5.71195 18.6941C6.9232 16.4272 8.13351 14.15 9.34476 11.8738C9.44414 11.6816 9.61289 11.4894 9.84164 11.4791H9.8407ZM22.1595 11.4988C22.5363 11.3872 22.9338 11.4688 23.321 11.4378C23.6182 11.4481 23.996 11.3872 24.2145 11.6506C24.4826 11.9244 24.402 12.44 24.0645 12.6125C23.3801 13.0475 22.7051 13.5125 22.0113 13.9381C21.5735 14.241 20.9285 13.7253 21.117 13.2191C21.2857 12.8141 21.5238 12.441 21.7132 12.0453C21.822 11.8428 21.9213 11.5803 22.1595 11.4988ZM18.8735 17.5503C19.0723 17.4285 19.3207 17.4697 19.5091 17.571C20.0351 17.8335 20.561 18.1175 21.0973 18.3706C21.326 18.4719 21.5641 18.6641 21.5735 18.9369C21.6138 19.3016 21.3054 19.655 20.9482 19.625C20.1841 19.625 19.4201 19.6344 18.6654 19.625C18.2885 19.625 17.9904 19.1797 18.1291 18.816C18.2285 18.5525 18.3776 18.3191 18.4966 18.066C18.5857 17.8747 18.6748 17.6413 18.8735 17.5503Z" fill="white"/>
</svg>
