<svg width="30" height="31" viewBox="0 0 30 31" fill="none" xmlns="http://www.w3.org/2000/svg">
<path d="M15 0.5C12.0333 0.5 9.13319 1.37973 6.66645 3.02796C4.19972 4.67618 2.27713 7.01886 1.14181 9.75975C0.00649917 12.5006 -0.290551 15.5166 0.288228 18.4264C0.867006 21.3361 2.29562 24.0088 4.3934 26.1066C6.49119 28.2044 9.16394 29.633 12.0737 30.2118C14.9834 30.7906 17.9994 30.4935 20.7403 29.3582C23.4811 28.2229 25.8238 26.3003 27.472 23.8336C29.1203 21.3668 30 18.4667 30 15.5C30.0057 13.5359 29.6245 11.5899 28.8782 9.7731C28.1319 7.95631 27.035 6.30431 25.6502 4.91143C24.2654 3.51855 22.6198 2.41207 20.8074 1.65515C18.995 0.898236 17.0513 0.505715 15.0872 0.5H15ZM15.2542 16.0085L13.6925 21.2748H22.046C22.1013 21.2729 22.1565 21.2819 22.2084 21.3013C22.2602 21.3207 22.3078 21.3501 22.3482 21.3879C22.3887 21.4256 22.4214 21.471 22.4443 21.5214C22.4672 21.5718 22.48 21.6263 22.4818 21.6816V21.8196L21.7555 24.3257C21.7234 24.4442 21.6521 24.5483 21.5531 24.6209C21.4541 24.6935 21.3333 24.7303 21.2107 24.7252H8.42616L10.569 17.4249L8.17192 18.1513L8.71671 16.4806L11.1138 15.7542L14.1283 5.51211C14.1615 5.39426 14.2332 5.2909 14.3319 5.2185C14.4306 5.1461 14.5508 5.10882 14.6731 5.11259H17.9056C17.9609 5.11065 18.0161 5.11964 18.0679 5.13903C18.1198 5.15843 18.1673 5.18786 18.2078 5.22564C18.2483 5.26342 18.2809 5.30881 18.3038 5.35921C18.3268 5.40961 18.3395 5.46403 18.3414 5.51937V5.65738L15.799 14.3015L18.1961 13.5751L17.6877 15.3184L15.2542 16.0085Z" fill="#345D9D"/>
</svg>
