<svg width="30" height="31" viewBox="0 0 30 31" fill="none" xmlns="http://www.w3.org/2000/svg">
<path d="M15 30.5C23.2843 30.5 30 23.7843 30 15.5C30 7.21573 23.2843 0.5 15 0.5C6.71573 0.5 0 7.21573 0 15.5C0 23.7843 6.71573 30.5 15 30.5Z" fill="#F80000"/>
<path d="M19.2188 16.2894L12.9412 24.875L13.1728 17.8991H11.7188L12.3131 11.7753L18.9544 10.8603L16.7738 16.415L19.2188 16.2894ZM14.0644 22.3813V20.7406C14.0644 20.6188 13.9612 20.5194 13.8337 20.5194C13.7062 20.5194 13.6022 20.6178 13.6022 20.7397V22.3813C13.6022 22.5031 13.7053 22.6025 13.8337 22.6025C13.9622 22.6025 14.0644 22.5031 14.0644 22.3813ZM12.3469 17.4256H13.6687L13.6078 19.9503C13.6069 20.0169 13.6331 20.0816 13.6819 20.1284C13.7306 20.1753 13.7972 20.2034 13.8666 20.2034H13.8778C13.9438 20.2047 14.0078 20.1802 14.0559 20.135C14.1041 20.0898 14.1327 20.0275 14.1356 19.9616L14.1966 16.9831H12.8747L13.3181 12.0903C13.3228 12.0341 13.3031 11.9778 13.2628 11.9356C13.2225 11.8934 13.1662 11.87 13.1062 11.87H13.0687C13.0168 11.8689 12.9663 11.8873 12.9271 11.9214C12.888 11.9556 12.8629 12.0031 12.8569 12.0547L12.3469 17.4256ZM12.3469 11.2381L14.7919 9.21875C14.9231 7.19844 13.6013 6.8825 13.6013 6.8825L13.8 6.125C15.9806 6.75594 15.6506 9.155 15.6506 9.155L18.8222 10.4806L12.3469 11.2381Z" fill="white"/>
</svg>
