<svg width="30" height="31" viewBox="0 0 30 31" fill="none" xmlns="http://www.w3.org/2000/svg">
<path d="M15 0.5C23.283 0.5 30 7.217 30 15.5C30 23.783 23.283 30.5 15 30.5C6.717 30.5 0 23.783 0 15.5C0 7.217 6.717 0.5 15 0.5Z" fill="black"/>
<path fill-rule="evenodd" clip-rule="evenodd" d="M6.93615 14.0689H20.8172C20.9911 14.0689 21.1561 14.1379 21.2761 14.2609L23.4722 16.4719C23.8772 16.8799 23.5891 17.5759 23.0131 17.5759H9.13215C8.95815 17.5759 8.79315 17.5069 8.67315 17.3839L6.47715 15.1729C6.06915 14.7649 6.36015 14.0689 6.93615 14.0689ZM6.47715 11.1379L8.67315 8.92686C8.79615 8.80386 8.96115 8.73486 9.13215 8.73486H23.0102C23.5862 8.73486 23.8771 9.43086 23.4691 9.83886L21.2761 12.0499C21.1531 12.1729 20.9881 12.2419 20.8172 12.2419H6.93615C6.36015 12.2419 6.06915 11.5459 6.47715 11.1379ZM23.4691 20.5069L21.2731 22.7179C21.1501 22.8409 20.9851 22.9099 20.8141 22.9099H6.93615C6.36015 22.9099 6.06915 22.2139 6.47715 21.8059L8.67315 19.5949C8.79615 19.4719 8.96115 19.4029 9.13215 19.4029H23.0102C23.5862 19.4029 23.8771 20.0989 23.4691 20.5069Z" fill="url(#paint0_linear_615_2238)"/>
<defs>
<linearGradient id="paint0_linear_615_2238" x1="7.27574" y1="23.5198" x2="22.6706" y2="8.12495" gradientUnits="userSpaceOnUse">
<stop stop-color="#CB4EE8"/>
<stop offset="1" stop-color="#10F4B1"/>
</linearGradient>
</defs>
</svg>
