<svg width="30" height="31" viewBox="0 0 30 31" fill="none" xmlns="http://www.w3.org/2000/svg">
<path d="M15 30.5C23.2843 30.5 30 23.7843 30 15.5C30 7.21573 23.2843 0.5 15 0.5C6.71573 0.5 0 7.21573 0 15.5C0 23.7843 6.71573 30.5 15 30.5Z" fill="#5B6DEE"/>
<path d="M12.469 14.5818C11.946 14.5789 11.4239 14.6238 10.909 14.7161C11.3328 10.7969 14.5991 7.82929 18.4876 7.82959C20.8686 7.82959 22.5 8.99539 22.5 11.4092C22.5 13.823 20.5419 14.9888 17.685 14.9888C15.5763 14.9886 14.5781 14.5818 12.469 14.5818ZM12.315 16.0113C9.45825 16.0113 7.5 17.1771 7.5 19.5909C7.5 22.0047 9.1314 23.1705 11.5124 23.1705C15.4014 23.1705 18.6674 20.2032 19.091 16.284C18.5761 16.3763 18.054 16.4212 17.531 16.4183C15.422 16.4181 14.4237 16.0113 12.315 16.0113Z" fill="white"/>
</svg>
