<svg width="30" height="31" viewBox="0 0 30 31" fill="none" xmlns="http://www.w3.org/2000/svg">
<path d="M15 30.5C23.2843 30.5 30 23.7843 30 15.5C30 7.21573 23.2843 0.5 15 0.5C6.71573 0.5 0 7.21573 0 15.5C0 23.7843 6.71573 30.5 15 30.5Z" fill="black"/>
<path d="M21.6843 9.21102L19.4343 10.3585L8.56121 15.8963C8.40629 14.7063 8.58505 13.4965 9.07755 12.4021C9.57005 11.3077 10.3569 10.3717 11.3504 9.6984C12.3438 9.02511 13.5048 8.64107 14.7038 8.58911C15.9028 8.53715 17.0926 8.81932 18.1406 9.40414L19.4287 8.74789L19.6209 8.64945C18.3989 7.76266 16.9486 7.24407 15.4414 7.15492C13.9341 7.06577 12.4329 7.40978 11.1148 8.14633C9.79677 8.88287 8.71702 9.9812 8.00306 11.3116C7.2891 12.642 6.97074 14.149 7.08559 15.6545C7.10708 15.9376 7.0443 16.2208 6.90517 16.4684C6.76604 16.716 6.55677 16.9168 6.30371 17.0457L5.62402 17.3926V19.0088L7.62465 17.9888L8.27246 17.6579L8.9109 17.3326L20.3728 11.492L21.6609 10.8366L24.3234 9.48008V7.86477L21.6843 9.21102ZM24.3243 11.0973L9.5634 18.6123L8.27527 19.2685L5.62496 20.6213V22.2366L8.25746 20.896L10.5084 19.7485L21.3928 14.2023C21.5501 15.3942 21.3725 16.6063 20.88 17.703C20.3875 18.7998 19.5995 19.7378 18.6042 20.4121C17.6089 21.0864 16.4456 21.4704 15.2444 21.5211C14.0432 21.5718 12.8517 21.2872 11.8031 20.6991L11.7234 20.7413L10.3265 21.4538C11.5487 22.3411 12.9994 22.86 14.5071 22.9492C16.0147 23.0385 17.5165 22.6943 18.8348 21.9573C20.1531 21.2204 21.233 20.1215 21.9467 18.7904C22.6605 17.4594 22.9784 15.9519 22.8628 14.446C22.8415 14.1631 22.9043 13.8802 23.0432 13.6329C23.1822 13.3855 23.3911 13.1847 23.6437 13.0557L24.3243 12.7088V11.0982V11.0973Z" fill="white"/>
</svg>
