<svg width="30" height="31" viewBox="0 0 30 31" fill="none" xmlns="http://www.w3.org/2000/svg">
<circle cx="15" cy="15.5" r="15" fill="#41C6A7"/>
<path d="M16.8295 12.8727V10.7438H21.8739V7.5H8.13797V10.7438H13.1829V12.871C9.08284 13.0528 6 13.8365 6 14.7753C6 15.7141 9.08432 16.4978 13.1829 16.6807V23.5H16.8307V16.6801C20.9234 16.4978 24 15.7147 24 14.7767C24 13.8387 20.9234 13.0556 16.8307 12.8733L16.8295 12.8727ZM16.8307 16.1025V16.1008C16.7278 16.1071 16.199 16.1377 15.0216 16.1377C14.0803 16.1377 13.4181 16.1119 13.1847 16.1002V16.1031C9.56239 15.9482 6.85857 15.3394 6.85857 14.611C6.85857 13.8825 9.56269 13.2746 13.1847 13.1195V15.4966C13.422 15.5123 14.1005 15.5509 15.0371 15.5509C16.162 15.5509 16.7275 15.5057 16.8313 15.4966V13.1195C20.4465 13.2749 23.1441 13.8843 23.1441 14.6101C23.1441 15.336 20.4447 15.9454 16.8307 16.1008" fill="white"/>
</svg>
